<svg width="288" height="437" viewBox="0 0 288 437" fill="none" xmlns="http://www.w3.org/2000/svg">
<path d="M57.0116 59.952C56.5956 60.864 56.2676 61.736 56.0276 62.568C55.8036 63.4 55.6996 64.168 55.7156 64.872C55.7316 65.704 55.8596 66.392 56.0996 66.936C56.3556 67.48 56.7636 67.888 57.3236 68.16C57.8836 68.448 58.6196 68.592 59.5316 68.592H61.5956C62.3956 68.592 63.0516 68.536 63.5636 68.424C64.0916 68.328 64.4756 68.184 64.7156 67.992C64.9556 67.816 65.0756 67.6 65.0756 67.344C65.0916 67.168 65.0276 67 64.8836 66.84C64.7556 66.68 64.5156 66.544 64.1636 66.432C63.8596 66.336 63.4836 66.248 63.0356 66.168C62.5876 66.104 62.0996 66.064 61.5716 66.048C61.3476 66.032 61.0676 66.016 60.7316 66V62.544H68.6756L68.8676 64.224L68.6756 66H67.7156C67.8436 66.176 67.9316 66.384 67.9796 66.624C68.0436 66.88 68.0756 67.136 68.0756 67.392C68.0596 68.208 67.7796 68.968 67.2356 69.672C66.6916 70.392 65.9236 70.968 64.9316 71.4C63.9556 71.832 62.8436 72.048 61.5956 72.048H59.5316C58.1236 72.048 56.9076 71.728 55.8836 71.088C54.8596 70.464 54.0756 69.608 53.5316 68.52C53.0036 67.432 52.7316 66.224 52.7156 64.896C52.7156 63.984 52.8756 62.96 53.1956 61.824C53.5316 60.672 53.9316 59.592 54.3956 58.584L57.0116 59.952ZM68.3387 62.544H71.2187C72.3227 62.544 73.3707 62.448 74.3627 62.256C75.3707 62.048 76.3307 61.76 77.2427 61.392C78.1547 61.024 79.1467 60.536 80.2187 59.928L80.7947 59.592L80.9147 60.744L80.1227 60.432C78.5227 59.872 77.1227 59.416 75.9227 59.064C74.7387 58.696 73.9867 58.512 73.6667 58.512C73.3307 58.512 73.0507 58.616 72.8267 58.824C72.6027 59.016 72.4027 59.352 72.2267 59.832L69.5387 58.968C69.9067 57.72 70.4507 56.768 71.1707 56.112C71.8907 55.456 72.7227 55.128 73.6667 55.128C74.2587 55.128 75.1867 55.344 76.4507 55.776C77.7147 56.192 79.2667 56.784 81.1067 57.552C81.6987 57.776 82.1227 57.944 82.3787 58.056L82.8347 61.824L81.9227 62.4C80.6267 63.2 79.4507 63.848 78.3947 64.344C77.3547 64.84 76.2347 65.24 75.0347 65.544C73.8507 65.848 72.5787 66 71.2187 66H68.3387V62.544ZM85.9189 49.968H88.9669V66H85.9189V49.968ZM96.5496 57.96V64.728C96.5496 66.248 96.2776 67.56 95.7336 68.664C95.2056 69.768 94.4216 70.608 93.3816 71.184C92.3576 71.76 91.1016 72.048 89.6136 72.048H88.1016V68.592H89.6136C90.6216 68.592 91.3976 68.472 91.9416 68.232C92.5016 68.008 92.8936 67.616 93.1176 67.056C93.3576 66.512 93.4776 65.736 93.4776 64.728V57.96H96.5496ZM96.5496 61.44C96.5496 61.856 96.6536 62.144 96.8616 62.304C97.0856 62.464 97.4376 62.544 97.9176 62.544H98.3736L98.5176 64.296L98.3736 66H97.9176C97.4856 66 97.0856 65.912 96.7176 65.736C96.3656 65.56 96.0696 65.28 95.8296 64.896C95.6056 64.496 95.4616 63.984 95.3976 63.36L96.5496 61.44ZM98.1534 62.544H107.897C108.681 62.544 109.281 62.392 109.697 62.088C110.113 61.784 110.321 61.312 110.321 60.672C110.321 60.048 110.153 59.544 109.817 59.16C109.497 58.76 109.001 58.56 108.329 58.56C107.945 58.56 107.609 58.624 107.321 58.752C107.033 58.88 106.753 59.08 106.481 59.352C106.225 59.608 105.929 59.96 105.593 60.408L102.257 64.872L100.025 63.264L103.001 58.824C103.881 57.544 104.729 56.608 105.545 56.016C106.377 55.408 107.321 55.104 108.377 55.104C109.449 55.104 110.353 55.368 111.089 55.896C111.825 56.408 112.377 57.088 112.745 57.936C113.129 58.784 113.321 59.704 113.321 60.696C113.321 61.672 113.097 62.568 112.649 63.384C112.201 64.184 111.561 64.824 110.729 65.304C109.913 65.768 108.969 66 107.897 66H98.1534V62.544ZM101.153 49.968H104.201V61.32L101.177 62.544L101.153 49.968ZM130.728 60.456C130.904 61.24 131.256 61.784 131.784 62.088C132.312 62.392 132.992 62.544 133.824 62.544H134.304L134.496 64.224L134.304 66H133.824C132.448 66 131.184 65.624 130.032 64.872C128.896 64.104 128.136 62.904 127.752 61.272C127.048 58.344 126.344 55.416 125.64 52.488L128.616 51.72L130.728 60.456ZM129.888 57.744C130 58.784 130 59.672 129.888 60.408C129.792 61.128 129.552 61.816 129.168 62.472C128.704 63.288 128.12 63.92 127.416 64.368C126.712 64.8 125.952 65.024 125.136 65.04C124.32 65.056 123.512 64.832 122.712 64.368C121.896 63.92 121.264 63.288 120.816 62.472C120.384 61.64 120.168 60.76 120.168 59.832C120.184 58.904 120.416 58.072 120.864 57.336C121.152 56.824 121.48 56.392 121.848 56.04C122.232 55.688 122.848 55.296 123.696 54.864C124.56 54.416 125.824 53.856 127.488 53.184L128.64 56.4C127.344 56.864 126.352 57.256 125.664 57.576C124.976 57.896 124.48 58.168 124.176 58.392C123.872 58.616 123.648 58.856 123.504 59.112C123.248 59.496 123.168 59.912 123.264 60.36C123.376 60.808 123.632 61.16 124.032 61.416C124.448 61.688 124.904 61.792 125.4 61.728C125.896 61.648 126.328 61.4 126.696 60.984C126.952 60.696 127.112 60.344 127.176 59.928C127.24 59.512 127.208 58.976 127.08 58.32L129.888 57.744ZM145.556 51.576L138.836 54.528L142.532 58.296C143.46 59.224 143.94 60.304 143.972 61.536C144.004 62.768 143.604 63.824 142.772 64.704C141.94 65.568 140.82 66 139.412 66H134.06V62.544H139.484C139.916 62.544 140.252 62.456 140.492 62.28C140.732 62.088 140.836 61.84 140.804 61.536C140.772 61.232 140.604 60.928 140.3 60.624L135.524 55.824L136.268 51.96L144.308 48.408L145.556 51.576ZM155.519 59.952C155.103 60.864 154.775 61.736 154.535 62.568C154.311 63.4 154.207 64.168 154.223 64.872C154.239 65.704 154.367 66.392 154.607 66.936C154.863 67.48 155.271 67.888 155.831 68.16C156.391 68.448 157.127 68.592 158.039 68.592H160.103C160.903 68.592 161.559 68.536 162.071 68.424C162.599 68.328 162.983 68.184 163.223 67.992C163.463 67.816 163.583 67.6 163.583 67.344C163.599 67.168 163.535 67 163.391 66.84C163.263 66.68 163.023 66.544 162.671 66.432C162.367 66.336 161.991 66.248 161.543 66.168C161.095 66.104 160.607 66.064 160.079 66.048C159.855 66.032 159.575 66.016 159.239 66V62.544H167.183L167.375 64.224L167.183 66H166.223C166.351 66.176 166.439 66.384 166.487 66.624C166.551 66.88 166.583 67.136 166.583 67.392C166.567 68.208 166.287 68.968 165.743 69.672C165.199 70.392 164.431 70.968 163.439 71.4C162.463 71.832 161.351 72.048 160.103 72.048H158.039C156.631 72.048 155.415 71.728 154.391 71.088C153.367 70.464 152.583 69.608 152.039 68.52C151.511 67.432 151.239 66.224 151.223 64.896C151.223 63.984 151.383 62.96 151.703 61.824C152.039 60.672 152.439 59.592 152.903 58.584L155.519 59.952ZM166.918 62.544H169.583C170.303 62.544 170.815 62.424 171.119 62.184C171.423 61.928 171.559 61.568 171.527 61.104C171.495 60.656 171.415 60.056 171.287 59.304C171.175 58.552 171.047 57.824 170.903 57.12L173.783 56.4C173.975 57.2 174.151 58.072 174.311 59.016C174.487 59.96 174.575 60.736 174.575 61.344C174.591 62.144 174.423 62.904 174.071 63.624C173.719 64.328 173.183 64.904 172.463 65.352C171.759 65.784 170.879 66 169.823 66H166.918V62.544ZM167.591 50.88C168.007 50.88 168.319 50.88 168.527 50.88C168.751 50.88 169.079 50.88 169.511 50.88C169.815 50.88 170.127 50.88 170.447 50.88C170.447 51.536 170.447 52.016 170.447 52.32C170.447 52.624 170.447 53.096 170.447 53.736C169.791 53.736 169.303 53.736 168.983 53.736C168.679 53.736 168.215 53.736 167.591 53.736C167.591 53.08 167.591 52.6 167.591 52.296C167.591 51.976 167.591 51.504 167.591 50.88ZM172.079 50.88C172.735 50.88 173.215 50.88 173.519 50.88C173.839 50.88 174.319 50.88 174.959 50.88C174.959 51.536 174.959 52.016 174.959 52.32C174.959 52.624 174.959 53.096 174.959 53.736C174.303 53.736 173.815 53.736 173.495 53.736C173.191 53.736 172.719 53.736 172.079 53.736C172.079 53.08 172.079 52.6 172.079 52.296C172.079 51.976 172.079 51.504 172.079 50.88ZM176.981 62.544H183.629C184.141 62.544 184.525 62.424 184.781 62.184C185.053 61.928 185.189 61.536 185.189 61.008V49.968H188.237V61.32C188.237 62.376 188.005 63.256 187.541 63.96C187.077 64.664 186.501 65.184 185.813 65.52C185.141 65.84 184.469 66 183.797 66H176.981V62.544ZM177.317 50.448L180.365 50.232L181.061 60.816L177.989 61.032L177.317 50.448ZM193.981 68.76C195.021 68.76 195.797 68.664 196.309 68.472C196.837 68.28 197.189 67.968 197.365 67.536C197.557 67.104 197.653 66.472 197.653 65.64V60.864C197.653 60.08 197.485 59.472 197.149 59.04C196.829 58.592 196.301 58.368 195.565 58.368C194.909 58.368 194.413 58.592 194.077 59.04C193.741 59.488 193.573 60.064 193.573 60.768C193.573 61.424 193.733 61.912 194.053 62.232C194.373 62.536 194.885 62.688 195.589 62.688H198.469L199.429 62.544H202.021L202.213 64.296L202.021 66H195.589C194.069 66 192.861 65.56 191.965 64.68C191.085 63.784 190.645 62.536 190.645 60.936C190.645 59.8 190.853 58.792 191.269 57.912C191.685 57.032 192.269 56.352 193.021 55.872C193.773 55.376 194.621 55.128 195.565 55.128C196.589 55.128 197.485 55.368 198.253 55.848C199.037 56.328 199.637 57.008 200.053 57.888C200.485 58.768 200.701 59.784 200.701 60.936V65.64C200.701 66.92 200.469 68.048 200.005 69.024C199.557 70.016 198.837 70.792 197.845 71.352C196.853 71.928 195.565 72.216 193.981 72.216H191.125V68.76H193.981ZM211.346 58.824C212.21 57.544 213.058 56.608 213.89 56.016C214.722 55.408 215.674 55.104 216.746 55.104C217.802 55.104 218.698 55.368 219.434 55.896C220.17 56.408 220.722 57.088 221.09 57.936C221.474 58.784 221.666 59.704 221.666 60.696C221.666 61.672 221.442 62.568 220.994 63.384C220.562 64.184 219.93 64.824 219.098 65.304C218.282 65.768 217.33 66 216.242 66H209.882C209.13 66 208.386 65.808 207.65 65.424C206.93 65.024 206.33 64.48 205.85 63.792C205.386 63.088 205.154 62.32 205.154 61.488V57.96H208.202V61.488C208.202 61.904 208.33 62.184 208.586 62.328C208.842 62.472 209.178 62.544 209.594 62.544H216.242C217.026 62.544 217.626 62.392 218.042 62.088C218.458 61.784 218.666 61.312 218.666 60.672C218.666 60.048 218.506 59.544 218.186 59.16C217.866 58.76 217.362 58.56 216.674 58.56C216.306 58.56 215.978 58.632 215.69 58.776C215.402 58.904 215.122 59.096 214.85 59.352C214.594 59.608 214.298 59.96 213.962 60.408C213.034 61.608 211.914 63.096 210.602 64.872L208.37 63.264L211.346 58.824ZM208.202 61.488C208.202 62.256 207.962 62.992 207.482 63.696C207.002 64.384 206.378 64.944 205.61 65.376C204.842 65.792 204.058 66 203.258 66H201.554V62.544H203.306C203.946 62.544 204.41 62.464 204.698 62.304C205.002 62.144 205.154 61.872 205.154 61.488H208.202ZM223.226 66C222.602 66 222.01 65.872 221.45 65.616C220.89 65.36 220.426 65.048 220.058 64.68C219.69 64.312 219.442 63.952 219.314 63.6L220.874 61.416C221.082 61.8 221.378 62.088 221.762 62.28C222.146 62.456 222.658 62.544 223.298 62.544H223.85L224.114 64.32L223.85 66H223.226ZM239.117 66C237.869 66 236.853 65.68 236.069 65.04C235.301 64.384 234.773 63.432 234.485 62.184L235.661 60.912C236.029 61.408 236.509 61.808 237.101 62.112C237.709 62.4 238.349 62.544 239.021 62.544H240.341L240.557 64.224L240.341 66H239.117ZM223.565 62.544H226.445C227.549 62.544 228.597 62.448 229.589 62.256C230.597 62.048 231.557 61.76 232.469 61.392C233.381 61.024 234.373 60.536 235.445 59.928L236.021 59.592L236.141 60.744L235.349 60.432C233.749 59.872 232.349 59.416 231.149 59.064C229.965 58.696 229.213 58.512 228.893 58.512C228.557 58.512 228.277 58.616 228.053 58.824C227.829 59.016 227.629 59.352 227.453 59.832L224.765 58.968C225.133 57.72 225.677 56.768 226.397 56.112C227.117 55.456 227.949 55.128 228.893 55.128C229.485 55.128 230.413 55.344 231.677 55.776C232.941 56.192 234.493 56.784 236.333 57.552C236.925 57.776 237.349 57.944 237.605 58.056L238.061 61.824L237.149 62.4C235.853 63.2 234.677 63.848 233.621 64.344C232.581 64.84 231.461 65.24 230.261 65.544C229.077 65.848 227.805 66 226.445 66H223.565V62.544ZM240.044 62.544H240.668C240.972 62.544 241.212 62.472 241.388 62.328C241.564 62.168 241.692 61.912 241.772 61.56L242.396 59.256C242.748 57.864 243.34 56.8 244.172 56.064C245.004 55.328 246.004 54.96 247.172 54.96C248.084 54.96 248.908 55.216 249.644 55.728C250.38 56.224 250.956 56.92 251.372 57.816C251.788 58.696 251.996 59.688 251.996 60.792C251.996 62.104 251.78 63.184 251.348 64.032C250.916 64.88 250.372 65.496 249.716 65.88C249.06 66.248 248.388 66.432 247.7 66.432C247.108 66.432 246.476 66.304 245.804 66.048C245.132 65.792 244.092 65.328 242.684 64.656L242.06 64.344L243.404 61.392C243.516 61.44 243.62 61.488 243.716 61.536C245.012 62.16 245.916 62.576 246.428 62.784C246.94 62.976 247.404 63.072 247.82 63.072C248.236 63.072 248.556 62.896 248.78 62.544C249.02 62.176 249.14 61.6 249.14 60.816C249.14 60.016 248.972 59.4 248.636 58.968C248.3 58.536 247.852 58.304 247.292 58.272C246.812 58.256 246.388 58.416 246.02 58.752C245.668 59.088 245.412 59.584 245.252 60.24L244.556 62.88C244.412 63.472 244.14 64.008 243.74 64.488C243.356 64.952 242.892 65.32 242.348 65.592C241.82 65.864 241.276 66 240.716 66H240.044V62.544ZM13.1518 100C12.0158 100 11.0478 99.72 10.2478 99.16C9.46381 98.6 8.90381 97.872 8.56781 96.976C8.23181 96.064 8.15981 95.112 8.35181 94.12C8.57581 92.952 8.80781 91.872 9.04781 90.88L11.8558 91.576L11.7118 92.224C11.4398 93.36 11.2798 94.168 11.2318 94.648C11.1518 95.208 11.2798 95.664 11.6158 96.016C11.9518 96.368 12.4638 96.544 13.1518 96.544H23.4718C24.1278 96.544 24.6078 96.4 24.9118 96.112C25.2318 95.824 25.3838 95.44 25.3678 94.96C25.3518 94.24 25.1438 92.904 24.7438 90.952L27.6238 90.232C28.1518 92.504 28.4158 94.16 28.4158 95.2C28.4158 96 28.2318 96.768 27.8638 97.504C27.5118 98.24 26.9838 98.84 26.2798 99.304C25.5758 99.768 24.7198 100 23.7118 100H13.1518ZM14.7118 88.48C15.1278 88.48 15.4398 88.48 15.6478 88.48C15.8718 88.48 16.1998 88.48 16.6318 88.48C16.9358 88.48 17.2478 88.48 17.5678 88.48C17.5678 89.136 17.5678 89.616 17.5678 89.92C17.5678 90.224 17.5678 90.696 17.5678 91.336C16.9118 91.336 16.4238 91.336 16.1038 91.336C15.7998 91.336 15.3358 91.336 14.7118 91.336C14.7118 90.68 14.7118 90.2 14.7118 89.896C14.7118 89.576 14.7118 89.104 14.7118 88.48ZM19.1998 88.48C19.8558 88.48 20.3358 88.48 20.6398 88.48C20.9598 88.48 21.4398 88.48 22.0798 88.48C22.0798 89.136 22.0798 89.616 22.0798 89.92C22.0798 90.224 22.0798 90.696 22.0798 91.336C21.4238 91.336 20.9358 91.336 20.6158 91.336C20.3118 91.336 19.8398 91.336 19.1998 91.336C19.1998 90.68 19.1998 90.2 19.1998 89.896C19.1998 89.576 19.1998 89.104 19.1998 88.48ZM36.1511 91.96V98.728C36.1511 100.248 35.8791 101.56 35.3351 102.664C34.8071 103.768 34.0231 104.608 32.9831 105.184C31.9591 105.76 30.7031 106.048 29.2151 106.048H27.7031V102.592H29.2151C30.2231 102.592 30.9991 102.472 31.5431 102.232C32.1031 102.008 32.4951 101.616 32.7191 101.056C32.9591 100.512 33.0791 99.736 33.0791 98.728V91.96H36.1511ZM41.6141 102.76C42.6541 102.76 43.4301 102.664 43.9421 102.472C44.4701 102.28 44.8221 101.968 44.9981 101.536C45.1901 101.104 45.2861 100.472 45.2861 99.64V94.864C45.2861 94.08 45.1181 93.472 44.7821 93.04C44.4621 92.592 43.9341 92.368 43.1981 92.368C42.5421 92.368 42.0461 92.592 41.7101 93.04C41.3741 93.488 41.2061 94.064 41.2061 94.768C41.2061 95.424 41.3661 95.912 41.6861 96.232C42.0061 96.536 42.5181 96.688 43.2221 96.688H46.1021L47.0621 96.544H49.6541L49.8461 98.296L49.6541 100H43.2221C41.7021 100 40.4941 99.56 39.5981 98.68C38.7181 97.784 38.2781 96.536 38.2781 94.936C38.2781 93.8 38.4861 92.792 38.9021 91.912C39.3181 91.032 39.9021 90.352 40.6541 89.872C41.4061 89.376 42.2541 89.128 43.1981 89.128C44.2221 89.128 45.1181 89.368 45.8861 89.848C46.6701 90.328 47.2701 91.008 47.6861 91.888C48.1181 92.768 48.3341 93.784 48.3341 94.936V99.64C48.3341 100.92 48.1021 102.048 47.6381 103.024C47.1901 104.016 46.4701 104.792 45.4781 105.352C44.4861 105.928 43.1981 106.216 41.6141 106.216H38.7581V102.76H41.6141ZM59.2189 92.824C60.0829 91.544 60.9309 90.608 61.7629 90.016C62.5949 89.408 63.5389 89.104 64.5949 89.104C65.6669 89.104 66.5709 89.368 67.3069 89.896C68.0429 90.408 68.5949 91.088 68.9629 91.936C69.3469 92.784 69.5389 93.704 69.5389 94.696C69.5389 95.672 69.3149 96.568 68.8669 97.384C68.4189 98.184 67.7789 98.824 66.9469 99.304C66.1309 99.768 65.1869 100 64.1149 100H57.7309C56.9789 100 56.2429 99.808 55.5229 99.424C54.8029 99.024 54.2029 98.48 53.7229 97.792C53.2429 97.088 53.0029 96.32 53.0029 95.488V91.96H56.0749V95.488C56.0749 95.904 56.1949 96.184 56.4349 96.328C56.6909 96.472 57.0349 96.544 57.4669 96.544H64.1149C64.8989 96.544 65.4989 96.392 65.9149 96.088C66.3309 95.784 66.5389 95.312 66.5389 94.672C66.5389 94.048 66.3709 93.544 66.0349 93.16C65.7149 92.76 65.2189 92.56 64.5469 92.56C64.1789 92.56 63.8509 92.632 63.5629 92.776C63.2749 92.904 62.9949 93.096 62.7229 93.352C62.4669 93.608 62.1629 93.96 61.8109 94.408C60.8829 95.608 59.7709 97.096 58.4749 98.872L56.2429 97.264L59.2189 92.824ZM56.0749 95.488C56.0749 96.256 55.8269 96.992 55.3309 97.696C54.8509 98.384 54.2269 98.944 53.4589 99.376C52.7069 99.792 51.9309 100 51.1309 100H49.4269V96.544H51.1789C51.8189 96.544 52.2829 96.464 52.5709 96.304C52.8589 96.144 53.0029 95.872 53.0029 95.488H56.0749ZM83.7527 91.96V98.728C83.7527 100.248 83.4807 101.56 82.9367 102.664C82.4087 103.768 81.6247 104.608 80.5847 105.184C79.5607 105.76 78.3047 106.048 76.8167 106.048H75.3047V102.592H76.8167C77.8247 102.592 78.6007 102.472 79.1447 102.232C79.7047 102.008 80.0967 101.616 80.3207 101.056C80.5607 100.512 80.6807 99.736 80.6807 98.728V91.96H83.7527ZM93.0557 88.912C93.5517 89.664 93.9837 90.336 94.3517 90.928C94.7357 91.504 95.1517 92.152 95.5997 92.872C96.1757 93.8 96.4797 94.736 96.5117 95.68C96.5437 96.624 96.3277 97.432 95.8637 98.104C95.3837 98.792 94.7997 99.28 94.1117 99.568C93.4237 99.856 92.5917 100 91.6157 100H90.3437C89.3357 100 88.4477 99.84 87.6797 99.52C86.9117 99.184 86.3117 98.824 85.8797 98.44L87.3197 95.68L87.3917 95.752C87.7597 95.944 88.1757 96.128 88.6397 96.304C89.1197 96.464 89.6957 96.544 90.3677 96.544H91.5437C92.0717 96.544 92.4717 96.504 92.7437 96.424C93.0317 96.344 93.2397 96.216 93.3677 96.04C93.4797 95.864 93.5117 95.672 93.4637 95.464C93.4157 95.24 93.2797 94.952 93.0557 94.6C91.7277 92.584 90.5037 90.76 89.3837 89.128L91.9517 87.208L93.0557 88.912ZM106.841 102.592C107.881 102.592 108.657 102.496 109.169 102.304C109.697 102.112 110.049 101.8 110.225 101.368C110.417 100.936 110.513 100.304 110.513 99.472V94.696C110.513 93.912 110.345 93.304 110.009 92.872C109.689 92.424 109.161 92.2 108.425 92.2C107.769 92.2 107.273 92.424 106.937 92.872C106.601 93.32 106.433 93.896 106.433 94.6C106.433 95.256 106.593 95.744 106.913 96.064C107.233 96.368 107.745 96.52 108.449 96.52H111.905V99.832H108.449C106.929 99.832 105.721 99.392 104.825 98.512C103.945 97.616 103.505 96.368 103.505 94.768C103.505 93.632 103.713 92.624 104.129 91.744C104.545 90.864 105.129 90.184 105.881 89.704C106.633 89.208 107.481 88.96 108.425 88.96C109.449 88.96 110.345 89.2 111.113 89.68C111.897 90.144 112.497 90.824 112.913 91.72C113.345 92.6 113.561 93.616 113.561 94.768V99.472C113.561 100.752 113.329 101.88 112.865 102.856C112.417 103.848 111.697 104.624 110.705 105.184C109.713 105.76 108.425 106.048 106.841 106.048H103.985V102.592H106.841ZM127.936 87.256C128.112 87.64 128.6 88.688 129.4 90.4C129.768 91.184 130.128 91.976 130.48 92.776C130.896 93.72 131.136 94.64 131.2 95.536C131.28 96.416 131.064 97.216 130.552 97.936C130.008 98.704 129.36 99.24 128.608 99.544C127.856 99.848 127.032 100 126.136 100H124.912C123.936 100 123.072 99.832 122.32 99.496C121.568 99.16 120.968 98.8 120.52 98.416L121.96 95.656L122.032 95.704C122.4 95.928 122.816 96.128 123.28 96.304C123.76 96.464 124.304 96.544 124.912 96.544H126.136C126.664 96.544 127.072 96.512 127.36 96.448C127.664 96.368 127.88 96.232 128.008 96.04C128.152 95.848 128.2 95.64 128.152 95.416C128.104 95.176 127.952 94.776 127.696 94.216L126.016 90.568C125.712 89.912 125.424 89.288 125.152 88.696L127.936 87.256ZM130.48 92.8C130.928 93.792 131.304 94.552 131.608 95.08C131.912 95.592 132.224 95.968 132.544 96.208C132.864 96.432 133.248 96.544 133.696 96.544H134.104L134.272 98.32L134.104 100H133.696C132.8 100 132.008 99.776 131.32 99.328C130.632 98.88 130 98.248 129.424 97.432C128.864 96.6 128.296 95.536 127.72 94.24L130.48 92.8ZM141.457 91.96V95.44C141.457 95.856 141.561 96.144 141.769 96.304C141.993 96.464 142.353 96.544 142.849 96.544H144.145L144.289 98.368L144.145 100H142.849C142.177 100 141.497 99.84 140.809 99.52C140.137 99.184 139.569 98.664 139.105 97.96C138.641 97.256 138.409 96.376 138.409 95.32V91.96H141.457ZM141.313 95.488C141.313 96.416 141.089 97.224 140.641 97.912C140.193 98.584 139.601 99.104 138.865 99.472C138.145 99.824 137.385 100 136.585 100H133.849V96.544H136.585C137.257 96.544 137.729 96.456 138.001 96.28C138.273 96.088 138.409 95.768 138.409 95.32L141.313 95.488ZM132.217 102.952C132.633 102.952 132.953 102.952 133.177 102.952C133.385 102.952 133.705 102.952 134.137 102.952C134.441 102.952 134.753 102.952 135.073 102.952C135.073 103.608 135.073 104.088 135.073 104.392C135.073 104.696 135.073 105.168 135.073 105.808C134.417 105.808 133.937 105.808 133.633 105.808C133.313 105.808 132.841 105.808 132.217 105.808C132.217 105.152 132.217 104.664 132.217 104.344C132.217 104.04 132.217 103.576 132.217 102.952ZM136.705 102.952C137.361 102.952 137.841 102.952 138.145 102.952C138.465 102.952 138.945 102.952 139.585 102.952C139.585 103.608 139.585 104.088 139.585 104.392C139.585 104.696 139.585 105.168 139.585 105.808C138.929 105.808 138.441 105.808 138.121 105.808C137.817 105.808 137.345 105.808 136.705 105.808C136.705 105.152 136.705 104.664 136.705 104.344C136.705 104.04 136.705 103.576 136.705 102.952ZM150.863 91.96V95.44C150.863 95.856 150.967 96.144 151.175 96.304C151.399 96.464 151.759 96.544 152.255 96.544H152.975L153.119 98.392L152.975 100H152.255C151.583 100 150.903 99.84 150.215 99.52C149.543 99.184 148.975 98.664 148.511 97.96C148.047 97.256 147.815 96.376 147.815 95.32V91.96H150.863ZM150.719 95.488C150.719 96.416 150.495 97.224 150.047 97.912C149.599 98.584 149.007 99.104 148.271 99.472C147.551 99.824 146.799 100 146.015 100H143.903V96.544H146.015C146.671 96.544 147.135 96.456 147.407 96.28C147.679 96.088 147.815 95.768 147.815 95.32L150.719 95.488ZM146.783 86.008C147.327 86.008 147.871 86.008 148.415 86.008C148.943 86.008 149.463 86.008 149.975 86.008C149.975 86.712 149.975 87.24 149.975 87.592C149.975 87.928 149.975 88.44 149.975 89.128C149.255 89.128 148.719 89.128 148.367 89.128C148.015 89.128 147.487 89.128 146.783 89.128C146.783 88.408 146.783 87.88 146.783 87.544C146.783 87.192 146.783 86.68 146.783 86.008ZM160.347 91.96V95.44C160.347 95.856 160.451 96.144 160.659 96.304C160.883 96.464 161.243 96.544 161.739 96.544H163.035L163.179 98.368L163.035 100H161.739C161.067 100 160.387 99.84 159.699 99.52C159.027 99.184 158.459 98.664 157.995 97.96C157.531 97.256 157.299 96.376 157.299 95.32V91.96H160.347ZM160.203 95.488C160.203 96.416 159.979 97.224 159.531 97.912C159.083 98.584 158.491 99.104 157.755 99.472C157.035 99.824 156.275 100 155.475 100H152.739V96.544H155.475C156.147 96.544 156.619 96.456 156.891 96.28C157.163 96.088 157.299 95.768 157.299 95.32L160.203 95.488ZM151.107 102.952C151.523 102.952 151.843 102.952 152.067 102.952C152.275 102.952 152.595 102.952 153.027 102.952C153.331 102.952 153.643 102.952 153.963 102.952C153.963 103.608 153.963 104.088 153.963 104.392C153.963 104.696 153.963 105.168 153.963 105.808C153.307 105.808 152.827 105.808 152.523 105.808C152.203 105.808 151.731 105.808 151.107 105.808C151.107 105.152 151.107 104.664 151.107 104.344C151.107 104.04 151.107 103.576 151.107 102.952ZM155.595 102.952C156.251 102.952 156.731 102.952 157.035 102.952C157.355 102.952 157.835 102.952 158.475 102.952C158.475 103.608 158.475 104.088 158.475 104.392C158.475 104.696 158.475 105.168 158.475 105.808C157.819 105.808 157.331 105.808 157.011 105.808C156.707 105.808 156.235 105.808 155.595 105.808C155.595 105.152 155.595 104.664 155.595 104.344C155.595 104.04 155.595 103.576 155.595 102.952ZM169.754 91.96V95.44C169.754 95.856 169.858 96.144 170.066 96.304C170.29 96.464 170.65 96.544 171.146 96.544H171.866L172.01 98.392L171.866 100H171.146C170.474 100 169.794 99.84 169.106 99.52C168.434 99.184 167.866 98.664 167.402 97.96C166.938 97.256 166.706 96.376 166.706 95.32V91.96H169.754ZM169.61 95.488C169.61 96.416 169.386 97.224 168.938 97.912C168.49 98.584 167.898 99.104 167.162 99.472C166.442 99.824 165.69 100 164.906 100H162.794V96.544H164.906C165.562 96.544 166.026 96.456 166.298 96.28C166.57 96.088 166.706 95.768 166.706 95.32L169.61 95.488ZM162.674 102.904C163.218 102.904 163.762 102.904 164.306 102.904C164.834 102.904 165.354 102.904 165.866 102.904C165.866 103.624 165.866 104.152 165.866 104.488C165.866 104.84 165.866 105.352 165.866 106.024C165.146 106.024 164.61 106.024 164.258 106.024C163.906 106.024 163.378 106.024 162.674 106.024C162.674 105.32 162.674 104.792 162.674 104.44C162.674 104.104 162.674 103.592 162.674 102.904ZM171.606 96.544H173.934C174.574 96.544 175.038 96.424 175.326 96.184C175.614 95.928 175.742 95.568 175.71 95.104C175.678 94.688 175.598 94.096 175.47 93.328C175.342 92.56 175.214 91.824 175.086 91.12L177.942 90.4C178.15 91.2 178.334 92.072 178.494 93.016C178.654 93.96 178.742 94.736 178.758 95.344C178.774 96.128 178.606 96.88 178.254 97.6C177.918 98.32 177.398 98.904 176.694 99.352C176.006 99.784 175.166 100 174.174 100H171.606V96.544ZM171.15 102.904C171.694 102.904 172.238 102.904 172.782 102.904C173.31 102.904 173.83 102.904 174.342 102.904C174.342 103.624 174.342 104.152 174.342 104.488C174.342 104.84 174.342 105.352 174.342 106.024C173.622 106.024 173.086 106.024 172.734 106.024C172.382 106.024 171.854 106.024 171.15 106.024C171.15 105.32 171.15 104.792 171.15 104.44C171.15 104.104 171.15 103.592 171.15 102.904ZM188.919 102.592C189.959 102.592 190.735 102.496 191.247 102.304C191.775 102.112 192.127 101.8 192.303 101.368C192.495 100.936 192.591 100.304 192.591 99.472V94.696C192.591 93.912 192.423 93.304 192.087 92.872C191.767 92.424 191.239 92.2 190.503 92.2C189.847 92.2 189.351 92.424 189.015 92.872C188.679 93.32 188.511 93.896 188.511 94.6C188.511 95.256 188.671 95.744 188.991 96.064C189.311 96.368 189.823 96.52 190.527 96.52H193.983V99.832H190.527C189.007 99.832 187.799 99.392 186.903 98.512C186.023 97.616 185.583 96.368 185.583 94.768C185.583 93.632 185.791 92.624 186.207 91.744C186.623 90.864 187.207 90.184 187.959 89.704C188.711 89.208 189.559 88.96 190.503 88.96C191.527 88.96 192.423 89.2 193.191 89.68C193.975 90.144 194.575 90.824 194.991 91.72C195.423 92.6 195.639 93.616 195.639 94.768V99.472C195.639 100.752 195.407 101.88 194.943 102.856C194.495 103.848 193.775 104.624 192.783 105.184C191.791 105.76 190.503 106.048 188.919 106.048H186.063V102.592H188.919ZM205.276 91.96V98.728C205.276 100.248 205.004 101.56 204.46 102.664C203.932 103.768 203.148 104.608 202.108 105.184C201.084 105.76 199.828 106.048 198.34 106.048H196.828V102.592H198.34C199.348 102.592 200.124 102.472 200.668 102.232C201.228 102.008 201.62 101.616 201.844 101.056C202.084 100.512 202.204 99.736 202.204 98.728V91.96H205.276ZM218.117 87.856C219.301 89.136 220.181 90.136 220.757 90.856C221.349 91.56 221.805 92.264 222.125 92.968C222.461 93.672 222.629 94.408 222.629 95.176C222.629 96.088 222.389 96.928 221.909 97.696C221.429 98.464 220.781 99.08 219.965 99.544C219.149 99.992 218.269 100.216 217.325 100.216C216.349 100.216 215.453 99.992 214.637 99.544C213.821 99.08 213.173 98.464 212.693 97.696C212.213 96.928 211.973 96.088 211.973 95.176C211.973 94.36 212.125 93.608 212.429 92.92C212.749 92.216 213.141 91.576 213.605 91C214.069 90.424 214.717 89.696 215.549 88.816L216.077 88.264L218.189 90.424L217.565 91.072C216.877 91.808 216.373 92.368 216.053 92.752C215.733 93.12 215.477 93.48 215.285 93.832C215.109 94.184 215.021 94.536 215.021 94.888C215.021 95.432 215.213 95.896 215.597 96.28C215.997 96.664 216.573 96.856 217.325 96.856C218.045 96.856 218.597 96.664 218.981 96.28C219.381 95.896 219.581 95.432 219.581 94.888C219.581 94.552 219.461 94.184 219.221 93.784C218.981 93.384 218.613 92.896 218.117 92.32C217.621 91.744 216.789 90.816 215.621 89.536C215.397 89.296 215.205 89.088 215.045 88.912C214.885 88.72 214.685 88.496 214.445 88.24L216.581 86.176L218.117 87.856ZM232.444 87.256C232.62 87.64 233.108 88.688 233.908 90.4C234.276 91.184 234.636 91.976 234.988 92.776C235.404 93.72 235.644 94.64 235.708 95.536C235.788 96.416 235.572 97.216 235.06 97.936C234.516 98.704 233.868 99.24 233.116 99.544C232.364 99.848 231.54 100 230.644 100H229.42C228.444 100 227.58 99.832 226.828 99.496C226.076 99.16 225.476 98.8 225.028 98.416L226.468 95.656L226.54 95.704C226.908 95.928 227.324 96.128 227.788 96.304C228.268 96.464 228.812 96.544 229.42 96.544H230.644C231.172 96.544 231.58 96.512 231.868 96.448C232.172 96.368 232.388 96.232 232.516 96.04C232.66 95.848 232.708 95.64 232.66 95.416C232.612 95.176 232.46 94.776 232.204 94.216L230.524 90.568C230.22 89.912 229.932 89.288 229.66 88.696L232.444 87.256ZM234.988 92.8C235.436 93.792 235.812 94.552 236.116 95.08C236.42 95.592 236.732 95.968 237.052 96.208C237.372 96.432 237.756 96.544 238.204 96.544H238.612L238.78 98.32L238.612 100H238.204C237.308 100 236.516 99.776 235.828 99.328C235.14 98.88 234.508 98.248 233.932 97.432C233.372 96.6 232.804 95.536 232.228 94.24L234.988 92.8ZM238.357 96.544H240.109C240.669 96.544 241.069 96.432 241.309 96.208C241.565 95.968 241.693 95.592 241.693 95.08V91.96H244.741V95.152C244.741 95.616 244.869 95.968 245.125 96.208C245.397 96.432 245.765 96.544 246.229 96.544C246.725 96.544 247.109 96.416 247.381 96.16C247.653 95.904 247.789 95.528 247.789 95.032V91.96H250.837L250.813 95.152C250.813 95.616 250.941 95.968 251.197 96.208C251.453 96.432 251.805 96.544 252.253 96.544C252.749 96.544 253.141 96.416 253.429 96.16C253.717 95.888 253.837 95.52 253.789 95.056C253.693 94.384 253.589 93.76 253.477 93.184C253.381 92.592 253.253 91.904 253.093 91.12L255.973 90.4C256.165 91.2 256.341 92.072 256.501 93.016C256.677 93.96 256.773 94.736 256.789 95.344C256.805 96.144 256.653 96.896 256.333 97.6C256.029 98.304 255.533 98.88 254.845 99.328C254.157 99.776 253.293 100 252.253 100C251.629 100 251.069 99.88 250.573 99.64C250.077 99.4 249.645 99.064 249.277 98.632C248.909 99.048 248.453 99.384 247.909 99.64C247.381 99.88 246.789 100 246.133 100C245.589 100 245.013 99.864 244.405 99.592C243.813 99.32 243.381 99 243.109 98.632C242.821 99.048 242.397 99.384 241.837 99.64C241.293 99.88 240.677 100 239.989 100H238.357V96.544ZM248.029 82.792C248.653 82.792 249.109 82.792 249.397 82.792C249.701 82.792 250.157 82.792 250.765 82.792C250.765 83.416 250.765 83.88 250.765 84.184C250.765 84.472 250.765 84.92 250.765 85.528C250.141 85.528 249.677 85.528 249.373 85.528C249.085 85.528 248.637 85.528 248.029 85.528C248.029 84.904 248.029 84.448 248.029 84.16C248.029 83.856 248.029 83.4 248.029 82.792ZM245.677 86.248C246.109 86.248 246.429 86.248 246.637 86.248C246.861 86.248 247.189 86.248 247.621 86.248C247.925 86.248 248.237 86.248 248.557 86.248C248.557 86.904 248.557 87.392 248.557 87.712C248.557 88.016 248.557 88.48 248.557 89.104C247.901 89.104 247.413 89.104 247.093 89.104C246.789 89.104 246.317 89.104 245.677 89.104C245.677 88.448 245.677 87.968 245.677 87.664C245.677 87.36 245.677 86.888 245.677 86.248ZM250.237 86.248C250.893 86.248 251.373 86.248 251.677 86.248C251.997 86.248 252.469 86.248 253.093 86.248C253.093 86.904 253.093 87.392 253.093 87.712C253.093 88.016 253.093 88.48 253.093 89.104C252.437 89.104 251.957 89.104 251.653 89.104C251.349 89.104 250.877 89.104 250.237 89.104C250.237 88.448 250.237 87.968 250.237 87.664C250.237 87.36 250.237 86.888 250.237 86.248ZM38.3777 127.376C38.0417 128.128 37.7377 128.952 37.4657 129.848C37.1937 130.728 37.0577 131.64 37.0577 132.584C37.0577 133.48 37.1937 134.224 37.4657 134.816C37.7377 135.408 38.1777 135.848 38.7857 136.136C39.4097 136.44 40.2257 136.592 41.2337 136.592H43.6097C44.6497 136.592 45.4257 136.496 45.9377 136.304C46.4497 136.128 46.7937 135.832 46.9697 135.416C47.1617 135.016 47.2577 134.424 47.2577 133.64V128.864C47.2577 128.08 47.0977 127.472 46.7777 127.04C46.4577 126.592 45.9297 126.368 45.1937 126.368C44.5217 126.368 44.0177 126.592 43.6817 127.04C43.3457 127.488 43.1777 128.064 43.1777 128.768C43.1777 129.424 43.3377 129.912 43.6577 130.232C43.9777 130.536 44.4977 130.688 45.2177 130.688H48.0977L49.0577 130.544H51.6497L51.8417 132.296L51.6497 134H45.2177C43.6817 134 42.4737 133.56 41.5937 132.68C40.7137 131.784 40.2737 130.536 40.2737 128.936C40.2737 127.8 40.4817 126.792 40.8977 125.912C41.3137 125.032 41.8897 124.352 42.6257 123.872C43.3777 123.376 44.2337 123.128 45.1937 123.128C46.2017 123.128 47.0897 123.368 47.8577 123.848C48.6417 124.328 49.2417 125.008 49.6577 125.888C50.0897 126.768 50.3057 127.784 50.3057 128.936V133.64C50.3057 134.872 50.0817 135.968 49.6337 136.928C49.1857 137.888 48.4577 138.648 47.4497 139.208C46.4577 139.768 45.1777 140.048 43.6097 140.048H41.2337C38.8977 140.048 37.1297 139.424 35.9297 138.176C34.7297 136.944 34.1297 135.168 34.1297 132.848C34.1297 131.552 34.2977 130.328 34.6337 129.176C34.9857 128.024 35.3617 127 35.7617 126.104L35.8097 125.984L38.4497 127.184L38.3777 127.376ZM41.3777 118.304C41.7937 118.304 42.1057 118.304 42.3137 118.304C42.5377 118.304 42.8657 118.304 43.2977 118.304C43.6017 118.304 43.9137 118.304 44.2337 118.304C44.2337 118.96 44.2337 119.44 44.2337 119.744C44.2337 120.048 44.2337 120.52 44.2337 121.16C43.5777 121.16 43.0897 121.16 42.7697 121.16C42.4657 121.16 42.0017 121.16 41.3777 121.16C41.3777 120.504 41.3777 120.024 41.3777 119.72C41.3777 119.4 41.3777 118.928 41.3777 118.304ZM45.8657 118.304C46.5217 118.304 47.0017 118.304 47.3057 118.304C47.6257 118.304 48.1057 118.304 48.7457 118.304C48.7457 118.96 48.7457 119.44 48.7457 119.744C48.7457 120.048 48.7457 120.52 48.7457 121.16C48.0897 121.16 47.6017 121.16 47.2817 121.16C46.9777 121.16 46.5057 121.16 45.8657 121.16C45.8657 120.504 45.8657 120.024 45.8657 119.72C45.8657 119.4 45.8657 118.928 45.8657 118.304ZM51.3951 130.544H53.7231C54.3631 130.544 54.8271 130.424 55.1151 130.184C55.4031 129.928 55.5311 129.568 55.4991 129.104C55.4671 128.688 55.3871 128.096 55.2591 127.328C55.1311 126.56 55.0031 125.824 54.8751 125.12L57.7311 124.4C57.9391 125.2 58.1231 126.072 58.2831 127.016C58.4431 127.96 58.5311 128.736 58.5471 129.344C58.5631 130.128 58.3951 130.88 58.0431 131.6C57.7071 132.32 57.1871 132.904 56.4831 133.352C55.7951 133.784 54.9551 134 53.9631 134H51.3951V130.544ZM52.8831 136.904C53.4271 136.904 53.9711 136.904 54.5151 136.904C55.0431 136.904 55.5631 136.904 56.0751 136.904C56.0751 137.624 56.0751 138.152 56.0751 138.488C56.0751 138.84 56.0751 139.352 56.0751 140.024C55.3551 140.024 54.8191 140.024 54.4671 140.024C54.1151 140.024 53.5871 140.024 52.8831 140.024C52.8831 139.32 52.8831 138.792 52.8831 138.44C52.8831 138.104 52.8831 137.592 52.8831 136.904ZM66.0816 134C64.9456 134 64.0096 133.776 63.2736 133.328C62.5536 132.864 62.0256 132.232 61.6896 131.432C61.3536 130.632 61.1856 129.688 61.1856 128.6V117.968H64.2336V128.6C64.2336 129.208 64.2656 129.64 64.3296 129.896C64.4096 130.152 64.5696 130.328 64.8096 130.424C65.0656 130.504 65.4896 130.544 66.0816 130.544H66.9456L67.0896 132.32L66.9456 134H66.0816ZM66.7003 130.544H76.4443C77.2283 130.544 77.8283 130.392 78.2443 130.088C78.6603 129.784 78.8683 129.312 78.8683 128.672C78.8683 128.048 78.7003 127.544 78.3643 127.16C78.0443 126.76 77.5483 126.56 76.8763 126.56C76.4923 126.56 76.1563 126.624 75.8683 126.752C75.5803 126.88 75.3003 127.08 75.0283 127.352C74.7723 127.608 74.4763 127.96 74.1403 128.408L70.8043 132.872L68.5723 131.264L71.5483 126.824C72.4283 125.544 73.2763 124.608 74.0923 124.016C74.9243 123.408 75.8683 123.104 76.9243 123.104C77.9963 123.104 78.9003 123.368 79.6363 123.896C80.3723 124.408 80.9243 125.088 81.2923 125.936C81.6763 126.784 81.8683 127.704 81.8683 128.696C81.8683 129.672 81.6443 130.568 81.1963 131.384C80.7483 132.184 80.1083 132.824 79.2763 133.304C78.4603 133.768 77.5163 134 76.4443 134H66.7003V130.544ZM69.7003 117.968H72.7483V129.32L69.7243 130.544L69.7003 117.968ZM83.2123 134C82.5883 134 81.9963 133.872 81.4363 133.616C80.8923 133.36 80.4363 133.048 80.0683 132.68C79.7003 132.312 79.4443 131.952 79.3003 131.6L80.8603 129.416C81.0683 129.8 81.3643 130.088 81.7483 130.28C82.1323 130.456 82.6523 130.544 83.3083 130.544H83.8363L84.1003 132.32L83.8363 134H83.2123ZM83.6456 130.544H84.2696C84.5736 130.544 84.8136 130.472 84.9896 130.328C85.1656 130.168 85.2936 129.912 85.3736 129.56L85.9976 127.256C86.3496 125.864 86.9416 124.8 87.7736 124.064C88.6056 123.328 89.6056 122.96 90.7736 122.96C91.6856 122.96 92.5096 123.216 93.2456 123.728C93.9816 124.224 94.5576 124.92 94.9736 125.816C95.3896 126.696 95.5976 127.688 95.5976 128.792C95.5976 130.104 95.3816 131.184 94.9496 132.032C94.5176 132.88 93.9736 133.496 93.3176 133.88C92.6616 134.248 91.9896 134.432 91.3016 134.432C90.7096 134.432 90.0776 134.304 89.4056 134.048C88.7336 133.792 87.6936 133.328 86.2856 132.656L85.6616 132.344L87.0056 129.392C87.1176 129.44 87.2216 129.488 87.3176 129.536C88.6136 130.16 89.5176 130.576 90.0296 130.784C90.5416 130.976 91.0056 131.072 91.4216 131.072C91.8376 131.072 92.1576 130.896 92.3816 130.544C92.6216 130.176 92.7416 129.6 92.7416 128.816C92.7416 128.016 92.5736 127.4 92.2376 126.968C91.9016 126.536 91.4536 126.304 90.8936 126.272C90.4136 126.256 89.9896 126.416 89.6216 126.752C89.2696 127.088 89.0136 127.584 88.8536 128.24L88.1576 130.88C88.0136 131.472 87.7416 132.008 87.3416 132.488C86.9576 132.952 86.4936 133.32 85.9496 133.592C85.4216 133.864 84.8776 134 84.3176 134H83.6456V130.544ZM106.138 136.592C107.178 136.592 107.954 136.496 108.466 136.304C108.994 136.112 109.346 135.8 109.522 135.368C109.714 134.936 109.81 134.304 109.81 133.472V128.696C109.81 127.912 109.642 127.304 109.306 126.872C108.986 126.424 108.458 126.2 107.722 126.2C107.066 126.2 106.57 126.424 106.234 126.872C105.898 127.32 105.73 127.896 105.73 128.6C105.73 129.256 105.89 129.744 106.21 130.064C106.53 130.368 107.042 130.52 107.746 130.52H111.202V133.832H107.746C106.226 133.832 105.018 133.392 104.122 132.512C103.242 131.616 102.802 130.368 102.802 128.768C102.802 127.632 103.01 126.624 103.426 125.744C103.842 124.864 104.426 124.184 105.178 123.704C105.93 123.208 106.778 122.96 107.722 122.96C108.746 122.96 109.642 123.2 110.41 123.68C111.194 124.144 111.794 124.824 112.21 125.72C112.642 126.6 112.858 127.616 112.858 128.768V133.472C112.858 134.752 112.626 135.88 112.162 136.856C111.714 137.848 110.994 138.624 110.002 139.184C109.01 139.76 107.722 140.048 106.138 140.048H103.282V136.592H106.138ZM122.495 125.96V132.728C122.495 134.248 122.223 135.56 121.679 136.664C121.151 137.768 120.367 138.608 119.327 139.184C118.303 139.76 117.047 140.048 115.559 140.048H114.047V136.592H115.559C116.567 136.592 117.343 136.472 117.887 136.232C118.447 136.008 118.839 135.616 119.063 135.056C119.303 134.512 119.423 133.736 119.423 132.728V125.96H122.495ZM133.44 128.024C133.04 128.872 132.728 129.704 132.504 130.52C132.296 131.32 132.192 132.096 132.192 132.848C132.192 133.68 132.312 134.368 132.552 134.912C132.808 135.472 133.208 135.888 133.752 136.16C134.312 136.448 135.064 136.592 136.008 136.592H138.072C139.096 136.592 139.864 136.504 140.376 136.328C140.888 136.152 141.232 135.848 141.408 135.416C141.6 134.984 141.696 134.344 141.696 133.496V125.96H144.744V133.496C144.744 135.512 144.2 137.104 143.112 138.272C142.04 139.456 140.36 140.048 138.072 140.048H136.008C134.568 140.048 133.336 139.728 132.312 139.088C131.288 138.448 130.512 137.576 129.984 136.472C129.456 135.384 129.192 134.176 129.192 132.848C129.192 131.872 129.36 130.832 129.696 129.728C130.032 128.624 130.432 127.608 130.896 126.68L133.44 128.024ZM136.008 123.752C136.552 123.752 137.096 123.752 137.64 123.752C138.168 123.752 138.688 123.752 139.2 123.752C139.2 124.456 139.2 124.984 139.2 125.336C139.2 125.672 139.2 126.184 139.2 126.872C138.48 126.872 137.944 126.872 137.592 126.872C137.24 126.872 136.712 126.872 136.008 126.872C136.008 126.152 136.008 125.624 136.008 125.288C136.008 124.936 136.008 124.424 136.008 123.752ZM150.481 136.76C151.521 136.76 152.297 136.664 152.809 136.472C153.337 136.28 153.689 135.968 153.865 135.536C154.057 135.104 154.153 134.472 154.153 133.64V128.864C154.153 128.08 153.985 127.472 153.649 127.04C153.329 126.592 152.801 126.368 152.065 126.368C151.409 126.368 150.913 126.592 150.577 127.04C150.241 127.488 150.073 128.064 150.073 128.768C150.073 129.424 150.233 129.912 150.553 130.232C150.873 130.536 151.385 130.688 152.089 130.688H154.969L155.929 130.544H158.521L158.713 132.296L158.521 134H152.089C150.569 134 149.361 133.56 148.465 132.68C147.585 131.784 147.145 130.536 147.145 128.936C147.145 127.8 147.353 126.792 147.769 125.912C148.185 125.032 148.769 124.352 149.521 123.872C150.273 123.376 151.121 123.128 152.065 123.128C153.089 123.128 153.985 123.368 154.753 123.848C155.537 124.328 156.137 125.008 156.553 125.888C156.985 126.768 157.201 127.784 157.201 128.936V133.64C157.201 134.92 156.969 136.048 156.505 137.024C156.057 138.016 155.337 138.792 154.345 139.352C153.353 139.928 152.065 140.216 150.481 140.216H147.625V136.76H150.481ZM169.118 132.632C168.782 133.032 168.342 133.36 167.798 133.616C167.27 133.872 166.686 134 166.046 134C165.502 134 164.934 133.872 164.342 133.616C163.75 133.344 163.318 133.016 163.046 132.632C162.758 133.048 162.334 133.384 161.774 133.64C161.23 133.88 160.614 134 159.926 134H158.294V130.544H160.046C160.606 130.544 161.006 130.432 161.246 130.208C161.502 129.984 161.63 129.608 161.63 129.08V125.96H164.678V129.032C164.678 129.56 164.798 129.944 165.038 130.184C165.294 130.424 165.662 130.544 166.142 130.544C166.622 130.544 166.99 130.424 167.246 130.184C167.502 129.944 167.63 129.56 167.63 129.032L167.606 125.96H170.654V129.032C170.654 129.544 170.782 129.92 171.038 130.16C171.294 130.4 171.654 130.528 172.118 130.544C172.582 130.528 172.934 130.408 173.174 130.184C173.414 129.944 173.534 129.56 173.534 129.032V125.96H176.582V129.08C176.582 129.608 176.702 129.984 176.942 130.208C177.198 130.432 177.606 130.544 178.166 130.544H179.918L180.062 132.296L179.918 134H178.286C177.582 134 176.958 133.88 176.414 133.64C175.87 133.384 175.454 133.048 175.166 132.632C174.894 133.016 174.462 133.344 173.87 133.616C173.278 133.872 172.702 134 172.142 134C171.518 134 170.95 133.88 170.438 133.64C169.942 133.384 169.502 133.048 169.118 132.632ZM167.822 116.84C168.446 116.84 168.902 116.84 169.19 116.84C169.494 116.84 169.95 116.84 170.558 116.84C170.558 117.464 170.558 117.928 170.558 118.232C170.558 118.52 170.558 118.968 170.558 119.576C169.934 119.576 169.47 119.576 169.166 119.576C168.878 119.576 168.43 119.576 167.822 119.576C167.822 118.952 167.822 118.496 167.822 118.208C167.822 117.904 167.822 117.448 167.822 116.84ZM165.47 120.296C165.902 120.296 166.222 120.296 166.43 120.296C166.654 120.296 166.982 120.296 167.414 120.296C167.718 120.296 168.03 120.296 168.35 120.296C168.35 120.952 168.35 121.44 168.35 121.76C168.35 122.064 168.35 122.528 168.35 123.152C167.694 123.152 167.206 123.152 166.886 123.152C166.582 123.152 166.11 123.152 165.47 123.152C165.47 122.496 165.47 122.016 165.47 121.712C165.47 121.408 165.47 120.936 165.47 120.296ZM170.03 120.296C170.686 120.296 171.166 120.296 171.47 120.296C171.79 120.296 172.262 120.296 172.886 120.296C172.886 120.952 172.886 121.44 172.886 121.76C172.886 122.064 172.886 122.528 172.886 123.152C172.23 123.152 171.75 123.152 171.446 123.152C171.142 123.152 170.67 123.152 170.03 123.152C170.03 122.496 170.03 122.016 170.03 121.712C170.03 121.408 170.03 120.936 170.03 120.296ZM179.573 130.544H182.453C183.557 130.544 184.605 130.448 185.597 130.256C186.605 130.048 187.565 129.76 188.477 129.392C189.389 129.024 190.381 128.536 191.453 127.928L192.029 127.592L192.149 128.744L191.357 128.432C189.757 127.872 188.357 127.416 187.157 127.064C185.973 126.696 185.221 126.512 184.901 126.512C184.565 126.512 184.285 126.616 184.061 126.824C183.837 127.016 183.637 127.352 183.461 127.832L180.773 126.968C181.141 125.72 181.685 124.768 182.405 124.112C183.125 123.456 183.957 123.128 184.901 123.128C185.493 123.128 186.421 123.344 187.685 123.776C188.949 124.192 190.501 124.784 192.341 125.552C192.933 125.776 193.357 125.944 193.613 126.056L194.069 129.824L193.157 130.4C191.861 131.2 190.685 131.848 189.629 132.344C188.589 132.84 187.469 133.24 186.269 133.544C185.085 133.848 183.813 134 182.453 134H179.573V130.544ZM200.846 125.96V132.728C200.846 134.248 200.574 135.56 200.03 136.664C199.502 137.768 198.718 138.608 197.678 139.184C196.654 139.76 195.398 140.048 193.91 140.048H192.398V136.592H193.91C194.918 136.592 195.694 136.472 196.238 136.232C196.798 136.008 197.19 135.616 197.414 135.056C197.654 134.512 197.774 133.736 197.774 132.728V125.96H200.846ZM200.846 129.44C200.846 129.856 200.95 130.144 201.158 130.304C201.382 130.464 201.734 130.544 202.214 130.544H202.67L202.814 132.296L202.67 134H202.214C201.782 134 201.382 133.912 201.014 133.736C200.662 133.56 200.366 133.28 200.126 132.896C199.902 132.496 199.758 131.984 199.694 131.36L200.846 129.44ZM202.45 130.544H212.194C212.978 130.544 213.578 130.392 213.994 130.088C214.41 129.784 214.618 129.312 214.618 128.672C214.618 128.048 214.45 127.544 214.114 127.16C213.794 126.76 213.298 126.56 212.626 126.56C212.242 126.56 211.906 126.624 211.618 126.752C211.33 126.88 211.05 127.08 210.778 127.352C210.522 127.608 210.226 127.96 209.89 128.408L206.554 132.872L204.322 131.264L207.298 126.824C208.178 125.544 209.026 124.608 209.842 124.016C210.674 123.408 211.618 123.104 212.674 123.104C213.746 123.104 214.65 123.368 215.386 123.896C216.122 124.408 216.674 125.088 217.042 125.936C217.426 126.784 217.618 127.704 217.618 128.696C217.618 129.672 217.394 130.568 216.946 131.384C216.498 132.184 215.858 132.824 215.026 133.304C214.21 133.768 213.266 134 212.194 134H202.45V130.544ZM205.45 117.968H208.498V129.32L205.474 130.544L205.45 117.968ZM231.737 125.96V132.728C231.737 134.248 231.465 135.56 230.921 136.664C230.393 137.768 229.609 138.608 228.569 139.184C227.545 139.76 226.289 140.048 224.801 140.048H223.289V136.592H224.801C225.809 136.592 226.585 136.472 227.129 136.232C227.689 136.008 228.081 135.616 228.305 135.056C228.545 134.512 228.665 133.736 228.665 132.728V125.96H231.737ZM228.569 119.984C229.113 119.984 229.657 119.984 230.201 119.984C230.729 119.984 231.249 119.984 231.761 119.984C231.761 120.688 231.761 121.216 231.761 121.568C231.761 121.904 231.761 122.416 231.761 123.104C231.041 123.104 230.505 123.104 230.153 123.104C229.801 123.104 229.273 123.104 228.569 123.104C228.569 122.384 228.569 121.856 228.569 121.52C228.569 121.168 228.569 120.656 228.569 119.984ZM239.144 134C238.008 134 237.072 133.776 236.336 133.328C235.616 132.864 235.088 132.232 234.752 131.432C234.416 130.632 234.248 129.688 234.248 128.6V117.968H237.296V128.6C237.296 129.208 237.328 129.64 237.392 129.896C237.472 130.152 237.632 130.328 237.872 130.424C238.128 130.504 238.552 130.544 239.144 130.544H240.008L240.152 132.32L240.008 134H239.144ZM247.371 125.96V129.44C247.371 129.856 247.475 130.144 247.683 130.304C247.907 130.464 248.267 130.544 248.763 130.544H250.059L250.203 132.368L250.059 134H248.763C248.091 134 247.411 133.84 246.723 133.52C246.051 133.184 245.483 132.664 245.019 131.96C244.555 131.256 244.323 130.376 244.323 129.32V125.96H247.371ZM247.227 129.488C247.227 130.416 247.003 131.224 246.555 131.912C246.107 132.584 245.515 133.104 244.779 133.472C244.059 133.824 243.299 134 242.499 134H239.763V130.544H242.499C243.171 130.544 243.643 130.456 243.915 130.28C244.187 130.088 244.323 129.768 244.323 129.32L247.227 129.488ZM238.131 136.952C238.547 136.952 238.867 136.952 239.091 136.952C239.299 136.952 239.619 136.952 240.051 136.952C240.355 136.952 240.667 136.952 240.987 136.952C240.987 137.608 240.987 138.088 240.987 138.392C240.987 138.696 240.987 139.168 240.987 139.808C240.331 139.808 239.851 139.808 239.547 139.808C239.227 139.808 238.755 139.808 238.131 139.808C238.131 139.152 238.131 138.664 238.131 138.344C238.131 138.04 238.131 137.576 238.131 136.952ZM242.619 136.952C243.275 136.952 243.755 136.952 244.059 136.952C244.379 136.952 244.859 136.952 245.499 136.952C245.499 137.608 245.499 138.088 245.499 138.392C245.499 138.696 245.499 139.168 245.499 139.808C244.843 139.808 244.355 139.808 244.035 139.808C243.731 139.808 243.259 139.808 242.619 139.808C242.619 139.152 242.619 138.664 242.619 138.344C242.619 138.04 242.619 137.576 242.619 136.952ZM249.793 130.544H252.122C252.762 130.544 253.226 130.424 253.514 130.184C253.802 129.928 253.93 129.568 253.898 129.104C253.866 128.688 253.786 128.096 253.658 127.328C253.53 126.56 253.402 125.824 253.274 125.12L256.13 124.4C256.338 125.2 256.522 126.072 256.682 127.016C256.842 127.96 256.93 128.736 256.946 129.344C256.962 130.128 256.794 130.88 256.442 131.6C256.106 132.32 255.586 132.904 254.882 133.352C254.194 133.784 253.354 134 252.362 134H249.793V130.544ZM251.882 118.616C252.426 118.616 252.97 118.616 253.514 118.616C254.042 118.616 254.562 118.616 255.074 118.616C255.074 119.32 255.074 119.848 255.074 120.2C255.074 120.536 255.074 121.048 255.074 121.736C254.354 121.736 253.818 121.736 253.465 121.736C253.113 121.736 252.586 121.736 251.882 121.736C251.882 121.016 251.882 120.488 251.882 120.152C251.882 119.8 251.882 119.288 251.882 118.616ZM58.2761 159.96V166.728C58.2761 168.248 58.0041 169.56 57.4601 170.664C56.9321 171.768 56.1481 172.608 55.1081 173.184C54.0841 173.76 52.8281 174.048 51.3401 174.048H49.8281V170.592H51.3401C52.3481 170.592 53.1241 170.472 53.6681 170.232C54.2281 170.008 54.6201 169.616 54.8441 169.056C55.0841 168.512 55.2041 167.736 55.2041 166.728V159.96H58.2761ZM58.2761 163.44C58.2761 163.856 58.3801 164.144 58.5881 164.304C58.8121 164.464 59.1641 164.544 59.6441 164.544H60.1001L60.2441 166.296L60.1001 168H59.6441C59.2121 168 58.8121 167.912 58.4441 167.736C58.0921 167.56 57.7961 167.28 57.5561 166.896C57.3321 166.496 57.1881 165.984 57.1241 165.36L58.2761 163.44ZM67.488 159.96V163.44C67.488 163.856 67.592 164.144 67.8 164.304C68.024 164.464 68.384 164.544 68.88 164.544H70.176L70.32 166.368L70.176 168H68.88C68.208 168 67.528 167.84 66.84 167.52C66.168 167.184 65.6 166.664 65.136 165.96C64.672 165.256 64.44 164.376 64.44 163.32V159.96H67.488ZM67.344 163.488C67.344 164.416 67.12 165.224 66.672 165.912C66.224 166.584 65.632 167.104 64.896 167.472C64.176 167.824 63.416 168 62.616 168H59.88V164.544H62.616C63.288 164.544 63.76 164.456 64.032 164.28C64.304 164.088 64.44 163.768 64.44 163.32L67.344 163.488ZM60.384 170.952C60.8 170.952 61.112 170.952 61.32 170.952C61.544 170.952 61.872 170.952 62.304 170.952C62.608 170.952 62.92 170.952 63.24 170.952C63.24 171.608 63.24 172.088 63.24 172.392C63.24 172.696 63.24 173.168 63.24 173.808C62.584 173.808 62.096 173.808 61.776 173.808C61.472 173.808 61.008 173.808 60.384 173.808C60.384 173.152 60.384 172.664 60.384 172.344C60.384 172.04 60.384 171.576 60.384 170.952ZM64.872 170.952C65.528 170.952 66.008 170.952 66.312 170.952C66.632 170.952 67.112 170.952 67.752 170.952C67.752 171.608 67.752 172.088 67.752 172.392C67.752 172.696 67.752 173.168 67.752 173.808C67.096 173.808 66.608 173.808 66.288 173.808C65.984 173.808 65.512 173.808 64.872 173.808C64.872 173.152 64.872 172.664 64.872 172.344C64.872 172.04 64.872 171.576 64.872 170.952ZM77.5427 159.96V163.44C77.5427 163.856 77.6467 164.144 77.8547 164.304C78.0787 164.464 78.4387 164.544 78.9347 164.544H80.2307L80.3747 166.368L80.2307 168H78.9347C78.2627 168 77.5827 167.84 76.8947 167.52C76.2227 167.184 75.6547 166.664 75.1907 165.96C74.7267 165.256 74.4947 164.376 74.4947 163.32V159.96H77.5427ZM77.3987 163.488C77.3987 164.416 77.1747 165.224 76.7267 165.912C76.2787 166.584 75.6867 167.104 74.9507 167.472C74.2307 167.824 73.4707 168 72.6707 168H69.9347V164.544H72.6707C73.3427 164.544 73.8147 164.456 74.0867 164.28C74.3587 164.088 74.4947 163.768 74.4947 163.32L77.3987 163.488ZM70.4387 170.952C70.8547 170.952 71.1667 170.952 71.3747 170.952C71.5987 170.952 71.9267 170.952 72.3587 170.952C72.6627 170.952 72.9747 170.952 73.2947 170.952C73.2947 171.608 73.2947 172.088 73.2947 172.392C73.2947 172.696 73.2947 173.168 73.2947 173.808C72.6387 173.808 72.1507 173.808 71.8307 173.808C71.5267 173.808 71.0627 173.808 70.4387 173.808C70.4387 173.152 70.4387 172.664 70.4387 172.344C70.4387 172.04 70.4387 171.576 70.4387 170.952ZM74.9267 170.952C75.5827 170.952 76.0627 170.952 76.3667 170.952C76.6867 170.952 77.1667 170.952 77.8067 170.952C77.8067 171.608 77.8067 172.088 77.8067 172.392C77.8067 172.696 77.8067 173.168 77.8067 173.808C77.1507 173.808 76.6627 173.808 76.3427 173.808C76.0387 173.808 75.5667 173.808 74.9267 173.808C74.9267 173.152 74.9267 172.664 74.9267 172.344C74.9267 172.04 74.9267 171.576 74.9267 170.952ZM79.9894 164.544H81.0934C81.7974 164.544 82.4134 164.528 82.9414 164.496C83.4854 164.448 83.9734 164.376 84.4054 164.28L83.0614 162.384C82.3734 161.408 81.9174 160.784 81.6934 160.512L83.4454 157.224H89.9974C90.9894 157.224 91.7814 157.552 92.3734 158.208C92.9654 158.848 93.2454 159.632 93.2134 160.56C93.1974 161.488 92.8454 162.328 92.1574 163.08L91.6054 163.608C91.3334 163.88 91.0534 164.152 90.7654 164.424C91.0854 164.472 91.3574 164.504 91.5814 164.52C91.8054 164.536 92.1174 164.544 92.5174 164.544H94.5814L94.7734 166.296L94.5814 168H91.3174C90.5654 168 89.8934 167.896 89.3014 167.688C88.7254 167.48 88.1334 167.168 87.5254 166.752C86.8214 167.136 86.0374 167.44 85.1734 167.664C84.3254 167.888 83.3734 168 82.3174 168H79.9894V164.544ZM87.6694 163.848C88.0374 163.48 88.5254 162.952 89.1334 162.264C89.4214 161.96 89.7014 161.672 89.9734 161.4C90.1174 161.24 90.1894 161.08 90.1894 160.92C90.2054 160.744 90.1414 160.6 89.9974 160.488C89.8694 160.36 89.6854 160.296 89.4454 160.296H85.0774C85.4134 160.728 85.8454 161.32 86.3734 162.072C86.8214 162.696 87.2534 163.288 87.6694 163.848ZM85.8694 151.92C86.4134 151.92 86.9574 151.92 87.5014 151.92C88.0294 151.92 88.5494 151.92 89.0614 151.92C89.0614 152.624 89.0614 153.152 89.0614 153.504C89.0614 153.84 89.0614 154.352 89.0614 155.04C88.3414 155.04 87.8054 155.04 87.4534 155.04C87.1014 155.04 86.5734 155.04 85.8694 155.04C85.8694 154.32 85.8694 153.792 85.8694 153.456C85.8694 153.104 85.8694 152.592 85.8694 151.92ZM94.2857 164.544H96.9497C97.6697 164.544 98.1817 164.424 98.4857 164.184C98.7897 163.928 98.9257 163.568 98.8937 163.104C98.8617 162.656 98.7817 162.056 98.6537 161.304C98.5417 160.552 98.4137 159.824 98.2697 159.12L101.15 158.4C101.342 159.2 101.518 160.072 101.678 161.016C101.854 161.96 101.942 162.736 101.942 163.344C101.958 164.144 101.79 164.904 101.438 165.624C101.086 166.328 100.55 166.904 99.8297 167.352C99.1257 167.784 98.2457 168 97.1897 168H94.2857V164.544ZM94.9577 152.88C95.3737 152.88 95.6857 152.88 95.8937 152.88C96.1177 152.88 96.4457 152.88 96.8777 152.88C97.1817 152.88 97.4937 152.88 97.8137 152.88C97.8137 153.536 97.8137 154.016 97.8137 154.32C97.8137 154.624 97.8137 155.096 97.8137 155.736C97.1577 155.736 96.6697 155.736 96.3497 155.736C96.0457 155.736 95.5817 155.736 94.9577 155.736C94.9577 155.08 94.9577 154.6 94.9577 154.296C94.9577 153.976 94.9577 153.504 94.9577 152.88ZM99.4457 152.88C100.102 152.88 100.582 152.88 100.886 152.88C101.206 152.88 101.686 152.88 102.326 152.88C102.326 153.536 102.326 154.016 102.326 154.32C102.326 154.624 102.326 155.096 102.326 155.736C101.67 155.736 101.182 155.736 100.862 155.736C100.558 155.736 100.086 155.736 99.4457 155.736C99.4457 155.08 99.4457 154.6 99.4457 154.296C99.4457 153.976 99.4457 153.504 99.4457 152.88ZM113.167 162.024C112.767 162.872 112.455 163.704 112.231 164.52C112.023 165.32 111.919 166.096 111.919 166.848C111.919 167.68 112.039 168.368 112.279 168.912C112.535 169.472 112.935 169.888 113.479 170.16C114.039 170.448 114.791 170.592 115.735 170.592H117.799C118.823 170.592 119.591 170.504 120.103 170.328C120.615 170.152 120.959 169.848 121.135 169.416C121.327 168.984 121.423 168.344 121.423 167.496V159.96H124.471V167.496C124.471 169.512 123.927 171.104 122.839 172.272C121.767 173.456 120.087 174.048 117.799 174.048H115.735C114.295 174.048 113.063 173.728 112.039 173.088C111.015 172.448 110.239 171.576 109.711 170.472C109.183 169.384 108.919 168.176 108.919 166.848C108.919 165.872 109.087 164.832 109.423 163.728C109.759 162.624 110.159 161.608 110.623 160.68L113.167 162.024ZM115.735 157.752C116.279 157.752 116.823 157.752 117.367 157.752C117.895 157.752 118.415 157.752 118.927 157.752C118.927 158.456 118.927 158.984 118.927 159.336C118.927 159.672 118.927 160.184 118.927 160.872C118.207 160.872 117.671 160.872 117.319 160.872C116.967 160.872 116.439 160.872 115.735 160.872C115.735 160.152 115.735 159.624 115.735 159.288C115.735 158.936 115.735 158.424 115.735 157.752ZM130.208 170.76C131.248 170.76 132.024 170.664 132.536 170.472C133.064 170.28 133.416 169.968 133.592 169.536C133.784 169.104 133.88 168.472 133.88 167.64V162.864C133.88 162.08 133.712 161.472 133.376 161.04C133.056 160.592 132.528 160.368 131.792 160.368C131.136 160.368 130.64 160.592 130.304 161.04C129.968 161.488 129.8 162.064 129.8 162.768C129.8 163.424 129.96 163.912 130.28 164.232C130.6 164.536 131.112 164.688 131.816 164.688H134.696L135.656 164.544H138.248L138.44 166.296L138.248 168H131.816C130.296 168 129.088 167.56 128.192 166.68C127.312 165.784 126.872 164.536 126.872 162.936C126.872 161.8 127.08 160.792 127.496 159.912C127.912 159.032 128.496 158.352 129.248 157.872C130 157.376 130.848 157.128 131.792 157.128C132.816 157.128 133.712 157.368 134.48 157.848C135.264 158.328 135.864 159.008 136.28 159.888C136.712 160.768 136.928 161.784 136.928 162.936V167.64C136.928 168.92 136.696 170.048 136.232 171.024C135.784 172.016 135.064 172.792 134.072 173.352C133.08 173.928 131.792 174.216 130.208 174.216H127.352V170.76H130.208ZM137.997 164.544H140.661C141.381 164.544 141.893 164.424 142.197 164.184C142.501 163.928 142.637 163.568 142.605 163.104C142.573 162.656 142.493 162.056 142.365 161.304C142.253 160.552 142.125 159.824 141.981 159.12L144.861 158.4C145.053 159.2 145.229 160.072 145.389 161.016C145.565 161.96 145.653 162.736 145.653 163.344C145.669 164.144 145.501 164.904 145.149 165.624C144.797 166.328 144.261 166.904 143.541 167.352C142.837 167.784 141.957 168 140.901 168H137.997V164.544ZM138.669 152.88C139.085 152.88 139.397 152.88 139.605 152.88C139.829 152.88 140.157 152.88 140.589 152.88C140.893 152.88 141.205 152.88 141.525 152.88C141.525 153.536 141.525 154.016 141.525 154.32C141.525 154.624 141.525 155.096 141.525 155.736C140.869 155.736 140.381 155.736 140.061 155.736C139.757 155.736 139.293 155.736 138.669 155.736C138.669 155.08 138.669 154.6 138.669 154.296C138.669 153.976 138.669 153.504 138.669 152.88ZM143.157 152.88C143.813 152.88 144.293 152.88 144.597 152.88C144.917 152.88 145.397 152.88 146.037 152.88C146.037 153.536 146.037 154.016 146.037 154.32C146.037 154.624 146.037 155.096 146.037 155.736C145.381 155.736 144.893 155.736 144.573 155.736C144.269 155.736 143.797 155.736 143.157 155.736C143.157 155.08 143.157 154.6 143.157 154.296C143.157 153.976 143.157 153.504 143.157 152.88ZM155.235 156.912C155.731 157.664 156.163 158.336 156.531 158.928C156.915 159.504 157.331 160.152 157.779 160.872C158.355 161.8 158.659 162.736 158.691 163.68C158.723 164.624 158.507 165.432 158.043 166.104C157.563 166.792 156.979 167.28 156.291 167.568C155.603 167.856 154.771 168 153.795 168H152.523C151.515 168 150.627 167.84 149.859 167.52C149.091 167.184 148.491 166.824 148.059 166.44L149.499 163.68L149.571 163.752C149.939 163.944 150.355 164.128 150.819 164.304C151.299 164.464 151.875 164.544 152.547 164.544H153.723C154.251 164.544 154.651 164.504 154.923 164.424C155.211 164.344 155.419 164.216 155.547 164.04C155.659 163.864 155.691 163.672 155.643 163.464C155.595 163.24 155.459 162.952 155.235 162.6C153.907 160.584 152.683 158.76 151.563 157.128L154.131 155.208L155.235 156.912ZM164.45 170.76C165.49 170.76 166.266 170.664 166.778 170.472C167.306 170.28 167.658 169.968 167.834 169.536C168.026 169.104 168.122 168.472 168.122 167.64V162.864C168.122 162.08 167.954 161.472 167.618 161.04C167.298 160.592 166.77 160.368 166.034 160.368C165.378 160.368 164.882 160.592 164.546 161.04C164.21 161.488 164.042 162.064 164.042 162.768C164.042 163.424 164.202 163.912 164.522 164.232C164.842 164.536 165.354 164.688 166.058 164.688H168.938L169.898 164.544H172.49L172.682 166.296L172.49 168H166.058C164.538 168 163.33 167.56 162.434 166.68C161.554 165.784 161.114 164.536 161.114 162.936C161.114 161.8 161.322 160.792 161.738 159.912C162.154 159.032 162.738 158.352 163.49 157.872C164.242 157.376 165.09 157.128 166.034 157.128C167.058 157.128 167.954 157.368 168.722 157.848C169.506 158.328 170.106 159.008 170.522 159.888C170.954 160.768 171.17 161.784 171.17 162.936V167.64C171.17 168.92 170.938 170.048 170.474 171.024C170.026 172.016 169.306 172.792 168.314 173.352C167.322 173.928 166.034 174.216 164.45 174.216H161.594V170.76H164.45ZM172.167 164.544H175.047C176.151 164.544 177.199 164.448 178.191 164.256C179.199 164.048 180.159 163.76 181.071 163.392C181.983 163.024 182.975 162.536 184.047 161.928L184.623 161.592L184.743 162.744L183.951 162.432C182.351 161.872 180.951 161.416 179.751 161.064C178.567 160.696 177.815 160.512 177.495 160.512C177.159 160.512 176.879 160.616 176.655 160.824C176.431 161.016 176.231 161.352 176.055 161.832L173.367 160.968C173.735 159.72 174.279 158.768 174.999 158.112C175.719 157.456 176.551 157.128 177.495 157.128C178.087 157.128 179.015 157.344 180.279 157.776C181.543 158.192 183.095 158.784 184.935 159.552C185.527 159.776 185.951 159.944 186.207 160.056L186.663 163.824L185.751 164.4C184.455 165.2 183.279 165.848 182.223 166.344C181.183 166.84 180.063 167.24 178.863 167.544C177.679 167.848 176.407 168 175.047 168H172.167V164.544ZM176.127 151.92C176.671 151.92 177.215 151.92 177.759 151.92C178.287 151.92 178.807 151.92 179.319 151.92C179.319 152.624 179.319 153.152 179.319 153.504C179.319 153.84 179.319 154.352 179.319 155.04C178.599 155.04 178.063 155.04 177.711 155.04C177.359 155.04 176.831 155.04 176.127 155.04C176.127 154.32 176.127 153.792 176.127 153.456C176.127 153.104 176.127 152.592 176.127 151.92ZM204.158 162.456C204.334 163.24 204.686 163.784 205.214 164.088C205.742 164.392 206.422 164.544 207.254 164.544H207.734L207.926 166.224L207.734 168H207.254C205.878 168 204.614 167.624 203.462 166.872C202.326 166.104 201.566 164.904 201.182 163.272C200.478 160.344 199.774 157.416 199.07 154.488L202.046 153.72L204.158 162.456ZM203.318 159.744C203.43 160.784 203.43 161.672 203.318 162.408C203.222 163.128 202.982 163.816 202.598 164.472C202.134 165.288 201.55 165.92 200.846 166.368C200.142 166.8 199.382 167.024 198.566 167.04C197.75 167.056 196.942 166.832 196.142 166.368C195.326 165.92 194.694 165.288 194.246 164.472C193.814 163.64 193.598 162.76 193.598 161.832C193.614 160.904 193.846 160.072 194.294 159.336C194.582 158.824 194.91 158.392 195.278 158.04C195.662 157.688 196.278 157.296 197.126 156.864C197.99 156.416 199.254 155.856 200.918 155.184L202.07 158.4C200.774 158.864 199.782 159.256 199.094 159.576C198.406 159.896 197.91 160.168 197.606 160.392C197.302 160.616 197.078 160.856 196.934 161.112C196.678 161.496 196.598 161.912 196.694 162.36C196.806 162.808 197.062 163.16 197.462 163.416C197.878 163.688 198.334 163.792 198.83 163.728C199.326 163.648 199.758 163.4 200.126 162.984C200.382 162.696 200.542 162.344 200.606 161.928C200.67 161.512 200.638 160.976 200.51 160.32L203.318 159.744ZM207.441 164.544H208.425C209.113 164.544 209.761 164.528 210.369 164.496C210.001 164.112 209.713 163.688 209.505 163.224C209.313 162.744 209.217 162.248 209.217 161.736C209.217 160.872 209.433 160.048 209.865 159.264C210.313 158.48 210.921 157.848 211.689 157.368C212.473 156.888 213.337 156.648 214.281 156.648C215.177 156.648 216.009 156.888 216.777 157.368C217.545 157.848 218.145 158.48 218.577 159.264C219.025 160.048 219.249 160.864 219.249 161.712C219.249 162.224 219.145 162.72 218.937 163.2C218.729 163.68 218.449 164.112 218.097 164.496C218.737 164.528 219.377 164.544 220.017 164.544H220.977L221.169 166.272L220.977 168H219.369C218.633 168 217.809 167.92 216.897 167.76C215.985 167.584 215.089 167.336 214.209 167.016C213.345 167.336 212.457 167.584 211.545 167.76C210.633 167.92 209.825 168 209.121 168H207.441V164.544ZM214.209 164.16C214.785 164 215.273 163.72 215.673 163.32C216.089 162.92 216.297 162.456 216.297 161.928C216.297 161.352 216.097 160.872 215.697 160.488C215.313 160.088 214.841 159.888 214.281 159.888C213.689 159.888 213.193 160.088 212.793 160.488C212.409 160.872 212.217 161.352 212.217 161.928C212.217 162.456 212.401 162.92 212.769 163.32C213.153 163.704 213.633 163.984 214.209 164.16ZM210.609 152.208C211.025 152.208 211.337 152.208 211.545 152.208C211.769 152.208 212.097 152.208 212.529 152.208C212.833 152.208 213.145 152.208 213.465 152.208C213.465 152.864 213.465 153.344 213.465 153.648C213.465 153.952 213.465 154.424 213.465 155.064C212.809 155.064 212.321 155.064 212.001 155.064C211.697 155.064 211.233 155.064 210.609 155.064C210.609 154.408 210.609 153.928 210.609 153.624C210.609 153.304 210.609 152.832 210.609 152.208ZM215.097 152.208C215.753 152.208 216.233 152.208 216.537 152.208C216.857 152.208 217.337 152.208 217.977 152.208C217.977 152.864 217.977 153.344 217.977 153.648C217.977 153.952 217.977 154.424 217.977 155.064C217.321 155.064 216.833 155.064 216.513 155.064C216.209 155.064 215.737 155.064 215.097 155.064C215.097 154.408 215.097 153.928 215.097 153.624C215.097 153.304 215.097 152.832 215.097 152.208ZM228.34 159.96V163.44C228.34 163.856 228.444 164.144 228.652 164.304C228.876 164.464 229.236 164.544 229.732 164.544H231.028L231.172 166.368L231.028 168H229.732C229.06 168 228.38 167.84 227.692 167.52C227.02 167.184 226.452 166.664 225.988 165.96C225.524 165.256 225.292 164.376 225.292 163.32V159.96H228.34ZM228.196 163.488C228.196 164.416 227.972 165.224 227.524 165.912C227.076 166.584 226.484 167.104 225.748 167.472C225.028 167.824 224.268 168 223.468 168H220.732V164.544H223.468C224.14 164.544 224.612 164.456 224.884 164.28C225.156 164.088 225.292 163.768 225.292 163.32L228.196 163.488ZM219.1 170.952C219.516 170.952 219.836 170.952 220.06 170.952C220.268 170.952 220.588 170.952 221.02 170.952C221.324 170.952 221.636 170.952 221.956 170.952C221.956 171.608 221.956 172.088 221.956 172.392C221.956 172.696 221.956 173.168 221.956 173.808C221.3 173.808 220.82 173.808 220.516 173.808C220.196 173.808 219.724 173.808 219.1 173.808C219.1 173.152 219.1 172.664 219.1 172.344C219.1 172.04 219.1 171.576 219.1 170.952ZM223.588 170.952C224.244 170.952 224.724 170.952 225.028 170.952C225.348 170.952 225.828 170.952 226.468 170.952C226.468 171.608 226.468 172.088 226.468 172.392C226.468 172.696 226.468 173.168 226.468 173.808C225.812 173.808 225.324 173.808 225.004 173.808C224.7 173.808 224.228 173.808 223.588 173.808C223.588 173.152 223.588 172.664 223.588 172.344C223.588 172.04 223.588 171.576 223.588 170.952ZM230.786 164.544H232.01C232.522 164.544 232.89 164.456 233.114 164.28C233.354 164.104 233.474 163.784 233.474 163.32V151.968H236.522V163.32C236.522 164.376 236.29 165.256 235.826 165.96C235.362 166.664 234.786 167.184 234.098 167.52C233.426 167.84 232.754 168 232.082 168H230.786V164.544ZM237.914 168C237.258 168 236.61 167.84 235.97 167.52C235.346 167.184 234.818 166.672 234.386 165.984C233.97 165.28 233.762 164.392 233.762 163.32L236.522 163.44C236.522 163.856 236.626 164.144 236.834 164.304C237.058 164.464 237.418 164.544 237.914 164.544H238.61L238.778 166.392L238.61 168H237.914ZM238.38 164.544H240.132C240.692 164.544 241.092 164.432 241.332 164.208C241.588 163.968 241.716 163.592 241.716 163.08V159.96H244.764V163.152C244.764 163.616 244.892 163.968 245.148 164.208C245.42 164.432 245.788 164.544 246.252 164.544C246.748 164.544 247.132 164.416 247.404 164.16C247.676 163.904 247.812 163.528 247.812 163.032V159.96H250.86L250.836 163.152C250.836 163.616 250.964 163.968 251.22 164.208C251.476 164.432 251.828 164.544 252.276 164.544C252.772 164.544 253.164 164.416 253.452 164.16C253.74 163.888 253.86 163.52 253.812 163.056C253.716 162.384 253.612 161.76 253.5 161.184C253.404 160.592 253.276 159.904 253.116 159.12L255.996 158.4C256.188 159.2 256.364 160.072 256.524 161.016C256.7 161.96 256.796 162.736 256.812 163.344C256.828 164.144 256.676 164.896 256.356 165.6C256.052 166.304 255.556 166.88 254.868 167.328C254.18 167.776 253.316 168 252.276 168C251.652 168 251.092 167.88 250.596 167.64C250.1 167.4 249.668 167.064 249.3 166.632C248.932 167.048 248.476 167.384 247.932 167.64C247.404 167.88 246.812 168 246.156 168C245.612 168 245.036 167.864 244.428 167.592C243.836 167.32 243.404 167 243.132 166.632C242.844 167.048 242.42 167.384 241.86 167.64C241.316 167.88 240.7 168 240.012 168H238.38V164.544ZM220.538 189.256C220.714 189.64 221.202 190.688 222.002 192.4C222.37 193.184 222.73 193.976 223.082 194.776C223.498 195.72 223.738 196.64 223.802 197.536C223.882 198.416 223.666 199.216 223.154 199.936C222.61 200.704 221.962 201.24 221.21 201.544C220.458 201.848 219.634 202 218.738 202H217.514C216.538 202 215.674 201.832 214.922 201.496C214.17 201.16 213.57 200.8 213.122 200.416L214.562 197.656L214.634 197.704C215.002 197.928 215.418 198.128 215.882 198.304C216.362 198.464 216.906 198.544 217.514 198.544H218.738C219.266 198.544 219.674 198.512 219.962 198.448C220.266 198.368 220.482 198.232 220.61 198.04C220.754 197.848 220.802 197.64 220.754 197.416C220.706 197.176 220.554 196.776 220.298 196.216L218.618 192.568C218.314 191.912 218.026 191.288 217.754 190.696L220.538 189.256ZM223.082 194.8C223.53 195.792 223.906 196.552 224.21 197.08C224.514 197.592 224.826 197.968 225.146 198.208C225.466 198.432 225.85 198.544 226.298 198.544H226.706L226.874 200.32L226.706 202H226.298C225.402 202 224.61 201.776 223.922 201.328C223.234 200.88 222.602 200.248 222.026 199.432C221.466 198.6 220.898 197.536 220.322 196.24L223.082 194.8ZM226.426 198.544H229.09C229.81 198.544 230.322 198.424 230.626 198.184C230.93 197.928 231.066 197.568 231.034 197.104C231.002 196.656 230.922 196.056 230.794 195.304C230.682 194.552 230.554 193.824 230.41 193.12L233.29 192.4C233.482 193.2 233.658 194.072 233.818 195.016C233.994 195.96 234.082 196.736 234.082 197.344C234.098 198.144 233.93 198.904 233.578 199.624C233.226 200.328 232.69 200.904 231.97 201.352C231.266 201.784 230.386 202 229.33 202H226.426V198.544ZM225.082 204.952C225.498 204.952 225.818 204.952 226.042 204.952C226.25 204.952 226.57 204.952 227.002 204.952C227.306 204.952 227.618 204.952 227.938 204.952C227.938 205.608 227.938 206.088 227.938 206.392C227.938 206.696 227.938 207.168 227.938 207.808C227.282 207.808 226.802 207.808 226.498 207.808C226.178 207.808 225.706 207.808 225.082 207.808C225.082 207.152 225.082 206.664 225.082 206.344C225.082 206.04 225.082 205.576 225.082 204.952ZM229.57 204.952C230.226 204.952 230.706 204.952 231.01 204.952C231.33 204.952 231.81 204.952 232.45 204.952C232.45 205.608 232.45 206.088 232.45 206.392C232.45 206.696 232.45 207.168 232.45 207.808C231.794 207.808 231.306 207.808 230.986 207.808C230.682 207.808 230.21 207.808 229.57 207.808C229.57 207.152 229.57 206.664 229.57 206.344C229.57 206.04 229.57 205.576 229.57 204.952ZM243.905 189.256C244.081 189.64 244.569 190.688 245.369 192.4C245.737 193.184 246.097 193.976 246.449 194.776C246.865 195.72 247.105 196.64 247.169 197.536C247.249 198.416 247.033 199.216 246.521 199.936C245.977 200.704 245.329 201.24 244.577 201.544C243.825 201.848 243.001 202 242.105 202H240.881C239.905 202 239.041 201.832 238.289 201.496C237.537 201.16 236.937 200.8 236.489 200.416L237.929 197.656L238.001 197.704C238.369 197.928 238.785 198.128 239.249 198.304C239.729 198.464 240.273 198.544 240.881 198.544H242.105C242.633 198.544 243.041 198.512 243.329 198.448C243.633 198.368 243.849 198.232 243.977 198.04C244.121 197.848 244.169 197.64 244.121 197.416C244.073 197.176 243.921 196.776 243.665 196.216L241.985 192.568C241.681 191.912 241.393 191.288 241.121 190.696L243.905 189.256ZM246.449 194.8C246.897 195.792 247.273 196.552 247.577 197.08C247.881 197.592 248.193 197.968 248.513 198.208C248.833 198.432 249.217 198.544 249.665 198.544H250.073L250.241 200.32L250.073 202H249.665C248.769 202 247.977 201.776 247.289 201.328C246.601 200.88 245.969 200.248 245.393 199.432C244.833 198.6 244.265 197.536 243.689 196.24L246.449 194.8ZM249.793 198.544H252.122C252.762 198.544 253.226 198.424 253.514 198.184C253.802 197.928 253.93 197.568 253.898 197.104C253.866 196.688 253.786 196.096 253.658 195.328C253.53 194.56 253.402 193.824 253.274 193.12L256.13 192.4C256.338 193.2 256.522 194.072 256.682 195.016C256.842 195.96 256.93 196.736 256.946 197.344C256.962 198.128 256.794 198.88 256.442 199.6C256.106 200.32 255.586 200.904 254.882 201.352C254.194 201.784 253.354 202 252.362 202H249.793V198.544ZM249.337 204.904C249.882 204.904 250.426 204.904 250.97 204.904C251.498 204.904 252.018 204.904 252.53 204.904C252.53 205.624 252.53 206.152 252.53 206.488C252.53 206.84 252.53 207.352 252.53 208.024C251.81 208.024 251.274 208.024 250.922 208.024C250.57 208.024 250.042 208.024 249.337 208.024C249.337 207.32 249.337 206.792 249.337 206.44C249.337 206.104 249.337 205.592 249.337 204.904Z" fill="#434343"/>
<path d="M97.3947 292.759C96.7969 292.759 96.3008 292.297 96.2881 291.715C96.2627 289.845 95.9956 246.005 116.944 242.254C121.167 241.501 125.034 242.424 128.442 244.986C142.332 255.463 144.24 290.173 144.316 291.642C144.341 292.225 143.871 292.71 143.273 292.747C142.675 292.759 142.154 292.322 142.115 291.751C142.103 291.399 140.195 256.531 127.081 246.637C124.156 244.427 120.976 243.674 117.364 244.318C98.2214 247.742 98.5013 291.241 98.514 291.678C98.514 292.261 98.0306 292.734 97.4201 292.747L97.3947 292.759Z" fill="#DCACB1"/>
<path d="M190.999 423.999H59.9023L77.9636 284.734H172.938L190.999 423.999Z" fill="#DCACB1"/>
<path d="M177.097 423.999H46L64.0613 284.734H159.036L177.097 423.999Z" fill="#E5C1C4"/>
<path d="M111.632 385.403C111.632 385.403 77.4551 364.569 81.2836 346.079C84.2726 331.632 106.01 332.64 111.543 347.852C117.012 332.616 138.736 331.523 141.802 345.958C145.719 364.436 111.632 385.403 111.632 385.403Z" fill="#DCACB1"/>
<path d="M161.96 413.388C161.985 413.643 161.896 413.898 161.718 414.08C161.54 414.262 161.286 414.371 161.019 414.371H61.2619C60.9948 414.371 60.7404 414.262 60.5623 414.08C60.3843 413.898 60.2952 413.643 60.3207 413.388L62.5974 391.474L62.6992 390.539L68.3974 335.591L68.5118 334.438L73.6758 284.734H75.5583L70.5342 333.212L70.407 334.389L69.682 341.334L69.593 342.244L66.2097 374.781L66.0952 375.837L64.5307 390.964L64.429 391.899L62.2794 412.587H159.988L152.688 341.904L152.586 340.897L149.113 307.279L149.024 306.357L148.732 303.577L148.643 302.642L146.786 284.734H148.668L161.973 413.388H161.96Z" fill="#D6D6D6"/>
<path d="M95.1594 291.711C95.1594 294.066 93.1498 295.984 90.6822 295.984C88.2147 295.984 86.2051 294.066 86.2051 291.711C86.2051 289.356 88.2147 287.438 90.6822 287.438C93.1498 287.438 95.1594 289.356 95.1594 291.711Z" fill="#DCACB1"/>
<path d="M140.974 291.711C140.974 294.066 138.964 295.984 136.497 295.984C134.029 295.984 132.02 294.066 132.02 291.711C132.02 289.356 134.029 287.438 136.497 287.438C138.964 287.438 140.974 289.356 140.974 291.711Z" fill="#DCACB1"/>
<path d="M90.6818 292.759C90.084 292.759 89.5879 292.297 89.5752 291.715C89.5498 289.845 89.2827 246.005 110.231 242.254C114.454 241.501 118.321 242.424 121.729 244.986C135.619 255.463 137.527 290.173 137.603 291.642C137.628 292.225 137.158 292.71 136.56 292.747C135.975 292.759 135.441 292.322 135.403 291.751C135.39 291.399 133.482 256.531 120.368 246.637C117.443 244.427 114.263 243.674 110.651 244.318C91.5085 247.742 91.7884 291.241 91.8011 291.678C91.8011 292.261 91.3178 292.734 90.7072 292.747L90.6818 292.759Z" fill="#DCACB1"/>
<path d="M205.358 338.91C205.028 338.91 204.755 338.611 204.748 338.233C204.734 337.021 204.586 308.597 216.144 306.165C218.474 305.677 220.608 306.275 222.488 307.936C230.151 314.729 231.204 337.233 231.246 338.186C231.26 338.563 231.001 338.878 230.671 338.902C230.341 338.91 230.053 338.626 230.032 338.256C230.025 338.028 228.973 315.422 221.737 309.006C220.123 307.574 218.369 307.086 216.376 307.503C205.814 309.723 205.969 337.926 205.976 338.209C205.976 338.587 205.709 338.894 205.372 338.902L205.358 338.91Z" fill="#DCACB1"/>
<path d="M257 423.996H184.67L194.635 333.703H247.035L257 423.996Z" fill="#DCACB1"/>
<path d="M249.33 423.996H177L186.965 333.703H239.365L249.33 423.996Z" fill="#E5C1C4"/>
<path d="M213.21 398.974C213.21 398.974 194.354 385.467 196.466 373.478C198.115 364.111 210.108 364.765 213.161 374.628C216.178 364.749 228.164 364.041 229.856 373.4C232.017 385.38 213.21 398.974 213.21 398.974Z" fill="#DCACB1"/>
<path d="M240.979 417.117C240.993 417.282 240.943 417.447 240.845 417.565C240.747 417.683 240.607 417.754 240.459 417.754H185.42C185.273 417.754 185.132 417.683 185.034 417.565C184.936 417.447 184.887 417.282 184.901 417.117L186.157 402.909L186.213 402.303L189.357 366.677L189.42 365.929L192.269 333.703H193.308L190.536 365.134L190.466 365.897L190.066 370.4L190.017 370.99L188.15 392.085L188.087 392.77L187.224 402.578L187.167 403.184L185.982 416.597H239.891L235.863 370.77L235.807 370.116L233.891 348.32L233.842 347.722L233.68 345.92L233.631 345.313L232.606 333.703H233.645L240.986 417.117H240.979Z" fill="#D6D6D6"/>
<path d="M204.122 338.232C204.122 339.759 203.012 341.002 201.651 341.002C200.289 341.002 199.18 339.759 199.18 338.232C199.18 336.705 200.289 335.461 201.651 335.461C203.012 335.461 204.122 336.705 204.122 338.232Z" fill="#DCACB1"/>
<path d="M229.399 338.232C229.399 339.759 228.29 341.002 226.928 341.002C225.566 341.002 224.457 339.759 224.457 338.232C224.457 336.705 225.566 335.461 226.928 335.461C228.29 335.461 229.399 336.705 229.399 338.232Z" fill="#DCACB1"/>
<path d="M201.651 338.91C201.321 338.91 201.048 338.611 201.041 338.233C201.027 337.021 200.879 308.597 212.437 306.165C214.767 305.677 216.9 306.275 218.781 307.936C226.444 314.729 227.497 337.233 227.539 338.186C227.553 338.563 227.294 338.878 226.964 338.902C226.641 338.91 226.346 338.626 226.325 338.256C226.318 338.028 225.265 315.422 218.03 309.006C216.416 307.574 214.662 307.086 212.669 307.503C202.107 309.723 202.262 337.926 202.269 338.209C202.269 338.587 202.002 338.894 201.665 338.902L201.651 338.91Z" fill="#DCACB1"/>
</svg>
