<svg width="189" height="51" viewBox="0 0 189 51" fill="none" xmlns="http://www.w3.org/2000/svg">
<path d="M122.557 10.4528C124.283 11.758 125.51 12.9968 126.24 14.1693C126.993 15.3197 127.369 16.5696 127.369 17.919C127.369 19.4676 126.993 20.9498 126.24 22.3656C125.488 23.7814 124.371 24.8433 122.889 25.5512C122.026 25.9494 121.141 26.2149 120.234 26.3476C119.349 26.4803 118.354 26.5467 117.248 26.5467C117.137 26.5467 117.027 26.2923 116.916 25.7835C116.805 25.2526 116.75 24.5115 116.75 23.5602C116.75 22.0559 116.883 21.0161 117.148 20.441C117.392 19.8658 117.646 19.5782 117.911 19.5782C119.283 19.5782 120.367 19.4676 121.163 19.2464C121.982 19.0251 122.391 18.7486 122.391 18.4168C122.391 17.9965 121.971 17.3328 121.13 16.4258C120.29 15.5188 118.829 14.3573 116.75 12.9415L117.911 6.96851L134.005 0L135.001 5.30934L122.557 10.4528Z" fill="#A72F3B"/>
<path d="M117.241 26.5467C114.808 26.5467 112.894 25.8941 111.5 24.5889C110.107 23.2616 109.365 21.2042 109.277 18.4168L108.613 0.49775L114.254 0C114.232 2.12374 114.199 4.93326 114.155 8.42858C114.133 11.9018 114.111 14.0145 114.089 14.7666C114.089 16.47 114.376 17.6978 114.951 18.45C115.549 19.2021 116.533 19.5782 117.905 19.5782L117.241 26.5467Z" fill="black"/>
<path d="M104.781 10.6172C105.223 13.7143 105.444 16.2584 105.444 18.2494C105.444 20.8155 104.902 22.8397 103.818 24.3219C102.757 25.8041 101.307 26.5452 99.4713 26.5452C98.0334 26.5452 96.8277 26.324 95.8544 25.8815C94.881 25.417 94.2062 24.8307 93.8302 24.1228C93.432 24.875 92.8125 25.4723 91.9719 25.9147C91.1313 26.3351 90.2021 26.5452 89.1845 26.5452C87.9899 26.5452 86.9944 26.324 86.198 25.8815C85.4016 25.417 84.8817 24.7865 84.6384 23.9901C84.1074 24.8971 83.3221 25.5497 82.2824 25.9479C81.2647 26.3461 79.86 26.5452 78.0681 26.5452C77.9575 26.5452 77.8468 26.2908 77.7362 25.782C77.6256 25.2511 77.5703 24.51 77.5703 23.5587C77.5703 22.0544 77.703 21.0147 77.9685 20.4395C78.2119 19.8643 78.4663 19.5767 78.7317 19.5767C80.1918 19.5767 81.2758 19.3776 81.9837 18.9794C82.6916 18.5812 83.0456 17.8954 83.0456 16.922V14.5992L87.3594 14.2674V16.5902C87.3594 18.5812 88.1337 19.5767 89.6822 19.5767C90.4344 19.5767 91.0096 19.3444 91.4078 18.8799C91.806 18.4153 92.0051 17.7627 92.0051 16.922V14.931L96.3189 14.5992V16.5902C96.3189 17.5857 96.5955 18.3379 97.1485 18.8467C97.7237 19.3334 98.5533 19.5767 99.6373 19.5767C100.19 19.5767 100.467 19.3555 100.467 18.913C100.467 18.3821 100.378 17.5193 100.201 16.3247C100.024 15.108 99.7811 13.7032 99.4713 12.1104L104.781 10.6172Z" fill="black"/>
<path d="M78.0657 26.5445C76.5614 26.5445 75.2894 26.2901 74.2496 25.7813C73.232 25.2504 72.5573 24.5314 72.2255 23.6244C71.7166 24.5314 70.8428 25.2504 69.604 25.7813C68.3651 26.2901 66.8166 26.5445 64.9583 26.5445H64.2946C64.184 26.5445 64.0734 26.2901 63.9628 25.7813C63.8522 25.2504 63.7969 24.5093 63.7969 23.558C63.7969 22.0537 63.9296 21.0139 64.1951 20.4388C64.4384 19.8636 64.6928 19.576 64.9583 19.576H65.622C67.5687 19.576 68.9071 19.2663 69.6372 18.6469C70.3893 18.0274 70.7654 17.1204 70.7654 15.9258V13.603L75.0792 13.2711V15.7599C75.0792 17.1315 75.3668 18.1159 75.942 18.7132C76.5393 19.2884 77.4684 19.576 78.7294 19.576L78.0657 26.5445ZM70.4336 6.13672H70.7654H76.2406V10.6165H70.7654H70.4336H64.9583V6.13672H70.4336Z" fill="black"/>
<path d="M62.8752 26.5489C62.2116 29.27 60.6409 31.3163 58.1632 32.6878C56.6589 33.5064 54.8117 34.17 52.6216 34.6789C50.4315 35.2098 47.7989 35.5969 44.7239 35.8403C44.4363 34.4023 44.0492 32.356 43.5625 29.7013C48.8276 29.3474 52.6437 28.8496 55.0108 28.2081C57.4 27.5665 58.7162 26.7923 58.9596 25.8853C57.3225 26.1065 55.6191 26.2171 53.8494 26.2171C52.1238 26.2171 50.8075 25.7525 49.9005 24.8234C48.9935 23.8942 48.54 22.589 48.54 20.9077C48.54 19.1158 48.8497 17.4124 49.4691 15.7975C50.1107 14.1605 50.9845 12.8331 52.0906 11.8155C53.1967 10.7979 54.4467 10.2891 55.8404 10.2891C57.7429 10.2891 59.3467 11.0965 60.6519 12.7114C61.9572 14.3043 62.7867 16.5939 63.1407 19.5804H64.9658L64.3021 26.5489H62.8752ZM52.6879 18.419C52.6879 18.8614 52.8428 19.1933 53.1525 19.4145C53.4843 19.6357 54.0485 19.7463 54.8449 19.7463L58.4287 19.68C57.8314 17.2908 56.6921 16.0962 55.0108 16.0962C54.3913 16.0962 53.8494 16.3506 53.3848 16.8594C52.9202 17.3682 52.6879 17.8881 52.6879 18.419Z" fill="black"/>
<path d="M39.7402 9.78906C40.979 9.78906 41.9745 10.132 42.7267 10.8177C43.4788 11.4814 44.0319 12.5212 44.3858 13.937C44.5628 14.6228 44.7177 15.4745 44.8504 16.4921C44.9831 17.4876 45.0495 18.3504 45.0495 19.0804C45.0495 20.4299 44.7951 21.7019 44.2863 22.8965C43.7775 24.0911 43.1027 25.0534 42.2621 25.7835C41.4436 26.5135 40.6029 26.8785 39.7402 26.8785C38.3022 26.8785 36.8643 26.5467 35.4263 25.883C33.9884 25.2193 32.9929 24.4782 32.4398 23.6597C31.6434 24.7216 30.7917 25.4737 29.8847 25.9162C28.9777 26.3365 28.0043 26.5467 26.9645 26.5467C26.8539 26.5467 26.7433 26.2923 26.6327 25.7835C26.5221 25.2525 26.4668 24.5114 26.4668 23.5602C26.4668 22.0559 26.5995 21.0161 26.865 20.4409C27.1083 19.8658 27.3627 19.5782 27.6282 19.5782C28.314 19.5782 28.8671 19.5007 29.2874 19.3459C29.7298 19.1689 30.128 18.8702 30.482 18.4499C30.8581 18.0075 31.2895 17.3328 31.7761 16.4257C32.7495 14.656 33.6123 13.3065 34.3644 12.3774C35.1166 11.4261 35.9019 10.7624 36.7205 10.3864C37.5611 9.98816 38.5677 9.78906 39.7402 9.78906ZM35.3268 18.0185C35.5701 18.4389 36.2338 18.8592 37.3178 19.2795C38.4018 19.6998 39.3751 19.91 40.2379 19.91C40.5476 19.91 40.7025 19.7441 40.7025 19.4122C40.7025 19.0362 40.6472 18.5716 40.5366 18.0185C40.4481 17.4434 40.3485 16.9677 40.2379 16.5917C39.9946 15.8174 39.5521 15.4302 38.9106 15.4302C38.3354 15.4302 37.8598 15.4966 37.4837 15.6293C37.1076 15.7621 36.7536 16.0165 36.4218 16.3926C36.1121 16.7465 35.7471 17.2885 35.3268 18.0185Z" fill="black"/>
<path d="M25.6411 26.5471C25.6411 27.6975 25.3645 28.7925 24.8115 29.8323C24.2805 30.872 23.5063 31.8233 22.4886 32.686C21.3162 33.7037 19.6238 34.5332 17.4116 35.1748C15.1993 35.8385 12.9097 36.1703 10.5426 36.1703C7.04729 36.1703 4.42581 35.4513 2.67815 34.0134C0.952612 32.5975 0.0898438 30.4406 0.0898438 27.5426C0.0898438 24.8879 0.753512 21.4037 2.08085 17.0898L6.22877 18.2513C5.80845 19.8441 5.5098 21.1382 5.33282 22.1337C5.15584 23.1071 5.06735 23.9699 5.06735 24.722C5.06735 26.1821 5.58722 27.2882 6.62697 28.0404C7.68884 28.8146 9.38119 29.2018 11.704 29.2018C13.4074 29.2018 14.956 29.069 16.3497 28.8036C17.7434 28.5602 18.8385 28.2505 19.6349 27.8744C20.4313 27.4984 20.8295 27.1665 20.8295 26.8789C20.8295 26.702 20.6193 26.5471 20.199 26.4144C19.7787 26.2595 19.0044 26.0936 17.8761 25.9166C16.7479 25.7396 15.0777 25.5074 12.8654 25.2198L14.0269 19.4127C16.4603 19.5233 20.2764 19.5786 25.4751 19.5786H27.6321L26.9684 26.5471H25.6411Z" fill="black"/>
<path d="M123.394 35.2803C124.135 35.2803 124.704 35.6634 125.1 36.4298C125.504 37.1961 125.706 38.2109 125.706 39.4741C125.706 40.0215 125.592 40.5352 125.365 41.0153C125.138 41.4869 124.818 41.8111 124.405 41.988C124.093 42.1227 123.66 42.2195 123.104 42.2785C122.556 42.3374 121.959 42.3669 121.31 42.3669H120.388C120.354 42.3669 120.321 42.3164 120.287 42.2153C120.253 42.1143 120.236 41.9753 120.236 41.7985C120.236 41.5121 120.27 41.2932 120.337 41.1416C120.396 40.9816 120.464 40.9016 120.539 40.9016H121.613C123.028 40.9016 123.971 40.8005 124.443 40.5984C124.611 40.5226 124.695 40.3331 124.695 40.03C124.695 39.8026 124.691 39.6384 124.683 39.5373C124.077 39.6889 123.487 39.7647 122.914 39.7647C122.359 39.7647 121.937 39.6342 121.651 39.3731C121.373 39.1036 121.234 38.7415 121.234 38.2867C121.234 37.7814 121.327 37.2972 121.512 36.834C121.697 36.3708 121.954 35.9961 122.283 35.7097C122.611 35.4234 122.982 35.2803 123.394 35.2803ZM122.232 37.7814C122.232 37.992 122.308 38.1604 122.46 38.2867C122.62 38.4046 122.843 38.4636 123.129 38.4636C123.626 38.4636 124.102 38.4215 124.557 38.3372C124.447 37.7477 124.274 37.3014 124.039 36.9982C123.803 36.6951 123.521 36.5435 123.192 36.5435C122.923 36.5435 122.695 36.6656 122.51 36.9098C122.325 37.154 122.232 37.4446 122.232 37.7814ZM122.523 33.9665V32.5391H124.064V33.9665H122.523Z" fill="black"/>
<path d="M120.387 42.3693C119.798 42.3693 119.377 42.2682 119.124 42.0661C119.099 42.723 118.96 43.283 118.707 43.7462C118.463 44.2178 118.05 44.6262 117.469 44.9715C116.897 45.3252 116.109 45.62 115.107 45.8558L114.627 44.5673C115.536 44.3315 116.235 44.0915 116.724 43.8472C117.221 43.603 117.558 43.3588 117.734 43.1146C117.92 42.8703 118.012 42.6009 118.012 42.3061C118.012 41.8008 117.962 41.2282 117.861 40.5881C117.768 39.9397 117.642 39.3081 117.482 38.6933L118.707 38.2891C118.833 39.0723 118.956 39.6407 119.073 39.9944C119.2 40.3397 119.368 40.5797 119.579 40.7144C119.789 40.8408 120.109 40.9039 120.539 40.9039L120.387 42.3693Z" fill="black"/>
<path d="M112.608 37.5938C113.113 37.5938 113.543 37.779 113.896 38.1496C114.259 38.5201 114.528 39.0001 114.705 39.5896C114.89 40.1707 114.983 40.7855 114.983 41.4339C114.983 42.2256 114.852 42.874 114.591 43.3793C114.33 43.8846 113.901 44.3099 113.303 44.6552C112.317 45.2278 110.726 45.611 108.528 45.8047C108.444 45.4762 108.343 45.0131 108.225 44.4151C109.698 44.2804 110.852 44.1162 111.686 43.9225C112.52 43.7288 113.105 43.493 113.442 43.2151C113.787 42.9456 113.96 42.6172 113.96 42.2298V42.1287C113.421 42.2971 112.797 42.3814 112.09 42.3814C111.534 42.3814 111.113 42.2466 110.827 41.9771C110.541 41.6992 110.397 41.3203 110.397 40.8402C110.397 40.276 110.49 39.7454 110.675 39.2486C110.869 38.7517 111.134 38.3517 111.471 38.0485C111.808 37.7453 112.187 37.5938 112.608 37.5938ZM111.408 40.2718C111.408 40.4823 111.484 40.6507 111.635 40.7771C111.795 40.9034 112.027 40.9665 112.33 40.9665C112.827 40.9665 113.332 40.9202 113.846 40.8276C113.728 40.2381 113.547 39.7791 113.303 39.4507C113.067 39.1222 112.781 38.958 112.444 38.958C112.149 38.958 111.901 39.0928 111.698 39.3623C111.505 39.6233 111.408 39.9265 111.408 40.2718Z" fill="black"/>
<path d="M108.315 37.6312C108.382 38.027 108.441 38.4944 108.492 39.0334C108.542 39.5639 108.567 40.0187 108.567 40.3976C108.567 40.9956 108.42 41.4756 108.125 41.8377C107.839 42.1914 107.481 42.3683 107.052 42.3683C106.58 42.3683 106.167 42.284 105.814 42.1156C105.468 41.9472 105.224 41.7156 105.081 41.4208C104.896 41.724 104.656 41.9598 104.361 42.1282C104.066 42.2882 103.738 42.3683 103.376 42.3683C102.971 42.3683 102.618 42.2882 102.314 42.1282C102.011 41.9598 101.809 41.7198 101.708 41.4082C101.506 41.7282 101.199 41.9682 100.786 42.1282C100.373 42.2882 99.8259 42.3683 99.1438 42.3683C99.1101 42.3683 99.0764 42.3177 99.0427 42.2167C99.009 42.1156 98.9922 41.9767 98.9922 41.7998C98.9922 41.5135 99.0259 41.2945 99.0932 41.1429C99.1522 40.9829 99.2196 40.9029 99.2954 40.9029C100.003 40.9029 100.525 40.7976 100.862 40.5871C101.199 40.3682 101.367 40.0229 101.367 39.5513V38.8186L102.441 38.7302V39.665C102.441 40.0523 102.529 40.3555 102.706 40.5745C102.891 40.7934 103.161 40.9029 103.515 40.9029C103.835 40.9029 104.1 40.7892 104.31 40.5618C104.529 40.3345 104.639 40.0608 104.639 39.7408V38.9449L105.713 38.8565V39.665C105.713 40.0439 105.835 40.3471 106.079 40.5745C106.331 40.7934 106.677 40.9029 107.115 40.9029C107.207 40.9029 107.283 40.8777 107.342 40.8271C107.401 40.7682 107.431 40.6924 107.431 40.5997C107.431 40.3724 107.393 40.0018 107.317 39.4881C107.249 38.966 107.169 38.4649 107.077 37.9849L108.315 37.6312ZM104.146 35.1932V33.9805H105.561V35.1932H104.146ZM104.79 35.7742H104.917H106.572V36.9617H104.917H104.79H103.136V35.7742H104.79Z" fill="black"/>
<path d="M92.8673 34.0446L92.741 33.1982L96.6443 31.4297L96.8338 32.2255L92.8673 34.0446ZM99.1455 42.3692C98.6823 42.3692 98.2612 42.306 97.8823 42.1797C97.5117 42.0534 97.1159 41.8302 96.6948 41.5102C96.2738 41.1902 95.76 40.7228 95.1537 40.108C95.1032 40.4954 94.9811 40.8449 94.7874 41.1565C94.5937 41.4597 94.3621 41.6912 94.0926 41.8513C93.8147 42.0113 93.4652 42.1376 93.0441 42.2302C92.623 42.3229 92.1936 42.3692 91.7556 42.3692C91.7219 42.3692 91.6883 42.3229 91.6546 42.2302C91.6209 42.1292 91.6041 41.9818 91.6041 41.7881C91.6041 41.5102 91.6377 41.2954 91.7051 41.1439C91.7641 40.9838 91.8314 40.9038 91.9072 40.9038C92.5641 40.9038 93.0989 40.828 93.5115 40.6765C93.9242 40.5249 94.1305 40.327 94.1305 40.0827C94.1305 39.8891 94.0757 39.6869 93.9663 39.4764C93.8568 39.2659 93.6126 38.9753 93.2336 38.6048C92.8546 38.2258 92.282 37.7374 91.5156 37.1394L91.8188 35.5352L98.2739 32.5413L98.5518 33.7161L92.6399 36.432C93.5073 37.0805 94.3916 37.8047 95.2927 38.6048C96.0001 39.2364 96.5685 39.7122 96.998 40.0322C97.4275 40.3522 97.8149 40.5796 98.1602 40.7144C98.5054 40.8407 98.8844 40.9038 99.2971 40.9038L99.1455 42.3692Z" fill="black"/>
<path d="M91.7452 42.3669C90.9115 42.3669 90.2841 42.1522 89.863 41.7227C89.4504 41.2848 89.2314 40.611 89.2061 39.7015L89.0293 32.6401L90.3304 32.5391L90.3178 39.0068C90.3094 39.6299 90.4315 40.1015 90.6841 40.4216C90.9452 40.7416 91.3536 40.9016 91.9094 40.9016L91.7452 42.3669Z" fill="black"/>
<path d="M84.0915 36.0781C84.9 36.7518 85.5274 37.3203 85.9737 37.7835C86.42 38.2467 86.7401 38.6635 86.9337 39.0341C87.1274 39.4046 87.2243 39.7752 87.2243 40.1457C87.2243 40.6089 87.1022 41.0131 86.858 41.3584C86.6137 41.7037 86.2853 41.9689 85.8726 42.1542C85.4937 42.3395 85.0347 42.4321 84.4957 42.4321C83.881 42.4321 83.422 42.2847 83.1188 41.99C82.8156 41.6868 82.6641 41.291 82.6641 40.8026C82.6641 39.9941 83.102 38.992 83.9778 37.7961L83.3588 37.2656L84.0915 36.0781ZM83.7631 40.171C83.7631 40.3815 83.8431 40.5583 84.0031 40.7015C84.1631 40.8447 84.4031 40.9163 84.7231 40.9163C85.0937 40.9163 85.4263 40.8657 85.7211 40.7647C86.0242 40.6636 86.1758 40.5457 86.1758 40.411C86.1758 40.2004 86.0705 39.9562 85.86 39.6783C85.6579 39.392 85.2663 38.9793 84.6852 38.4403C84.382 38.8277 84.1505 39.173 83.9904 39.4762C83.8389 39.7709 83.7631 40.0025 83.7631 40.171Z" fill="black"/>
<path d="M79.7693 42.9466L79.5293 33.144L80.8304 33.043L80.7925 42.8582L79.7693 42.9466Z" fill="black"/>
<path d="M77.3542 37.9922C77.43 38.3964 77.5058 38.868 77.5816 39.407C77.6658 39.946 77.7079 40.346 77.7079 40.6071C77.7079 40.986 77.6111 41.3608 77.4174 41.7313C77.2237 42.0934 76.9626 42.3545 76.6342 42.5145C76.1626 42.7503 75.4131 42.8682 74.3857 42.8682C74.352 42.8682 74.3183 42.8177 74.2846 42.7166C74.2509 42.6156 74.2341 42.4766 74.2341 42.2998C74.2341 42.0134 74.2678 41.7945 74.3351 41.6429C74.3941 41.4829 74.4615 41.4029 74.5373 41.4029C75.8931 41.4029 76.571 41.2555 76.571 40.9608C76.571 40.7334 76.5289 40.3544 76.4447 39.8239C76.3605 39.2849 76.251 38.7922 76.1163 38.3459L77.3542 37.9922ZM75.2447 44.2704H75.371H77.0258V45.4578H75.371H75.2447H73.5898V44.2704H75.2447Z" fill="black"/>
<path d="M74.3788 42.8692C73.2924 42.8692 72.6145 42.5155 72.345 41.8081C72.1597 42.1534 71.8439 42.4186 71.3976 42.6039C70.9513 42.7808 70.3786 42.8692 69.6796 42.8692H69.427C69.3933 42.8692 69.3596 42.8186 69.3259 42.7176C69.2922 42.6165 69.2754 42.4776 69.2754 42.3007C69.2754 42.0144 69.3091 41.7954 69.3764 41.6439C69.4354 41.4838 69.5028 41.4038 69.5786 41.4038H69.8312C70.5807 41.4038 71.1239 41.2859 71.4608 41.0501C71.806 40.8143 71.9787 40.4522 71.9787 39.9638V38.9406L73.0524 38.8521V39.9511C73.0524 40.4312 73.1661 40.7933 73.3935 41.0375C73.6293 41.2817 74.0125 41.4038 74.543 41.4038L74.3788 42.8692ZM71.0818 37.4626V36.0352H72.6229V37.4626H71.0818Z" fill="black"/>
<path d="M69.4198 42.8714C68.3334 42.8714 67.6555 42.5177 67.386 41.8102C67.2008 42.1555 66.885 42.4208 66.4386 42.6061C65.9923 42.7829 65.4196 42.8714 64.7206 42.8714H64.468C64.4343 42.8714 64.4006 42.8208 64.3669 42.7198C64.3332 42.6187 64.3164 42.4798 64.3164 42.3029C64.3164 42.0166 64.3501 41.7976 64.4175 41.646C64.4764 41.486 64.5438 41.406 64.6196 41.406H64.8722C65.6217 41.406 66.1649 41.2881 66.5018 41.0523C66.8471 40.8165 67.0197 40.4544 67.0197 39.9659V38.9427L68.0934 38.8543V39.9533C68.0934 40.4333 68.2071 40.7955 68.4345 41.0397C68.6703 41.2839 69.0535 41.406 69.584 41.406L69.4198 42.8714ZM66.7039 36.2773H66.8302H68.485V37.4648H66.8302H66.7039H65.0491V36.2773H66.7039Z" fill="black"/>
<path d="M64.4673 42.8693C63.8441 42.8693 63.4062 42.7556 63.1536 42.5282C63.0525 43.0924 62.8335 43.6019 62.4967 44.0567C62.1598 44.5115 61.6966 44.8946 61.1071 45.2062C60.206 45.6778 59.0186 46.0442 57.5449 46.3052L57.3048 45.5347L57.1406 45.0167C59.0523 44.6715 60.3534 44.2672 61.044 43.804C61.743 43.3409 62.0925 42.8398 62.0925 42.3008C62.0925 42.0229 62.0419 41.5808 61.9409 40.9744C61.8398 40.3597 61.7135 39.766 61.5619 39.1933L62.7872 38.7891C62.9135 39.5723 63.0357 40.1407 63.1536 40.4944C63.2799 40.8397 63.4483 41.0797 63.6588 41.2144C63.8694 41.3408 64.1894 41.4039 64.6189 41.4039L64.4673 42.8693Z" fill="black"/>
<path d="M58.8858 37.9919C58.9616 38.3962 59.0374 38.8678 59.1132 39.4068C59.1974 39.9457 59.2395 40.3457 59.2395 40.6068C59.2395 40.9858 59.1426 41.3605 58.9489 41.7311C58.7552 42.0932 58.4942 42.3543 58.1657 42.5143C57.6941 42.7501 56.9446 42.868 55.9172 42.868C55.8835 42.868 55.8498 42.8174 55.8162 42.7164C55.7825 42.6153 55.7656 42.4764 55.7656 42.2995C55.7656 42.0132 55.7993 41.7942 55.8667 41.6427C55.9256 41.4826 55.993 41.4026 56.0688 41.4026C57.4247 41.4026 58.1026 41.2553 58.1026 40.9605C58.1026 40.7331 58.0605 40.3542 57.9763 39.8236C57.892 39.2846 57.7826 38.792 57.6478 38.3456L58.8858 37.9919ZM57.231 36.8298V35.4023H58.7721V36.8298H57.231Z" fill="black"/>
<path d="M55.912 42.8714C54.8256 42.8714 54.1477 42.5177 53.8782 41.8102C53.6929 42.1555 53.3771 42.4208 52.9308 42.6061C52.4845 42.7829 51.9118 42.8714 51.2128 42.8714H50.9602C50.9265 42.8714 50.8928 42.8208 50.8591 42.7198C50.8254 42.6187 50.8086 42.4798 50.8086 42.3029C50.8086 42.0166 50.8423 41.7976 50.9097 41.646C50.9686 41.486 51.036 41.406 51.1118 41.406H51.3644C52.1139 41.406 52.6571 41.2881 52.994 41.0523C53.3392 40.8165 53.5119 40.4544 53.5119 39.9659V38.9427L54.5856 38.8543V39.9533C54.5856 40.4333 54.6993 40.7955 54.9267 41.0397C55.1625 41.2839 55.5457 41.406 56.0762 41.406L55.912 42.8714ZM53.1961 36.2773H53.3224H54.9772V37.4648H53.3224H53.1961H51.5413V36.2773H53.1961Z" fill="black"/>
<path d="M50.3225 42.8703C50.3983 42.9967 50.4362 43.1398 50.4362 43.2998C50.4362 43.6367 50.3562 43.9651 50.1962 44.2852C50.0446 44.6052 49.8046 44.8957 49.4762 45.1568C48.9625 45.561 48.2593 45.8894 47.3666 46.1421C46.4823 46.4032 45.6065 46.5337 44.7391 46.5337C43.5517 46.5337 42.6632 46.2895 42.0737 45.801C41.4842 45.321 41.1895 44.6262 41.1895 43.7167C41.1895 42.8409 41.4084 41.6619 41.8463 40.1797L42.8443 40.4576C42.5243 41.6366 42.3642 42.5419 42.3642 43.1735C42.3642 43.763 42.5874 44.2262 43.0338 44.5631C43.4801 44.8999 44.1328 45.0684 44.9917 45.0684C45.716 45.0684 46.4108 44.9841 47.0761 44.8157C47.7414 44.6557 48.2803 44.462 48.693 44.2346C49.1056 44.0072 49.312 43.8136 49.312 43.6535C49.312 43.5188 49.2235 43.4009 49.0467 43.2998C48.8783 43.2072 48.5751 43.1104 48.1372 43.0093C47.7077 42.9082 47.0761 42.7861 46.2423 42.643L46.5329 41.3419C47.4003 41.384 48.554 41.405 49.9941 41.405H51.1057L50.9415 42.8703H50.3225Z" fill="black"/>
<g clip-path="url(#clip0_9303_118)">
<rect x="139" y="0.386719" width="50" height="50" rx="25" fill="black"/>
<path d="M162.113 18.1914C166.461 21.418 169.554 24.4805 171.393 27.3789C173.288 30.2227 174.236 33.3125 174.236 36.6484C174.236 40.4766 173.288 44.1406 171.393 47.6406C169.498 51.1406 166.683 53.7656 162.949 55.5156C160.775 56.5 158.546 57.1562 156.261 57.4844C154.031 57.8125 151.523 57.9766 148.736 57.9766C148.458 57.9766 148.179 57.3476 147.9 56.0898C147.622 54.7773 147.482 52.9453 147.482 50.5937C147.482 46.875 147.817 44.3047 148.486 42.8828C149.099 41.4609 149.74 40.75 150.409 40.75C153.864 40.75 156.595 40.4766 158.602 39.9297C160.664 39.3828 161.695 38.6992 161.695 37.8789C161.695 36.8398 160.636 35.1992 158.518 32.957C156.4 30.7148 152.722 27.8438 147.482 24.3437L150.409 9.57812L190.956 -7.64844L193.465 5.47656L162.113 18.1914Z" fill="#242424"/>
<path d="M163.209 21.6992C165.362 23.3015 166.893 24.8224 167.804 26.2617C168.742 27.6739 169.212 29.2083 169.212 30.865C169.212 32.766 168.742 34.5856 167.804 36.3237C166.866 38.0618 165.472 39.3653 163.623 40.2344C162.547 40.7232 161.443 41.0491 160.311 41.2121C159.208 41.375 157.966 41.4565 156.586 41.4565C156.448 41.4565 156.31 41.1442 156.172 40.5195C156.034 39.8677 155.965 38.958 155.965 37.7902C155.965 35.9435 156.13 34.667 156.462 33.9609C156.765 33.2548 157.083 32.9018 157.414 32.9018C159.125 32.9018 160.477 32.766 161.471 32.4944C162.492 32.2228 163.002 31.8834 163.002 31.476C163.002 30.96 162.478 30.1453 161.429 29.0318C160.38 27.9183 158.559 26.4926 155.965 24.7545L157.414 17.4219L177.491 8.86719L178.733 15.385L163.209 21.6992Z" fill="#A72F3B"/>
</g>
<defs>
<clipPath id="clip0_9303_118">
<rect x="139" y="0.386719" width="50" height="50" rx="25" fill="white"/>
</clipPath>
</defs>
</svg>
