<svg width="25" height="25" viewBox="0 0 25 25" fill="none" xmlns="http://www.w3.org/2000/svg">
<path d="M15.5 4.13673C16.4577 4.13673 16.8492 4.13906 17.1648 4.18905C18.9834 4.47708 20.4096 5.90334 20.6977 7.72188C20.7477 8.03755 20.75 8.42906 20.75 9.38673V15.3867C20.75 16.3444 20.7477 16.7359 20.6977 17.0516C20.4096 18.8701 18.9834 20.2964 17.1648 20.5844C16.8492 20.6344 16.4577 20.6367 15.5 20.6367H14.5C13.5424 20.6367 12.6607 20.3209 11.9504 19.7874C11.6192 19.5387 11.1491 19.6055 10.9003 19.9367C10.6516 20.2679 10.7184 20.738 11.0496 20.9868C12.0106 21.7087 13.2064 22.1367 14.5 22.1367L15.5809 22.1367C16.4329 22.1368 16.9518 22.1368 17.3995 22.0659C19.8599 21.6762 21.7895 19.7466 22.1792 17.2862C22.2501 16.8385 22.2501 16.3196 22.25 15.4675V9.30593C22.2501 8.4539 22.2501 7.93491 22.1792 7.48723C21.7895 5.02685 19.8599 3.0972 17.3995 2.70752C16.9518 2.63662 16.4329 2.63666 15.5809 2.63672L14.5 2.63673C13.2064 2.63673 12.0106 3.06479 11.0496 3.78669C10.7184 4.03545 10.6516 4.5056 10.9003 4.83679C11.1491 5.16799 11.6192 5.2348 11.9504 4.98604C12.6607 4.45255 13.5424 4.13673 14.5 4.13673H15.5Z" fill="#434343"/>
<path d="M13.966 7.79904C13.6414 7.5417 13.1697 7.59619 12.9123 7.92076C12.655 8.24533 12.7095 8.71706 13.034 8.97441L14.797 10.3723C15.501 10.9305 15.983 11.3141 16.3105 11.6367L3.5 11.6367C3.08579 11.6367 2.75 11.9725 2.75 12.3867C2.75 12.8009 3.08579 13.1367 3.5 13.1367L16.3105 13.1367C15.983 13.4594 15.501 13.843 14.797 14.4012L13.034 15.799C12.7095 16.0564 12.655 16.5281 12.9123 16.8527C13.1697 17.1773 13.6414 17.2318 13.966 16.9744L15.7648 15.5481C16.4373 15.015 16.9922 14.575 17.3875 14.1812C17.7932 13.7771 18.1294 13.3286 18.2208 12.7554C18.2402 12.6333 18.25 12.5101 18.25 12.3867C18.25 12.2633 18.2402 12.1402 18.2208 12.0181C18.1294 11.4449 17.7932 10.9964 17.3875 10.5922C16.9922 10.1984 16.4373 9.75848 15.7648 9.2253L13.966 7.79904Z" fill="#434343"/>
</svg>
