<svg width="214" height="25" viewBox="0 0 214 25" fill="none" xmlns="http://www.w3.org/2000/svg">
<path d="M4.77917 11.688V15.636C4.77917 16.476 4.63451 17.1853 4.34517 17.764C4.06517 18.3427 3.64984 18.7813 3.09917 19.08C2.54851 19.3787 1.87651 19.528 1.08317 19.528H0.201172V18.268H1.08317C1.70851 18.268 2.20784 18.1793 2.58117 18.002C2.96384 17.8247 3.24384 17.5447 3.42117 17.162C3.59851 16.7793 3.68717 16.2707 3.68717 15.636V11.688H4.77917ZM3.53317 8.314C3.77584 8.314 4.01384 8.314 4.24717 8.314C4.48051 8.314 4.70917 8.314 4.93317 8.314C4.93317 8.63133 4.93317 8.86933 4.93317 9.028C4.93317 9.17733 4.93317 9.406 4.93317 9.714C4.61584 9.714 4.37784 9.714 4.21917 9.714C4.06984 9.714 3.84117 9.714 3.53317 9.714C3.53317 9.39667 3.53317 9.16333 3.53317 9.014C3.53317 8.85533 3.53317 8.622 3.53317 8.314ZM9.13416 16C8.49949 16 8.00482 15.8833 7.65016 15.65C7.29549 15.4073 7.04349 15.0713 6.89416 14.642C6.75416 14.2127 6.68416 13.6807 6.68416 13.046L6.67016 6.914H7.76216L7.77616 13.046C7.77616 13.55 7.80416 13.914 7.86016 14.138C7.92549 14.362 8.04682 14.5207 8.22416 14.614C8.41082 14.698 8.71416 14.74 9.13416 14.74H9.34416L9.41416 15.384L9.34416 16H9.13416ZM13.1993 11.688V13.676C13.1993 14.0587 13.2926 14.334 13.4793 14.502C13.666 14.6607 13.96 14.74 14.3613 14.74H15.0753L15.1453 15.398L15.0753 16H14.3613C14.0346 16 13.694 15.916 13.3393 15.748C12.994 15.5707 12.7 15.2953 12.4573 14.922C12.224 14.5487 12.1073 14.0773 12.1073 13.508V11.688H13.1993ZM13.0033 13.746C13.0033 14.25 12.8866 14.67 12.6533 15.006C12.4293 15.342 12.14 15.594 11.7853 15.762C11.4306 15.9207 11.0666 16 10.6933 16H9.2093V14.74H10.6933C11.1693 14.74 11.524 14.642 11.7573 14.446C11.9906 14.25 12.1073 13.9373 12.1073 13.508L13.0033 13.746ZM8.7613 18.142C8.96663 18.142 9.1253 18.142 9.2373 18.142C9.33996 18.142 9.49863 18.142 9.7133 18.142C9.86263 18.142 10.012 18.142 10.1613 18.142C10.1613 18.4593 10.1613 18.6927 10.1613 18.842C10.1613 19.0007 10.1613 19.234 10.1613 19.542C9.84396 19.542 9.60596 19.542 9.4473 19.542C9.29796 19.542 9.0693 19.542 8.7613 19.542C8.7613 19.2247 8.7613 18.9867 8.7613 18.828C8.7613 18.6787 8.7613 18.45 8.7613 18.142ZM11.2673 18.142C11.5846 18.142 11.818 18.142 11.9673 18.142C12.126 18.142 12.3593 18.142 12.6673 18.142C12.6673 18.4593 12.6673 18.6927 12.6673 18.842C12.6673 19.0007 12.6673 19.234 12.6673 19.542C12.35 19.542 12.112 19.542 11.9533 19.542C11.804 19.542 11.5753 19.542 11.2673 19.542C11.2673 19.2247 11.2673 18.9867 11.2673 18.828C11.2673 18.6787 11.2673 18.45 11.2673 18.142ZM18.9278 11.688V13.676C18.9278 14.0587 19.0211 14.334 19.2078 14.502C19.3945 14.6607 19.6885 14.74 20.0898 14.74H20.8038L20.8738 15.398L20.8038 16H20.0898C19.7631 16 19.4225 15.916 19.0678 15.748C18.7225 15.5707 18.4285 15.2953 18.1858 14.922C17.9525 14.5487 17.8358 14.0773 17.8358 13.508V11.688H18.9278ZM18.7318 13.746C18.7318 14.25 18.6151 14.67 18.3818 15.006C18.1578 15.342 17.8685 15.594 17.5138 15.762C17.1591 15.9207 16.7951 16 16.4218 16H14.9378V14.74H16.4218C16.8978 14.74 17.2525 14.642 17.4858 14.446C17.7191 14.25 17.8358 13.9373 17.8358 13.508L18.7318 13.746ZM15.6378 8.706C15.8431 8.706 15.9971 8.706 16.0998 8.706C16.2118 8.706 16.3751 8.706 16.5898 8.706C16.7391 8.706 16.8885 8.706 17.0378 8.706C17.0378 9.02333 17.0378 9.26133 17.0378 9.42C17.0378 9.56933 17.0378 9.798 17.0378 10.106C16.7205 10.106 16.4825 10.106 16.3238 10.106C16.1745 10.106 15.9458 10.106 15.6378 10.106C15.6378 9.78867 15.6378 9.55533 15.6378 9.406C15.6378 9.24733 15.6378 9.014 15.6378 8.706ZM18.1438 8.706C18.4611 8.706 18.6945 8.706 18.8438 8.706C19.0025 8.706 19.2358 8.706 19.5438 8.706C19.5438 9.02333 19.5438 9.26133 19.5438 9.42C19.5438 9.56933 19.5438 9.798 19.5438 10.106C19.2265 10.106 18.9885 10.106 18.8298 10.106C18.6805 10.106 18.4518 10.106 18.1438 10.106C18.1438 9.78867 18.1438 9.55533 18.1438 9.406C18.1438 9.24733 18.1438 9.014 18.1438 8.706ZM20.6663 14.74H21.0583C21.2823 14.74 21.4597 14.6933 21.5903 14.6C21.7303 14.4973 21.8237 14.348 21.8703 14.152L22.3183 12.542C22.5237 11.814 22.841 11.2447 23.2703 10.834C23.6997 10.414 24.2177 10.204 24.8243 10.204C25.3097 10.204 25.739 10.3487 26.1123 10.638C26.4857 10.918 26.775 11.3007 26.9803 11.786C27.1857 12.262 27.2883 12.78 27.2883 13.34C27.2883 14.0307 27.1903 14.6 26.9943 15.048C26.7983 15.4867 26.5417 15.804 26.2243 16C25.9163 16.2053 25.5897 16.308 25.2443 16.308C24.8803 16.308 24.5117 16.2333 24.1383 16.084C23.765 15.9347 23.177 15.6547 22.3743 15.244L22.0103 15.062L22.5143 13.942C22.6263 13.998 22.7337 14.054 22.8363 14.11C23.5923 14.4927 24.115 14.7447 24.4043 14.866C24.703 14.9873 24.983 15.048 25.2443 15.048C25.5617 15.048 25.7997 14.9313 25.9583 14.698C26.117 14.4553 26.1963 14.0027 26.1963 13.34C26.1963 12.752 26.0797 12.2947 25.8463 11.968C25.613 11.632 25.2723 11.464 24.8243 11.464C24.4883 11.464 24.1943 11.5807 23.9423 11.814C23.6997 12.0473 23.513 12.402 23.3823 12.878L22.9343 14.488C22.8503 14.7867 22.7103 15.0527 22.5143 15.286C22.3277 15.51 22.1037 15.6873 21.8423 15.818C21.5903 15.9393 21.329 16 21.0583 16H20.6663V14.74ZM29.2424 6.914H30.3344L30.3484 16H29.2564L29.2424 6.914ZM36.4 6.648C36.652 7.22667 36.848 7.87533 36.988 8.594C37.128 9.30333 37.2167 10.008 37.254 10.708C37.3007 11.3987 37.324 12.1173 37.324 12.864V13.34L37.296 16H36.204L36.232 13.34V13.004C36.232 12.2573 36.2134 11.562 36.176 10.918C36.1387 10.2647 36.0594 9.60667 35.938 8.944C35.8167 8.28133 35.6347 7.684 35.392 7.152L36.4 6.648ZM39.736 6.648C39.988 7.22667 40.184 7.87533 40.324 8.594C40.464 9.30333 40.5526 10.008 40.59 10.708C40.6366 11.3987 40.66 12.1173 40.66 12.864V13.34L40.632 16H39.54L39.568 13.34V13.004C39.568 12.2573 39.5493 11.562 39.512 10.918C39.4746 10.2647 39.3953 9.60667 39.274 8.944C39.1526 8.28133 38.9706 7.684 38.728 7.152L39.736 6.648ZM43.726 6.634L43.978 8.356C44.062 8.89733 44.0013 9.378 43.796 9.798C43.5906 10.218 43.3013 10.54 42.928 10.764C42.564 10.988 42.1813 11.1 41.78 11.1C41.1826 11.1 40.702 10.932 40.338 10.596C39.974 10.2507 39.6846 9.7 39.47 8.944L40.324 8.608C40.4173 9.084 40.5853 9.41067 40.828 9.588C41.0706 9.756 41.388 9.84 41.78 9.84C42.0133 9.84 42.2186 9.79333 42.396 9.7C42.5826 9.60667 42.7226 9.462 42.816 9.266C42.9093 9.07 42.9326 8.82267 42.886 8.524L42.634 6.83L43.726 6.634ZM48.0911 15.398C47.6805 15.398 47.3025 15.3 46.9571 15.104C46.6118 14.8987 46.3365 14.6233 46.1311 14.278C45.9258 13.9327 45.8231 13.5593 45.8231 13.158C45.8231 12.766 45.9258 12.402 46.1311 12.066C46.3365 11.7207 46.6118 11.45 46.9571 11.254C47.3025 11.0487 47.6805 10.946 48.0911 10.946C48.5018 10.946 48.8798 11.0487 49.2251 11.254C49.5705 11.45 49.8458 11.7207 50.0511 12.066C50.2565 12.402 50.3591 12.766 50.3591 13.158C50.3591 13.5593 50.2565 13.9327 50.0511 14.278C49.8458 14.6233 49.5705 14.8987 49.2251 15.104C48.8798 15.3 48.5018 15.398 48.0911 15.398ZM48.0911 14.292C48.3991 14.292 48.6558 14.1893 48.8611 13.984C49.0665 13.7693 49.1691 13.4987 49.1691 13.172C49.1691 12.8453 49.0665 12.5793 48.8611 12.374C48.6558 12.1593 48.3991 12.052 48.0911 12.052C47.7831 12.052 47.5218 12.1593 47.3071 12.374C47.1018 12.5793 46.9991 12.8453 46.9991 13.172C46.9991 13.4987 47.1018 13.7693 47.3071 13.984C47.5218 14.1893 47.7831 14.292 48.0911 14.292ZM62.8524 19.542H59.2964C58.5684 19.542 57.929 19.3833 57.3784 19.066C56.837 18.758 56.417 18.3333 56.1184 17.792C55.829 17.26 55.6844 16.6627 55.6844 16C55.6844 15.356 55.843 14.768 56.1604 14.236C56.487 13.6947 56.9164 13.27 57.4484 12.962C57.9897 12.6447 58.573 12.486 59.1984 12.486L62.2504 12.514V13.774L59.3524 13.746C58.8857 13.746 58.461 13.844 58.0784 14.04C57.6957 14.2267 57.3924 14.4927 57.1684 14.838C56.9444 15.1833 56.8324 15.5707 56.8324 16C56.8324 16.448 56.9257 16.8447 57.1124 17.19C57.3084 17.5353 57.593 17.8013 57.9664 17.988C58.349 18.184 58.811 18.282 59.3524 18.282H62.8524V19.542ZM60.9484 13.55C60.1644 13.55 59.483 13.4333 58.9044 13.2C58.3257 12.9573 57.8777 12.626 57.5604 12.206C57.2524 11.7767 57.0984 11.296 57.0984 10.764C57.0984 10.2973 57.2104 9.87267 57.4344 9.49C57.6584 9.098 57.9617 8.79 58.3444 8.566C58.727 8.33267 59.1424 8.216 59.5904 8.216C60.0104 8.216 60.3604 8.27667 60.6404 8.398C60.9204 8.51933 61.2704 8.72467 61.6904 9.014L61.9844 9.21L61.4384 10.106C61.3637 10.0593 61.289 10.0173 61.2144 9.98C60.7944 9.756 60.4817 9.60667 60.2764 9.532C60.0804 9.448 59.8517 9.406 59.5904 9.406C59.2077 9.406 58.8764 9.53667 58.5964 9.798C58.3257 10.0593 58.1904 10.3813 58.1904 10.764C58.1904 11.1 58.2837 11.3987 58.4704 11.66C58.6664 11.9213 58.9697 12.1313 59.3804 12.29C59.791 12.4393 60.3137 12.514 60.9484 12.514V13.55ZM65.9366 18.282C66.59 18.282 67.094 18.2027 67.4486 18.044C67.8126 17.8947 68.0646 17.6613 68.2046 17.344C68.3446 17.0267 68.4146 16.6067 68.4146 16.084V13.34C68.4146 12.7707 68.284 12.3273 68.0226 12.01C67.7613 11.6833 67.374 11.52 66.8606 11.52C66.3846 11.52 66.0113 11.688 65.7406 12.024C65.4793 12.3507 65.3486 12.7893 65.3486 13.34C65.3486 13.8533 65.47 14.2173 65.7126 14.432C65.9553 14.6373 66.3426 14.74 66.8746 14.74H68.6666H68.9606H70.2906L70.3746 15.384L70.2906 16H66.8746C66.0906 16 65.456 15.7667 64.9706 15.3C64.4946 14.8333 64.2566 14.18 64.2566 13.34C64.2566 12.7707 64.364 12.2527 64.5786 11.786C64.8026 11.3193 65.1106 10.9507 65.5026 10.68C65.904 10.4093 66.3566 10.274 66.8606 10.274C67.3926 10.274 67.8593 10.4047 68.2606 10.666C68.662 10.9273 68.97 11.2913 69.1846 11.758C69.3993 12.2153 69.5066 12.7427 69.5066 13.34V16.084C69.5066 16.7747 69.3853 17.3767 69.1426 17.89C68.9093 18.4033 68.5266 18.8047 67.9946 19.094C67.472 19.3927 66.786 19.542 65.9366 19.542H64.4386V18.282H65.9366ZM70.1448 14.74H70.5368C70.7608 14.74 70.9382 14.6933 71.0688 14.6C71.2088 14.4973 71.3022 14.348 71.3488 14.152L71.7968 12.542C72.0022 11.814 72.3195 11.2447 72.7488 10.834C73.1782 10.414 73.6962 10.204 74.3028 10.204C74.7882 10.204 75.2175 10.3487 75.5908 10.638C75.9642 10.918 76.2535 11.3007 76.4588 11.786C76.6642 12.262 76.7668 12.78 76.7668 13.34C76.7668 14.0307 76.6688 14.6 76.4728 15.048C76.2768 15.4867 76.0202 15.804 75.7028 16C75.3948 16.2053 75.0682 16.308 74.7228 16.308C74.3588 16.308 73.9902 16.2333 73.6168 16.084C73.2435 15.9347 72.6555 15.6547 71.8528 15.244L71.4888 15.062L71.9928 13.942C72.1048 13.998 72.2122 14.054 72.3148 14.11C73.0708 14.4927 73.5935 14.7447 73.8828 14.866C74.1815 14.9873 74.4615 15.048 74.7228 15.048C75.0402 15.048 75.2782 14.9313 75.4368 14.698C75.5955 14.4553 75.6748 14.0027 75.6748 13.34C75.6748 12.752 75.5582 12.2947 75.3248 11.968C75.0915 11.632 74.7508 11.464 74.3028 11.464C73.9668 11.464 73.6728 11.5807 73.4208 11.814C73.1782 12.0473 72.9915 12.402 72.8608 12.878L72.4128 14.488C72.3288 14.7867 72.1888 15.0527 71.9928 15.286C71.8062 15.51 71.5822 15.6873 71.3208 15.818C71.0688 15.9393 70.8075 16 70.5368 16H70.1448V14.74ZM77.8588 15.37L77.7888 16H77.6488C77.1915 16 76.8182 15.888 76.5288 15.664C76.2488 15.44 76.0435 15.132 75.9128 14.74C75.7822 14.348 75.7168 13.8813 75.7168 13.34H76.7668C76.7668 13.732 76.7995 14.0307 76.8648 14.236C76.9302 14.432 77.0235 14.5673 77.1448 14.642C77.2662 14.7073 77.4342 14.74 77.6488 14.74H77.7888L77.8588 15.37ZM85.8827 16C85.304 16 84.8 15.832 84.3707 15.496C83.9507 15.1507 83.7407 14.642 83.7407 13.97L84.5807 13.564C84.5807 13.9653 84.6927 14.264 84.9167 14.46C85.1407 14.6467 85.4627 14.74 85.8827 14.74H87.2687L87.3667 15.37L87.2687 16H85.8827ZM77.5947 14.74H79.3307C79.956 14.74 80.5394 14.6653 81.0807 14.516C81.622 14.3573 82.1214 14.1613 82.5787 13.928C83.036 13.6853 83.61 13.354 84.3007 12.934L84.7627 12.654L84.7347 12.962L83.8667 12.598C83.0174 12.2433 82.336 11.9773 81.8227 11.8C81.3187 11.6133 80.964 11.52 80.7587 11.52C80.4787 11.52 80.2594 11.5853 80.1007 11.716C79.9514 11.8373 79.8067 12.0893 79.6667 12.472L78.6027 12.136C78.8267 11.4733 79.1254 10.9973 79.4987 10.708C79.872 10.4093 80.292 10.26 80.7587 10.26C81.076 10.26 81.5614 10.3813 82.2147 10.624C82.8774 10.8667 83.7967 11.2353 84.9727 11.73C85.206 11.8233 85.4347 11.9167 85.6587 12.01L85.9387 13.34L85.1967 13.802C84.3847 14.3153 83.7127 14.7167 83.1807 15.006C82.6487 15.2953 82.0607 15.5333 81.4167 15.72C80.782 15.9067 80.0867 16 79.3307 16H77.5947V14.74ZM81.5847 17.75C81.8274 17.75 82.0654 17.75 82.2987 17.75C82.532 17.75 82.7607 17.75 82.9847 17.75C82.9847 18.0673 82.9847 18.3007 82.9847 18.45C82.9847 18.6087 82.9847 18.842 82.9847 19.15C82.6674 19.15 82.4294 19.15 82.2707 19.15C82.1214 19.15 81.8927 19.15 81.5847 19.15C81.5847 18.8327 81.5847 18.5947 81.5847 18.436C81.5847 18.2867 81.5847 18.058 81.5847 17.75ZM87.1253 14.74H87.5173C87.7413 14.74 87.9186 14.6933 88.0493 14.6C88.1893 14.4973 88.2826 14.348 88.3293 14.152L88.7773 12.542C88.9826 11.814 89.3 11.2447 89.7293 10.834C90.1586 10.414 90.6766 10.204 91.2833 10.204C91.7686 10.204 92.198 10.3487 92.5713 10.638C92.9446 10.918 93.234 11.3007 93.4393 11.786C93.6446 12.262 93.7473 12.78 93.7473 13.34C93.7473 14.0307 93.6493 14.6 93.4533 15.048C93.2573 15.4867 93.0006 15.804 92.6833 16C92.3753 16.2053 92.0486 16.308 91.7033 16.308C91.3393 16.308 90.9706 16.2333 90.5973 16.084C90.224 15.9347 89.636 15.6547 88.8333 15.244L88.4693 15.062L88.9733 13.942C89.0853 13.998 89.1926 14.054 89.2953 14.11C90.0513 14.4927 90.574 14.7447 90.8633 14.866C91.162 14.9873 91.442 15.048 91.7033 15.048C92.0206 15.048 92.2586 14.9313 92.4173 14.698C92.576 14.4553 92.6553 14.0027 92.6553 13.34C92.6553 12.752 92.5386 12.2947 92.3053 11.968C92.072 11.632 91.7313 11.464 91.2833 11.464C90.9473 11.464 90.6533 11.5807 90.4013 11.814C90.1586 12.0473 89.972 12.402 89.8413 12.878L89.3933 14.488C89.3093 14.7867 89.1693 15.0527 88.9733 15.286C88.7866 15.51 88.5626 15.6873 88.3013 15.818C88.0493 15.9393 87.788 16 87.5173 16H87.1253V14.74ZM106.019 11.688V15.636C106.019 16.476 105.875 17.1853 105.585 17.764C105.305 18.3427 104.89 18.7813 104.339 19.08C103.789 19.3787 103.117 19.528 102.323 19.528H101.441V18.268H102.323C102.949 18.268 103.448 18.1793 103.821 18.002C104.204 17.8247 104.484 17.5447 104.661 17.162C104.839 16.7793 104.927 16.2707 104.927 15.636V11.688H106.019ZM104.773 8.314C105.016 8.314 105.254 8.314 105.487 8.314C105.721 8.314 105.949 8.314 106.173 8.314C106.173 8.63133 106.173 8.86933 106.173 9.028C106.173 9.17733 106.173 9.406 106.173 9.714C105.856 9.714 105.618 9.714 105.459 9.714C105.31 9.714 105.081 9.714 104.773 9.714C104.773 9.39667 104.773 9.16333 104.773 9.014C104.773 8.85533 104.773 8.622 104.773 8.314ZM107.91 6.914H109.002L109.016 16H107.924L107.91 6.914Z" fill="#898989"/>
<path d="M127.902 9.48535L128.02 9.7207L128.279 9.75879L132.534 10.376L129.455 13.3779L129.267 13.5615L129.312 13.8203L130.038 18.0576L126.232 16.0576L126 15.9355L125.768 16.0576L121.961 18.0576L122.688 13.8203L122.733 13.5615L122.545 13.3779L119.465 10.376L123.721 9.75879L123.98 9.7207L124.098 9.48535L126 5.62988L127.902 9.48535Z" stroke="#F4B740"/>
<path d="M147.902 9.48535L148.02 9.7207L148.279 9.75879L152.534 10.376L149.455 13.3779L149.267 13.5615L149.312 13.8203L150.038 18.0576L146.232 16.0576L146 15.9355L145.768 16.0576L141.961 18.0576L142.688 13.8203L142.733 13.5615L142.545 13.3779L139.465 10.376L143.721 9.75879L143.98 9.7207L144.098 9.48535L146 5.62988L147.902 9.48535Z" fill="#F4B740" stroke="#F4B740"/>
<path d="M167.902 9.48535L168.02 9.7207L168.279 9.75879L172.534 10.376L169.455 13.3779L169.267 13.5615L169.312 13.8203L170.038 18.0576L166.232 16.0576L166 15.9355L165.768 16.0576L161.961 18.0576L162.688 13.8203L162.733 13.5615L162.545 13.3779L159.465 10.376L163.721 9.75879L163.98 9.7207L164.098 9.48535L166 5.62988L167.902 9.48535Z" fill="#F4B740" stroke="#F4B740"/>
<path d="M187.902 9.48535L188.02 9.7207L188.279 9.75879L192.534 10.376L189.455 13.3779L189.267 13.5615L189.312 13.8203L190.038 18.0576L186.232 16.0576L186 15.9355L185.768 16.0576L181.961 18.0576L182.688 13.8203L182.733 13.5615L182.545 13.3779L179.465 10.376L183.721 9.75879L183.98 9.7207L184.098 9.48535L186 5.62988L187.902 9.48535Z" fill="#F4B740" stroke="#F4B740"/>
<path d="M207.902 9.48535L208.02 9.7207L208.279 9.75879L212.534 10.376L209.455 13.3779L209.267 13.5615L209.312 13.8203L210.038 18.0576L206.232 16.0576L206 15.9355L205.768 16.0576L201.961 18.0576L202.688 13.8203L202.733 13.5615L202.545 13.3779L199.465 10.376L203.721 9.75879L203.98 9.7207L204.098 9.48535L206 5.62988L207.902 9.48535Z" fill="#F4B740" stroke="#F4B740"/>
</svg>
