<svg width="25" height="25" viewBox="0 0 25 25" fill="none" xmlns="http://www.w3.org/2000/svg">
<path d="M12.0449 22.1367C6.39492 22.1367 1.79492 17.5367 1.79492 11.8867C1.79492 6.23672 6.39492 1.63672 12.0449 1.63672C17.6949 1.63672 22.2949 6.23672 22.2949 11.8867C22.2949 17.5367 17.6949 22.1367 12.0449 22.1367ZM12.0449 3.13672C7.21492 3.13672 3.29492 7.06672 3.29492 11.8867C3.29492 16.7067 7.21492 20.6367 12.0449 20.6367C16.8749 20.6367 20.7949 16.7067 20.7949 11.8867C20.7949 7.06672 16.8749 3.13672 12.0449 3.13672Z" fill="#A72F3B"/>
<path d="M22.5444 23.1381C22.3544 23.1381 22.1644 23.0681 22.0144 22.9181L20.0144 20.9181C19.7244 20.6281 19.7244 20.1481 20.0144 19.8581C20.3044 19.5681 20.7844 19.5681 21.0744 19.8581L23.0744 21.8581C23.3644 22.1481 23.3644 22.6281 23.0744 22.9181C22.9244 23.0681 22.7344 23.1381 22.5444 23.1381Z" fill="#A72F3B"/>
</svg>
