<svg width="25" height="25" viewBox="0 0 25 25" fill="none" xmlns="http://www.w3.org/2000/svg">
<path d="M18.69 18.1367H8.03999C7.04999 18.1367 6.09999 17.7167 5.42999 16.9867C4.75999 16.2567 4.42 15.2767 4.5 14.2867L5.33 4.32672C5.36 4.01672 5.24999 3.71672 5.03999 3.48672C4.82999 3.25672 4.54 3.13672 4.23 3.13672H2.5C2.09 3.13672 1.75 2.79672 1.75 2.38672C1.75 1.97672 2.09 1.63672 2.5 1.63672H4.24001C4.97001 1.63672 5.65999 1.94672 6.14999 2.47672C6.41999 2.77672 6.62 3.12672 6.73 3.51672H19.22C20.23 3.51672 21.16 3.91672 21.84 4.63672C22.51 5.36672 22.85 6.31672 22.77 7.32672L22.23 14.8267C22.12 16.6567 20.52 18.1367 18.69 18.1367ZM6.78 5.00671L6 14.4067C5.95 14.9867 6.14 15.5367 6.53 15.9667C6.92 16.3967 7.45999 16.6267 8.03999 16.6267H18.69C19.73 16.6267 20.67 15.7467 20.75 14.7067L21.29 7.20673C21.33 6.61673 21.14 6.05673 20.75 5.64673C20.36 5.22673 19.82 4.9967 19.23 4.9967H6.78V5.00671Z" fill="#434343"/>
<path d="M16.75 23.1367C15.65 23.1367 14.75 22.2367 14.75 21.1367C14.75 20.0367 15.65 19.1367 16.75 19.1367C17.85 19.1367 18.75 20.0367 18.75 21.1367C18.75 22.2367 17.85 23.1367 16.75 23.1367ZM16.75 20.6367C16.47 20.6367 16.25 20.8567 16.25 21.1367C16.25 21.4167 16.47 21.6367 16.75 21.6367C17.03 21.6367 17.25 21.4167 17.25 21.1367C17.25 20.8567 17.03 20.6367 16.75 20.6367Z" fill="#434343"/>
<path d="M8.75 23.1367C7.65 23.1367 6.75 22.2367 6.75 21.1367C6.75 20.0367 7.65 19.1367 8.75 19.1367C9.85 19.1367 10.75 20.0367 10.75 21.1367C10.75 22.2367 9.85 23.1367 8.75 23.1367ZM8.75 20.6367C8.47 20.6367 8.25 20.8567 8.25 21.1367C8.25 21.4167 8.47 21.6367 8.75 21.6367C9.03 21.6367 9.25 21.4167 9.25 21.1367C9.25 20.8567 9.03 20.6367 8.75 20.6367Z" fill="#434343"/>
<path d="M21.5 9.13672H9.5C9.09 9.13672 8.75 8.79672 8.75 8.38672C8.75 7.97672 9.09 7.63672 9.5 7.63672H21.5C21.91 7.63672 22.25 7.97672 22.25 8.38672C22.25 8.79672 21.91 9.13672 21.5 9.13672Z" fill="#434343"/>
</svg>
