<svg width="98" height="24" viewBox="0 0 98 24" fill="none" xmlns="http://www.w3.org/2000/svg">
<path d="M10.9023 8.98535L11.0195 9.2207L11.2793 9.25879L15.5342 9.87598L12.4551 12.8779L12.2666 13.0615L12.3115 13.3203L13.0381 17.5576L9.23242 15.5576L9 15.4355L8.76758 15.5576L4.96094 17.5576L5.68848 13.3203L5.7334 13.0615L5.54492 12.8779L2.46484 9.87598L6.7207 9.25879L6.98047 9.2207L7.09766 8.98535L9 5.12988L10.9023 8.98535Z" stroke="#F4B740"/>
<path d="M30.9023 8.98535L31.0195 9.2207L31.2793 9.25879L35.5342 9.87598L32.4551 12.8779L32.2666 13.0615L32.3115 13.3203L33.0381 17.5576L29.2324 15.5576L29 15.4355L28.7676 15.5576L24.9609 17.5576L25.6885 13.3203L25.7334 13.0615L25.5449 12.8779L22.4648 9.87598L26.7207 9.25879L26.9805 9.2207L27.0977 8.98535L29 5.12988L30.9023 8.98535Z" stroke="#F4B740"/>
<path d="M50.9023 8.98535L51.0195 9.2207L51.2793 9.25879L55.5342 9.87598L52.4551 12.8779L52.2666 13.0615L52.3115 13.3203L53.0381 17.5576L49.2324 15.5576L49 15.4355L48.7676 15.5576L44.9609 17.5576L45.6885 13.3203L45.7334 13.0615L45.5449 12.8779L42.4648 9.87598L46.7207 9.25879L46.9805 9.2207L47.0977 8.98535L49 5.12988L50.9023 8.98535Z" fill="#F4B740" stroke="#F4B740"/>
<path d="M70.9023 8.98535L71.0195 9.2207L71.2793 9.25879L75.5342 9.87598L72.4551 12.8779L72.2666 13.0615L72.3115 13.3203L73.0381 17.5576L69.2324 15.5576L69 15.4355L68.7676 15.5576L64.9609 17.5576L65.6885 13.3203L65.7334 13.0615L65.5449 12.8779L62.4648 9.87598L66.7207 9.25879L66.9805 9.2207L67.0977 8.98535L69 5.12988L70.9023 8.98535Z" fill="#F4B740" stroke="#F4B740"/>
<path d="M90.9023 8.98535L91.0195 9.2207L91.2793 9.25879L95.5342 9.87598L92.4551 12.8779L92.2666 13.0615L92.3115 13.3203L93.0381 17.5576L89.2324 15.5576L89 15.4355L88.7676 15.5576L84.9609 17.5576L85.6885 13.3203L85.7334 13.0615L85.5449 12.8779L82.4648 9.87598L86.7207 9.25879L86.9805 9.2207L87.0977 8.98535L89 5.12988L90.9023 8.98535Z" fill="#F4B740" stroke="#F4B740"/>
</svg>
