<svg width="69" height="50" viewBox="0 0 69 50" fill="none" xmlns="http://www.w3.org/2000/svg">
<path d="M34.5009 14.1714C32.3709 14.1714 30.6309 12.4414 30.6309 10.3014C30.6309 8.16141 32.3709 6.44141 34.5009 6.44141C36.6309 6.44141 38.3709 8.17141 38.3709 10.3114C38.3709 12.4514 36.6309 14.1714 34.5009 14.1714ZM34.5009 7.94141C33.2009 7.94141 32.1309 9.00141 32.1309 10.3114C32.1309 11.6214 33.1909 12.6814 34.5009 12.6814C35.8109 12.6814 36.8709 11.6214 36.8709 10.3114C36.8709 9.00141 35.8009 7.94141 34.5009 7.94141Z" fill="#E5C1C4"/>
<path d="M34.4997 22.76C33.0197 22.76 31.5297 22.2 30.3697 21.09C27.4197 18.25 24.1597 13.72 25.3897 8.33C26.4997 3.44 30.7697 1.25 34.4997 1.25C34.4997 1.25 34.4997 1.25 34.5097 1.25C38.2397 1.25 42.5097 3.44 43.6197 8.34C44.8397 13.73 41.5797 18.25 38.6297 21.09C37.4697 22.2 35.9797 22.76 34.4997 22.76ZM34.4997 2.75C31.5897 2.75 27.8497 4.3 26.8597 8.66C25.7797 13.37 28.7397 17.43 31.4197 20C33.1497 21.67 35.8597 21.67 37.5897 20C40.2597 17.43 43.2197 13.37 42.1597 8.66C41.1597 4.3 37.4097 2.75 34.4997 2.75Z" fill="#E5C1C4"/>
<path d="M2.44238 38.976C2.22638 39.416 2.05838 39.844 1.93838 40.26C1.82638 40.668 1.77038 41.088 1.77038 41.52C1.77038 41.992 1.84638 42.408 1.99837 42.768C2.15038 43.136 2.38638 43.424 2.70638 43.632C3.02638 43.84 3.43438 43.944 3.93038 43.944H5.21438C5.75838 43.944 6.18238 43.88 6.48638 43.752C6.79038 43.632 7.00638 43.436 7.13438 43.164C7.26238 42.9 7.32638 42.536 7.32638 42.072V38.304H8.26238V42.072C8.26238 43 8.01838 43.724 7.53038 44.244C7.04238 44.764 6.27038 45.024 5.21438 45.024H3.93038C3.26638 45.024 2.70238 44.86 2.23838 44.532C1.77438 44.204 1.42238 43.772 1.18238 43.236C0.950375 42.7 0.834375 42.128 0.834375 41.52C0.834375 40.984 0.910375 40.464 1.06238 39.96C1.21438 39.456 1.41038 38.984 1.65038 38.544L2.44238 38.976ZM8.26238 39.576C8.26238 40.088 8.35838 40.44 8.55038 40.632C8.75038 40.824 9.03038 40.92 9.39038 40.92C9.78238 40.92 10.0584 40.836 10.2184 40.668C10.3864 40.5 10.4704 40.232 10.4704 39.864V38.304H11.4064V40.008C11.4064 40.328 11.4824 40.56 11.6344 40.704C11.7944 40.84 12.0384 40.912 12.3664 40.92C12.7184 40.912 12.9744 40.828 13.1344 40.668C13.2944 40.5 13.3664 40.28 13.3504 40.008C13.3344 39.776 13.2864 39.448 13.2064 39.024C13.1344 38.6 13.0584 38.204 12.9784 37.836L13.8904 37.596C13.9784 37.964 14.0624 38.384 14.1424 38.856C14.2224 39.32 14.2704 39.696 14.2864 39.984C14.3024 40.312 14.2384 40.632 14.0944 40.944C13.9504 41.256 13.7304 41.512 13.4344 41.712C13.1384 41.904 12.7824 42 12.3664 42C12.1104 42 11.8464 41.94 11.5744 41.82C11.3104 41.692 11.0824 41.496 10.8904 41.232C10.6984 41.488 10.4784 41.68 10.2304 41.808C9.98238 41.936 9.70238 42 9.39038 42C9.03038 42 8.71038 41.912 8.43038 41.736C8.15838 41.56 7.94238 41.292 7.78238 40.932C7.63038 40.564 7.55438 40.112 7.55438 39.576H8.26238ZM17.6115 38.304V41.688C17.6115 42.408 17.4875 43.016 17.2395 43.512C16.9995 44.008 16.6435 44.384 16.1715 44.64C15.6995 44.896 15.1235 45.024 14.4435 45.024H13.6875V43.944H14.4435C14.9795 43.944 15.4075 43.868 15.7275 43.716C16.0555 43.564 16.2955 43.324 16.4475 42.996C16.5995 42.668 16.6755 42.232 16.6755 41.688V38.304H17.6115ZM21.9443 36.96C22.2323 37.408 22.4443 37.744 22.5803 37.968C22.7243 38.184 22.9363 38.508 23.2163 38.94C23.4403 39.284 23.5643 39.668 23.5883 40.092C23.6203 40.516 23.5403 40.864 23.3483 41.136C23.1163 41.464 22.8363 41.692 22.5083 41.82C22.1803 41.94 21.8203 42 21.4283 42H20.7803C20.3483 42 19.9563 41.94 19.6043 41.82C19.2603 41.692 18.9763 41.548 18.7523 41.388L19.2443 40.476L19.3043 40.512C19.4883 40.624 19.6923 40.72 19.9163 40.8C20.1403 40.88 20.4283 40.92 20.7803 40.92H21.4283C21.7163 40.92 21.9523 40.892 22.1363 40.836C22.3283 40.772 22.4763 40.664 22.5803 40.512C22.6683 40.392 22.7003 40.256 22.6763 40.104C22.6523 39.944 22.5683 39.748 22.4243 39.516C21.6723 38.332 21.0643 37.396 20.6003 36.708L21.3923 36.108L21.9443 36.96ZM25.4232 35.052H26.4552V42H25.4232V35.052ZM23.4192 34.836C23.5152 34.38 23.7272 34.012 24.0552 33.732C24.3832 33.452 24.8232 33.312 25.3752 33.312H27.7152V34.212H25.3752C25.0472 34.212 24.7912 34.292 24.6072 34.452C24.4232 34.604 24.2872 34.816 24.1992 35.088L23.4192 34.836ZM33.3591 42C32.8951 42 32.4871 41.896 32.1351 41.688C31.7831 41.472 31.5191 41.184 31.3431 40.824C31.1671 40.464 31.1031 40.076 31.1511 39.66C31.1911 39.292 31.3231 38.644 31.5471 37.716L32.4231 37.944L32.3751 38.16C32.1831 38.976 32.0751 39.512 32.0511 39.768C32.0111 40.12 32.1031 40.4 32.3271 40.608C32.5511 40.816 32.8951 40.92 33.3591 40.92H38.5431C38.9351 40.92 39.2271 40.812 39.4191 40.596C39.6191 40.38 39.7191 40.12 39.7191 39.816C39.7191 39.464 39.5951 38.732 39.3471 37.62L40.2591 37.38C40.5231 38.524 40.6551 39.336 40.6551 39.816C40.6551 40.152 40.5711 40.492 40.4031 40.836C40.2351 41.172 39.9911 41.452 39.6711 41.676C39.3511 41.892 38.9751 42 38.5431 42H33.3591ZM34.2591 36.828C34.4351 36.828 34.5671 36.828 34.6551 36.828C34.7511 36.828 34.8911 36.828 35.0751 36.828C35.2031 36.828 35.3311 36.828 35.4591 36.828C35.4591 37.1 35.4591 37.304 35.4591 37.44C35.4591 37.568 35.4591 37.764 35.4591 38.028C35.1871 38.028 34.9831 38.028 34.8471 38.028C34.7191 38.028 34.5231 38.028 34.2591 38.028C34.2591 37.756 34.2591 37.556 34.2591 37.428C34.2591 37.292 34.2591 37.092 34.2591 36.828ZM36.4071 36.828C36.6791 36.828 36.8791 36.828 37.0071 36.828C37.1431 36.828 37.3431 36.828 37.6071 36.828C37.6071 37.1 37.6071 37.304 37.6071 37.44C37.6071 37.568 37.6071 37.764 37.6071 38.028C37.3351 38.028 37.1311 38.028 36.9951 38.028C36.8671 38.028 36.6711 38.028 36.4071 38.028C36.4071 37.756 36.4071 37.556 36.4071 37.428C36.4071 37.292 36.4071 37.092 36.4071 36.828ZM44.442 42C43.898 42 43.474 41.9 43.17 41.7C42.866 41.492 42.65 41.204 42.522 40.836C42.402 40.468 42.342 40.012 42.342 39.468L42.33 34.212H43.266L43.278 39.468C43.278 39.9 43.302 40.212 43.35 40.404C43.406 40.596 43.51 40.732 43.662 40.812C43.822 40.884 44.082 40.92 44.442 40.92H44.622L44.682 41.472L44.622 42H44.442ZM50.2304 42H44.5064V40.92H50.2304V42ZM49.1144 41.808C48.4424 41.808 47.8584 41.708 47.3624 41.508C46.8664 41.3 46.4824 41.016 46.2104 40.656C45.9464 40.288 45.8144 39.876 45.8144 39.42C45.8144 39.02 45.9104 38.656 46.1024 38.328C46.2944 37.992 46.5544 37.728 46.8824 37.536C47.2104 37.336 47.5664 37.236 47.9504 37.236C48.3104 37.236 48.6104 37.288 48.8504 37.392C49.0904 37.496 49.3904 37.672 49.7504 37.92L50.0024 38.088L49.5344 38.856C49.4704 38.816 49.4064 38.78 49.3424 38.748C48.9824 38.556 48.7144 38.428 48.5384 38.364C48.3704 38.292 48.1744 38.256 47.9504 38.256C47.6224 38.256 47.3384 38.368 47.0984 38.592C46.8664 38.816 46.7504 39.092 46.7504 39.42C46.7504 39.708 46.8304 39.964 46.9904 40.188C47.1584 40.412 47.4184 40.592 47.7704 40.728C48.1224 40.856 48.5704 40.92 49.1144 40.92V41.808ZM57.6999 42C57.4199 42 57.1399 41.928 56.8599 41.784C56.5799 41.632 56.3439 41.396 56.1519 41.076C55.9599 40.756 55.8639 40.352 55.8639 39.864H56.7039C56.7039 40.208 56.7879 40.472 56.9559 40.656C57.1239 40.832 57.3719 40.92 57.6999 40.92H58.1439L58.2039 41.46L58.1439 42H57.6999ZM51.4359 40.92H54.6999C55.0599 40.92 55.3279 40.844 55.5039 40.692C55.6879 40.532 55.7799 40.256 55.7799 39.864V34.212H56.7039V39.864C56.7039 40.352 56.5999 40.756 56.3919 41.076C56.1919 41.396 55.9439 41.632 55.6479 41.784C55.3519 41.928 55.0639 42 54.7839 42H51.4359V40.92ZM51.8439 34.416L52.7799 34.344L53.1039 39.972L52.1679 40.044L51.8439 34.416ZM58.0298 40.92H63.0698C63.5498 40.92 63.9218 40.812 64.1858 40.596C64.4578 40.372 64.5938 40.048 64.5938 39.624C64.5938 39.16 64.4938 38.8 64.2938 38.544C64.0938 38.288 63.7858 38.16 63.3698 38.16C63.1138 38.16 62.8978 38.196 62.7218 38.268C62.5458 38.34 62.3738 38.464 62.2058 38.64C62.0378 38.816 61.8298 39.076 61.5818 39.42L60.0578 41.556L59.3258 41.076L60.8138 38.796C61.2218 38.18 61.6138 37.74 61.9898 37.476C62.3738 37.212 62.8338 37.08 63.3698 37.08C63.8178 37.08 64.2018 37.196 64.5218 37.428C64.8498 37.66 65.0978 37.972 65.2658 38.364C65.4418 38.748 65.5298 39.168 65.5298 39.624C65.5298 40.104 65.4178 40.524 65.1938 40.884C64.9698 41.244 64.6698 41.52 64.2938 41.712C63.9178 41.904 63.5098 42 63.0698 42H58.0298V40.92ZM59.7218 34.212H60.6578L60.6698 40.428L59.7338 40.92L59.7218 34.212ZM67.2089 34.212H68.1449L68.1569 42H67.2209L67.2089 34.212Z" fill="#E5C1C4"/>
</svg>
