<svg width="63" height="50" viewBox="0 0 63 50" fill="none" xmlns="http://www.w3.org/2000/svg">
<path d="M31.5 12C34.2614 12 36.5 9.76142 36.5 7C36.5 4.23858 34.2614 2 31.5 2C28.7386 2 26.5 4.23858 26.5 7C26.5 9.76142 28.7386 12 31.5 12Z" fill="#A72F3B"/>
<path d="M31.5002 14.5C26.4902 14.5 22.4102 17.86 22.4102 22C22.4102 22.28 22.6302 22.5 22.9102 22.5H40.0902C40.3702 22.5 40.5902 22.28 40.5902 22C40.5902 17.86 36.5102 14.5 31.5002 14.5Z" fill="#A72F3B"/>
<path d="M4.72088 38.304V41.688C4.72088 42.408 4.59688 43.016 4.34888 43.512C4.10888 44.008 3.75288 44.384 3.28088 44.64C2.80888 44.896 2.23288 45.024 1.55288 45.024H0.796875V43.944H1.55288C2.08888 43.944 2.51688 43.868 2.83688 43.716C3.16488 43.564 3.40488 43.324 3.55688 42.996C3.70888 42.668 3.78488 42.232 3.78488 41.688V38.304H4.72088ZM4.72088 40.008C4.72088 40.336 4.80088 40.572 4.96088 40.716C5.12088 40.852 5.37288 40.92 5.71688 40.92H5.83688L5.90888 41.472L5.83688 42H5.71688C5.43688 42 5.18088 41.94 4.94888 41.82C4.71688 41.7 4.52488 41.492 4.37288 41.196C4.22888 40.9 4.15688 40.504 4.15688 40.008H4.72088ZM5.71734 40.92H7.03734C7.40534 40.92 7.66934 40.84 7.82934 40.68C7.99734 40.512 8.07334 40.288 8.05734 40.008C8.04134 39.776 7.99334 39.448 7.91334 39.024C7.84134 38.6 7.76534 38.204 7.68534 37.836L8.59734 37.596C8.68534 37.964 8.76934 38.384 8.84934 38.856C8.92934 39.32 8.97734 39.696 8.99334 39.984C9.00934 40.32 8.94134 40.644 8.78934 40.956C8.64534 41.268 8.42134 41.52 8.11734 41.712C7.82134 41.904 7.46134 42 7.03734 42H5.71734V40.92ZM6.59334 43.824C6.80134 43.824 7.00534 43.824 7.20534 43.824C7.40534 43.824 7.60134 43.824 7.79334 43.824C7.79334 44.096 7.79334 44.296 7.79334 44.424C7.79334 44.56 7.79334 44.76 7.79334 45.024C7.52134 45.024 7.31734 45.024 7.18134 45.024C7.05334 45.024 6.85734 45.024 6.59334 45.024C6.59334 44.752 6.59334 44.548 6.59334 44.412C6.59334 44.284 6.59334 44.088 6.59334 43.824ZM12.3146 38.304V41.688C12.3146 42.408 12.1906 43.016 11.9426 43.512C11.7026 44.008 11.3466 44.384 10.8746 44.64C10.4026 44.896 9.82663 45.024 9.14663 45.024H8.39062V43.944H9.14663C9.68263 43.944 10.1106 43.868 10.4306 43.716C10.7586 43.564 10.9986 43.324 11.1506 42.996C11.3026 42.668 11.3786 42.232 11.3786 41.688V38.304H12.3146ZM16.0475 42C15.5035 42 15.0795 41.9 14.7755 41.7C14.4715 41.492 14.2555 41.204 14.1275 40.836C14.0075 40.468 13.9475 40.012 13.9475 39.468L13.9355 34.212H14.8715L14.8835 39.468C14.8835 39.9 14.9075 40.212 14.9555 40.404C15.0115 40.596 15.1155 40.732 15.2675 40.812C15.4275 40.884 15.6875 40.92 16.0475 40.92H16.2275L16.2875 41.472L16.2275 42H16.0475ZM21.7399 34.812L17.9599 36.48L20.1439 38.7C20.5359 39.092 20.7399 39.552 20.7559 40.08C20.7719 40.608 20.5999 41.06 20.2399 41.436C19.8879 41.812 19.4039 42 18.7879 42H16.1119V40.92H18.7879C19.1639 40.92 19.4439 40.848 19.6279 40.704C19.8199 40.56 19.8999 40.376 19.8679 40.152C19.8439 39.92 19.7119 39.684 19.4719 39.444L16.9399 36.9L17.2279 35.64L21.3559 33.828L21.7399 34.812ZM27.3591 42C26.8951 42 26.4871 41.896 26.1351 41.688C25.7831 41.472 25.5191 41.184 25.3431 40.824C25.1671 40.464 25.1031 40.076 25.1511 39.66C25.1911 39.292 25.3231 38.644 25.5471 37.716L26.4231 37.944L26.3751 38.16C26.1831 38.976 26.0751 39.512 26.0511 39.768C26.0111 40.12 26.1031 40.4 26.3271 40.608C26.5511 40.816 26.8951 40.92 27.3591 40.92H32.5431C32.9351 40.92 33.2271 40.812 33.4191 40.596C33.6191 40.38 33.7191 40.12 33.7191 39.816C33.7191 39.464 33.5951 38.732 33.3471 37.62L34.2591 37.38C34.5231 38.524 34.6551 39.336 34.6551 39.816C34.6551 40.152 34.5711 40.492 34.4031 40.836C34.2351 41.172 33.9911 41.452 33.6711 41.676C33.3511 41.892 32.9751 42 32.5431 42H27.3591ZM28.2591 36.828C28.4351 36.828 28.5671 36.828 28.6551 36.828C28.7511 36.828 28.8911 36.828 29.0751 36.828C29.2031 36.828 29.3311 36.828 29.4591 36.828C29.4591 37.1 29.4591 37.304 29.4591 37.44C29.4591 37.568 29.4591 37.764 29.4591 38.028C29.1871 38.028 28.9831 38.028 28.8471 38.028C28.7191 38.028 28.5231 38.028 28.2591 38.028C28.2591 37.756 28.2591 37.556 28.2591 37.428C28.2591 37.292 28.2591 37.092 28.2591 36.828ZM30.4071 36.828C30.6791 36.828 30.8791 36.828 31.0071 36.828C31.1431 36.828 31.3431 36.828 31.6071 36.828C31.6071 37.1 31.6071 37.304 31.6071 37.44C31.6071 37.568 31.6071 37.764 31.6071 38.028C31.3351 38.028 31.1311 38.028 30.9951 38.028C30.8671 38.028 30.6711 38.028 30.4071 38.028C30.4071 37.756 30.4071 37.556 30.4071 37.428C30.4071 37.292 30.4071 37.092 30.4071 36.828ZM38.442 42C37.898 42 37.474 41.9 37.17 41.7C36.866 41.492 36.65 41.204 36.522 40.836C36.402 40.468 36.342 40.012 36.342 39.468L36.33 34.212H37.266L37.278 39.468C37.278 39.9 37.302 40.212 37.35 40.404C37.406 40.596 37.51 40.732 37.662 40.812C37.822 40.884 38.082 40.92 38.442 40.92H38.622L38.682 41.472L38.622 42H38.442ZM44.2304 42H38.5064V40.92H44.2304V42ZM43.1144 41.808C42.4424 41.808 41.8584 41.708 41.3624 41.508C40.8664 41.3 40.4824 41.016 40.2104 40.656C39.9464 40.288 39.8144 39.876 39.8144 39.42C39.8144 39.02 39.9104 38.656 40.1024 38.328C40.2944 37.992 40.5544 37.728 40.8824 37.536C41.2104 37.336 41.5664 37.236 41.9504 37.236C42.3104 37.236 42.6104 37.288 42.8504 37.392C43.0904 37.496 43.3904 37.672 43.7504 37.92L44.0024 38.088L43.5344 38.856C43.4704 38.816 43.4064 38.78 43.3424 38.748C42.9824 38.556 42.7144 38.428 42.5384 38.364C42.3704 38.292 42.1744 38.256 41.9504 38.256C41.6224 38.256 41.3384 38.368 41.0984 38.592C40.8664 38.816 40.7504 39.092 40.7504 39.42C40.7504 39.708 40.8304 39.964 40.9904 40.188C41.1584 40.412 41.4184 40.592 41.7704 40.728C42.1224 40.856 42.5704 40.92 43.1144 40.92V41.808ZM51.6999 42C51.4199 42 51.1399 41.928 50.8599 41.784C50.5799 41.632 50.3439 41.396 50.1519 41.076C49.9599 40.756 49.8639 40.352 49.8639 39.864H50.7039C50.7039 40.208 50.7879 40.472 50.9559 40.656C51.1239 40.832 51.3719 40.92 51.6999 40.92H52.1439L52.2039 41.46L52.1439 42H51.6999ZM45.4359 40.92H48.6999C49.0599 40.92 49.3279 40.844 49.5039 40.692C49.6879 40.532 49.7799 40.256 49.7799 39.864V34.212H50.7039V39.864C50.7039 40.352 50.5999 40.756 50.3919 41.076C50.1919 41.396 49.9439 41.632 49.6479 41.784C49.3519 41.928 49.0639 42 48.7839 42H45.4359V40.92ZM45.8439 34.416L46.7799 34.344L47.1039 39.972L46.1679 40.044L45.8439 34.416ZM52.0298 40.92H57.0698C57.5498 40.92 57.9218 40.812 58.1858 40.596C58.4578 40.372 58.5938 40.048 58.5938 39.624C58.5938 39.16 58.4938 38.8 58.2938 38.544C58.0938 38.288 57.7858 38.16 57.3698 38.16C57.1138 38.16 56.8978 38.196 56.7218 38.268C56.5458 38.34 56.3738 38.464 56.2058 38.64C56.0378 38.816 55.8298 39.076 55.5818 39.42L54.0578 41.556L53.3258 41.076L54.8138 38.796C55.2218 38.18 55.6138 37.74 55.9898 37.476C56.3738 37.212 56.8338 37.08 57.3698 37.08C57.8178 37.08 58.2018 37.196 58.5218 37.428C58.8498 37.66 59.0978 37.972 59.2658 38.364C59.4418 38.748 59.5298 39.168 59.5298 39.624C59.5298 40.104 59.4178 40.524 59.1938 40.884C58.9698 41.244 58.6698 41.52 58.2938 41.712C57.9178 41.904 57.5098 42 57.0698 42H52.0298V40.92ZM53.7218 34.212H54.6578L54.6698 40.428L53.7338 40.92L53.7218 34.212ZM61.2089 34.212H62.1449L62.1569 42H61.2209L61.2089 34.212Z" fill="#A72F3B"/>
</svg>
