<svg width="71" height="50" viewBox="0 0 71 50" fill="none" xmlns="http://www.w3.org/2000/svg">
<path d="M40.95 22.75C39.82 22.75 38.63 22.48 37.4 21.96C36.2 21.45 34.99 20.75 33.81 19.9C32.64 19.04 31.51 18.08 30.44 17.03C29.38 15.96 28.42 14.83 27.57 13.67C26.71 12.47 26.02 11.27 25.53 10.11C25.01 8.87 24.75 7.67 24.75 6.54C24.75 5.76 24.89 5.02 25.16 4.33C25.44 3.62 25.89 2.96 26.5 2.39C27.27 1.63 28.15 1.25 29.09 1.25C29.48 1.25 29.88 1.34 30.22 1.5C30.61 1.68 30.94 1.95 31.18 2.31L33.5 5.58C33.71 5.87 33.87 6.15 33.98 6.43C34.11 6.73 34.18 7.03 34.18 7.32C34.18 7.7 34.07 8.07 33.86 8.42C33.71 8.69 33.48 8.98 33.19 9.27L32.51 9.98C32.52 10.01 32.53 10.03 32.54 10.05C32.66 10.26 32.9 10.62 33.36 11.16C33.85 11.72 34.31 12.23 34.77 12.7C35.36 13.28 35.85 13.74 36.31 14.12C36.88 14.6 37.25 14.84 37.47 14.95L37.45 15L38.18 14.28C38.49 13.97 38.79 13.74 39.08 13.59C39.63 13.25 40.33 13.19 41.03 13.48C41.29 13.59 41.57 13.74 41.87 13.95L45.19 16.31C45.56 16.56 45.83 16.88 45.99 17.26C46.14 17.64 46.21 17.99 46.21 18.34C46.21 18.82 46.1 19.3 45.89 19.75C45.68 20.2 45.42 20.59 45.09 20.95C44.52 21.58 43.9 22.03 43.18 22.32C42.49 22.6 41.74 22.75 40.95 22.75ZM29.09 2.75C28.54 2.75 28.03 2.99 27.54 3.47C27.08 3.9 26.76 4.37 26.56 4.88C26.35 5.4 26.25 5.95 26.25 6.54C26.25 7.47 26.47 8.48 26.91 9.52C27.36 10.58 27.99 11.68 28.79 12.78C29.59 13.88 30.5 14.95 31.5 15.96C32.5 16.95 33.58 17.87 34.69 18.68C35.77 19.47 36.88 20.11 37.98 20.57C39.69 21.3 41.29 21.47 42.61 20.92C43.12 20.71 43.57 20.39 43.98 19.93C44.21 19.68 44.39 19.41 44.54 19.09C44.66 18.84 44.72 18.58 44.72 18.32C44.72 18.16 44.69 18 44.61 17.82C44.58 17.76 44.52 17.65 44.33 17.52L41.01 15.16C40.81 15.02 40.63 14.92 40.46 14.85C40.24 14.76 40.15 14.67 39.81 14.88C39.61 14.98 39.43 15.13 39.23 15.33L38.47 16.08C38.08 16.46 37.48 16.55 37.02 16.38L36.75 16.26C36.34 16.04 35.86 15.7 35.33 15.25C34.85 14.84 34.33 14.36 33.7 13.74C33.21 13.24 32.72 12.71 32.21 12.12C31.74 11.57 31.4 11.1 31.19 10.71L31.07 10.41C31.01 10.18 30.99 10.05 30.99 9.91C30.99 9.55 31.12 9.23 31.37 8.98L32.12 8.2C32.32 8 32.47 7.81 32.57 7.64C32.65 7.51 32.68 7.4 32.68 7.3C32.68 7.22 32.65 7.1 32.6 6.98C32.53 6.82 32.42 6.64 32.28 6.45L29.96 3.17C29.86 3.03 29.74 2.93 29.59 2.86C29.43 2.79 29.26 2.75 29.09 2.75ZM37.45 15.01L37.29 15.69L37.56 14.99C37.51 14.98 37.47 14.99 37.45 15.01Z" fill="#E5C1C4"/>
<path d="M3.01269 38.976C2.79669 39.416 2.62869 39.844 2.50869 40.26C2.39669 40.668 2.34069 41.088 2.34069 41.52C2.34069 41.992 2.41669 42.408 2.56869 42.768C2.72069 43.136 2.95669 43.424 3.27669 43.632C3.59669 43.84 4.00469 43.944 4.50069 43.944H5.78469C6.32869 43.944 6.75269 43.88 7.05669 43.752C7.36069 43.632 7.57669 43.436 7.70469 43.164C7.83269 42.9 7.89669 42.536 7.89669 42.072V38.304H8.83269V42.072C8.83269 43 8.58869 43.724 8.10069 44.244C7.61269 44.764 6.84069 45.024 5.78469 45.024H4.50069C3.83669 45.024 3.27269 44.86 2.80869 44.532C2.34469 44.204 1.99269 43.772 1.75269 43.236C1.52069 42.7 1.40469 42.128 1.40469 41.52C1.40469 40.984 1.48069 40.464 1.63269 39.96C1.78469 39.456 1.98069 38.984 2.22069 38.544L3.01269 38.976ZM8.83269 39.576C8.83269 40.088 8.92869 40.44 9.12069 40.632C9.32069 40.824 9.60069 40.92 9.96069 40.92C10.3527 40.92 10.6287 40.836 10.7887 40.668C10.9567 40.5 11.0407 40.232 11.0407 39.864V38.304H11.9767V40.008C11.9767 40.328 12.0527 40.56 12.2047 40.704C12.3647 40.84 12.6087 40.912 12.9367 40.92C13.2887 40.912 13.5447 40.828 13.7047 40.668C13.8647 40.5 13.9367 40.28 13.9207 40.008C13.9047 39.776 13.8567 39.448 13.7767 39.024C13.7047 38.6 13.6287 38.204 13.5487 37.836L14.4607 37.596C14.5487 37.964 14.6327 38.384 14.7127 38.856C14.7927 39.32 14.8407 39.696 14.8567 39.984C14.8727 40.312 14.8087 40.632 14.6647 40.944C14.5207 41.256 14.3007 41.512 14.0047 41.712C13.7087 41.904 13.3527 42 12.9367 42C12.6807 42 12.4167 41.94 12.1447 41.82C11.8807 41.692 11.6527 41.496 11.4607 41.232C11.2687 41.488 11.0487 41.68 10.8007 41.808C10.5527 41.936 10.2727 42 9.96069 42C9.60069 42 9.28069 41.912 9.00069 41.736C8.72869 41.56 8.51269 41.292 8.35269 40.932C8.20069 40.564 8.12469 40.112 8.12469 39.576H8.83269ZM18.6451 42C18.1011 42 17.6771 41.9 17.3731 41.7C17.0691 41.492 16.8531 41.204 16.7251 40.836C16.6051 40.468 16.5451 40.012 16.5451 39.468L16.5331 34.212H17.4691L17.4811 39.468C17.4811 39.9 17.5051 40.212 17.5531 40.404C17.6091 40.596 17.7131 40.732 17.8651 40.812C18.0251 40.884 18.2851 40.92 18.6451 40.92H18.8251L18.8851 41.472L18.8251 42H18.6451ZM18.7095 40.92H19.0455C19.2375 40.92 19.3895 40.88 19.5015 40.8C19.6215 40.712 19.7015 40.584 19.7415 40.416L20.1255 39.036C20.3015 38.412 20.5735 37.924 20.9415 37.572C21.3095 37.212 21.7535 37.032 22.2735 37.032C22.6895 37.032 23.0575 37.156 23.3775 37.404C23.6975 37.644 23.9455 37.972 24.1215 38.388C24.2975 38.796 24.3855 39.24 24.3855 39.72C24.3855 40.312 24.3015 40.8 24.1335 41.184C23.9655 41.56 23.7455 41.832 23.4735 42C23.2095 42.176 22.9295 42.264 22.6335 42.264C22.3215 42.264 22.0055 42.2 21.6855 42.072C21.3655 41.944 20.8615 41.704 20.1735 41.352L19.8615 41.196L20.2935 40.236C20.3895 40.284 20.4815 40.332 20.5695 40.38C21.2175 40.708 21.6655 40.924 21.9135 41.028C22.1695 41.132 22.4095 41.184 22.6335 41.184C22.9055 41.184 23.1095 41.084 23.2455 40.884C23.3815 40.676 23.4495 40.288 23.4495 39.72C23.4495 39.216 23.3495 38.824 23.1495 38.544C22.9495 38.256 22.6575 38.112 22.2735 38.112C21.9855 38.112 21.7335 38.212 21.5175 38.412C21.3095 38.612 21.1495 38.916 21.0375 39.324L20.6535 40.704C20.5815 40.96 20.4615 41.188 20.2935 41.388C20.1335 41.58 19.9415 41.732 19.7175 41.844C19.5015 41.948 19.2775 42 19.0455 42H18.7095V40.92ZM25.3215 41.46L25.2615 42H25.1415C24.7495 42 24.4295 41.904 24.1815 41.712C23.9415 41.52 23.7655 41.256 23.6535 40.92C23.5415 40.584 23.4855 40.184 23.4855 39.72H24.3855C24.3855 40.056 24.4135 40.312 24.4695 40.488C24.5255 40.656 24.6055 40.772 24.7095 40.836C24.8135 40.892 24.9575 40.92 25.1415 40.92H25.2615L25.3215 41.46ZM25.1431 40.92H26.7631C27.2271 40.92 27.5511 40.84 27.7351 40.68C27.9271 40.52 28.0151 40.296 27.9991 40.008C27.9831 39.776 27.9351 39.448 27.8551 39.024C27.7831 38.6 27.7071 38.204 27.6271 37.836L28.5391 37.596C28.6271 37.964 28.7111 38.384 28.7911 38.856C28.8711 39.32 28.9191 39.696 28.9351 39.984C28.9511 40.328 28.8791 40.656 28.7191 40.968C28.5671 41.272 28.3231 41.52 27.9871 41.712C27.6591 41.904 27.2511 42 26.7631 42H25.1431V40.92ZM25.6831 34.98C25.8591 34.98 25.9911 34.98 26.0791 34.98C26.1751 34.98 26.3151 34.98 26.4991 34.98C26.6271 34.98 26.7551 34.98 26.8831 34.98C26.8831 35.252 26.8831 35.456 26.8831 35.592C26.8831 35.72 26.8831 35.916 26.8831 36.18C26.6111 36.18 26.4071 36.18 26.2711 36.18C26.1431 36.18 25.9471 36.18 25.6831 36.18C25.6831 35.908 25.6831 35.708 25.6831 35.58C25.6831 35.444 25.6831 35.244 25.6831 34.98ZM27.8311 34.98C28.1031 34.98 28.3031 34.98 28.4311 34.98C28.5671 34.98 28.7671 34.98 29.0311 34.98C29.0311 35.252 29.0311 35.456 29.0311 35.592C29.0311 35.72 29.0311 35.916 29.0311 36.18C28.7591 36.18 28.5551 36.18 28.4191 36.18C28.2911 36.18 28.0951 36.18 27.8311 36.18C27.8311 35.908 27.8311 35.708 27.8311 35.58C27.8311 35.444 27.8311 35.244 27.8311 34.98ZM35.3591 42C34.8951 42 34.4871 41.896 34.1351 41.688C33.7831 41.472 33.5191 41.184 33.3431 40.824C33.1671 40.464 33.1031 40.076 33.1511 39.66C33.1911 39.292 33.3231 38.644 33.5471 37.716L34.4231 37.944L34.3751 38.16C34.1831 38.976 34.0751 39.512 34.0511 39.768C34.0111 40.12 34.1031 40.4 34.3271 40.608C34.5511 40.816 34.8951 40.92 35.3591 40.92H40.5431C40.9351 40.92 41.2271 40.812 41.4191 40.596C41.6191 40.38 41.7191 40.12 41.7191 39.816C41.7191 39.464 41.5951 38.732 41.3471 37.62L42.2591 37.38C42.5231 38.524 42.6551 39.336 42.6551 39.816C42.6551 40.152 42.5711 40.492 42.4031 40.836C42.2351 41.172 41.9911 41.452 41.6711 41.676C41.3511 41.892 40.9751 42 40.5431 42H35.3591ZM36.2591 36.828C36.4351 36.828 36.5671 36.828 36.6551 36.828C36.7511 36.828 36.8911 36.828 37.0751 36.828C37.2031 36.828 37.3311 36.828 37.4591 36.828C37.4591 37.1 37.4591 37.304 37.4591 37.44C37.4591 37.568 37.4591 37.764 37.4591 38.028C37.1871 38.028 36.9831 38.028 36.8471 38.028C36.7191 38.028 36.5231 38.028 36.2591 38.028C36.2591 37.756 36.2591 37.556 36.2591 37.428C36.2591 37.292 36.2591 37.092 36.2591 36.828ZM38.4071 36.828C38.6791 36.828 38.8791 36.828 39.0071 36.828C39.1431 36.828 39.3431 36.828 39.6071 36.828C39.6071 37.1 39.6071 37.304 39.6071 37.44C39.6071 37.568 39.6071 37.764 39.6071 38.028C39.3351 38.028 39.1311 38.028 38.9951 38.028C38.8671 38.028 38.6711 38.028 38.4071 38.028C38.4071 37.756 38.4071 37.556 38.4071 37.428C38.4071 37.292 38.4071 37.092 38.4071 36.828ZM46.442 42C45.898 42 45.474 41.9 45.17 41.7C44.866 41.492 44.65 41.204 44.522 40.836C44.402 40.468 44.342 40.012 44.342 39.468L44.33 34.212H45.266L45.278 39.468C45.278 39.9 45.302 40.212 45.35 40.404C45.406 40.596 45.51 40.732 45.662 40.812C45.822 40.884 46.082 40.92 46.442 40.92H46.622L46.682 41.472L46.622 42H46.442ZM52.2304 42H46.5064V40.92H52.2304V42ZM51.1144 41.808C50.4424 41.808 49.8584 41.708 49.3624 41.508C48.8664 41.3 48.4824 41.016 48.2104 40.656C47.9464 40.288 47.8144 39.876 47.8144 39.42C47.8144 39.02 47.9104 38.656 48.1024 38.328C48.2944 37.992 48.5544 37.728 48.8824 37.536C49.2104 37.336 49.5664 37.236 49.9504 37.236C50.3104 37.236 50.6104 37.288 50.8504 37.392C51.0904 37.496 51.3904 37.672 51.7504 37.92L52.0024 38.088L51.5344 38.856C51.4704 38.816 51.4064 38.78 51.3424 38.748C50.9824 38.556 50.7144 38.428 50.5384 38.364C50.3704 38.292 50.1744 38.256 49.9504 38.256C49.6224 38.256 49.3384 38.368 49.0984 38.592C48.8664 38.816 48.7504 39.092 48.7504 39.42C48.7504 39.708 48.8304 39.964 48.9904 40.188C49.1584 40.412 49.4184 40.592 49.7704 40.728C50.1224 40.856 50.5704 40.92 51.1144 40.92V41.808ZM59.6999 42C59.4199 42 59.1399 41.928 58.8599 41.784C58.5799 41.632 58.3439 41.396 58.1519 41.076C57.9599 40.756 57.8639 40.352 57.8639 39.864H58.7039C58.7039 40.208 58.7879 40.472 58.9559 40.656C59.1239 40.832 59.3719 40.92 59.6999 40.92H60.1439L60.2039 41.46L60.1439 42H59.6999ZM53.4359 40.92H56.6999C57.0599 40.92 57.3279 40.844 57.5039 40.692C57.6879 40.532 57.7799 40.256 57.7799 39.864V34.212H58.7039V39.864C58.7039 40.352 58.5999 40.756 58.3919 41.076C58.1919 41.396 57.9439 41.632 57.6479 41.784C57.3519 41.928 57.0639 42 56.7839 42H53.4359V40.92ZM53.8439 34.416L54.7799 34.344L55.1039 39.972L54.1679 40.044L53.8439 34.416ZM60.0298 40.92H65.0698C65.5498 40.92 65.9218 40.812 66.1858 40.596C66.4578 40.372 66.5938 40.048 66.5938 39.624C66.5938 39.16 66.4938 38.8 66.2938 38.544C66.0938 38.288 65.7858 38.16 65.3698 38.16C65.1138 38.16 64.8978 38.196 64.7218 38.268C64.5458 38.34 64.3738 38.464 64.2058 38.64C64.0378 38.816 63.8298 39.076 63.5818 39.42L62.0578 41.556L61.3258 41.076L62.8138 38.796C63.2218 38.18 63.6138 37.74 63.9898 37.476C64.3738 37.212 64.8338 37.08 65.3698 37.08C65.8178 37.08 66.2018 37.196 66.5218 37.428C66.8498 37.66 67.0978 37.972 67.2658 38.364C67.4418 38.748 67.5298 39.168 67.5298 39.624C67.5298 40.104 67.4178 40.524 67.1938 40.884C66.9698 41.244 66.6698 41.52 66.2938 41.712C65.9178 41.904 65.5098 42 65.0698 42H60.0298V40.92ZM61.7218 34.212H62.6578L62.6698 40.428L61.7338 40.92L61.7218 34.212ZM69.2089 34.212H70.1449L70.1569 42H69.2209L69.2089 34.212Z" fill="#E5C1C4"/>
</svg>
