<svg width="51" height="50" viewBox="0 0 51 50" fill="none" xmlns="http://www.w3.org/2000/svg">
<path d="M29.75 22.5C30.7165 22.5 31.5 21.7165 31.5 20.75C31.5 19.7835 30.7165 19 29.75 19C28.7835 19 28 19.7835 28 20.75C28 21.7165 28.7835 22.5 29.75 22.5Z" fill="#A72F3B"/>
<path d="M21.75 22.5C22.7165 22.5 23.5 21.7165 23.5 20.75C23.5 19.7835 22.7165 19 21.75 19C20.7835 19 20 19.7835 20 20.75C20 21.7165 20.7835 22.5 21.75 22.5Z" fill="#A72F3B"/>
<path d="M18.34 3.94L18.14 6.39C18.1 6.86 18.47 7.25 18.94 7.25H34.25C34.67 7.25 35.02 6.93 35.05 6.51C35.18 4.74 33.83 3.3 32.06 3.3H19.77C19.67 2.86 19.47 2.44 19.16 2.09C18.66 1.56 17.96 1.25 17.24 1.25H15.5C15.09 1.25 14.75 1.59 14.75 2C14.75 2.41 15.09 2.75 15.5 2.75H17.24C17.55 2.75 17.84 2.88 18.05 3.1C18.26 3.33 18.36 3.63 18.34 3.94Z" fill="#A72F3B"/>
<path d="M34.0101 8.75H18.6701C18.2501 8.75 17.9101 9.07 17.8701 9.48L17.5101 13.83C17.3701 15.54 18.7101 17 20.4201 17H31.5401C33.0401 17 34.3601 15.77 34.4701 14.27L34.8001 9.6C34.8401 9.14 34.4801 8.75 34.0101 8.75Z" fill="#A72F3B"/>
<path d="M4.09838 36.084C4.18638 36.292 4.46238 36.896 4.92638 37.896C5.07038 38.208 5.21438 38.524 5.35838 38.844C5.55038 39.244 5.66638 39.64 5.70638 40.032C5.75438 40.416 5.66238 40.772 5.43038 41.1C5.19038 41.444 4.89838 41.68 4.55438 41.808C4.21838 41.936 3.85438 42 3.46238 42H2.85038C2.41838 42 2.03438 41.936 1.69838 41.808C1.36238 41.672 1.07438 41.52 0.834375 41.352L1.32638 40.44L1.38638 40.476C1.59438 40.596 1.81038 40.7 2.03438 40.788C2.25838 40.876 2.53038 40.92 2.85038 40.92H3.46238C3.75038 40.92 3.99438 40.888 4.19438 40.824C4.39438 40.752 4.55038 40.636 4.66238 40.476C4.76638 40.332 4.80238 40.18 4.77038 40.02C4.74638 39.852 4.66238 39.612 4.51838 39.3L3.70238 37.548C3.51838 37.172 3.36238 36.836 3.23438 36.54L4.09838 36.084ZM5.37038 38.856C5.60238 39.376 5.80238 39.78 5.97038 40.068C6.14638 40.356 6.33038 40.572 6.52238 40.716C6.71438 40.852 6.93838 40.92 7.19438 40.92H7.38638L7.44638 41.496L7.38638 42H7.19438C6.78638 42 6.42638 41.892 6.11438 41.676C5.80238 41.452 5.52238 41.148 5.27438 40.764C5.03438 40.38 4.77838 39.888 4.50638 39.288L5.37038 38.856ZM7.26422 40.92H8.88422C9.34822 40.92 9.67222 40.84 9.85622 40.68C10.0482 40.52 10.1362 40.296 10.1202 40.008C10.1042 39.776 10.0562 39.448 9.97622 39.024C9.90422 38.6 9.82822 38.204 9.74822 37.836L10.6602 37.596C10.7482 37.964 10.8322 38.384 10.9122 38.856C10.9922 39.32 11.0402 39.696 11.0562 39.984C11.0722 40.328 11.0002 40.656 10.8402 40.968C10.6882 41.272 10.4442 41.52 10.1082 41.712C9.78022 41.904 9.37222 42 8.88422 42H7.26422V40.92ZM6.79622 43.836C6.97222 43.836 7.10822 43.836 7.20422 43.836C7.29222 43.836 7.42822 43.836 7.61222 43.836C7.74022 43.836 7.86822 43.836 7.99622 43.836C7.99622 44.108 7.99622 44.308 7.99622 44.436C7.99622 44.572 7.99622 44.772 7.99622 45.036C7.72422 45.036 7.52022 45.036 7.38422 45.036C7.25622 45.036 7.06022 45.036 6.79622 45.036C6.79622 44.764 6.79622 44.56 6.79622 44.424C6.79622 44.296 6.79622 44.1 6.79622 43.836ZM8.94422 43.836C9.21622 43.836 9.41622 43.836 9.54422 43.836C9.68022 43.836 9.88022 43.836 10.1442 43.836C10.1442 44.108 10.1442 44.308 10.1442 44.436C10.1442 44.572 10.1442 44.772 10.1442 45.036C9.87222 45.036 9.66822 45.036 9.53222 45.036C9.40422 45.036 9.20822 45.036 8.94422 45.036C8.94422 44.764 8.94422 44.56 8.94422 44.424C8.94422 44.296 8.94422 44.1 8.94422 43.836ZM15.5842 38.304V41.688C15.5842 42.408 15.4602 43.016 15.2122 43.512C14.9722 44.008 14.6162 44.384 14.1442 44.64C13.6722 44.896 13.0962 45.024 12.4162 45.024H11.6602V43.944H12.4162C12.9522 43.944 13.3802 43.868 13.7002 43.716C14.0282 43.564 14.2682 43.324 14.4202 42.996C14.5722 42.668 14.6482 42.232 14.6482 41.688V38.304H15.5842ZM15.5842 40.008C15.5842 40.336 15.6642 40.572 15.8242 40.716C15.9842 40.852 16.2362 40.92 16.5802 40.92H16.7002L16.7722 41.472L16.7002 42H16.5802C16.3002 42 16.0442 41.94 15.8122 41.82C15.5802 41.7 15.3882 41.492 15.2362 41.196C15.0922 40.9 15.0202 40.504 15.0202 40.008H15.5842ZM16.5326 40.92H18.0206C18.5566 40.92 19.0566 40.856 19.5206 40.728C19.9846 40.592 20.4126 40.424 20.8046 40.224C21.1966 40.016 21.6886 39.732 22.2806 39.372L22.6766 39.132L22.6526 39.396L21.9086 39.084C21.1806 38.78 20.5966 38.552 20.1566 38.4C19.7246 38.24 19.4206 38.16 19.2446 38.16C19.0046 38.16 18.8166 38.216 18.6806 38.328C18.5526 38.432 18.4286 38.648 18.3086 38.976L17.3966 38.688C17.5886 38.12 17.8446 37.712 18.1646 37.464C18.4846 37.208 18.8446 37.08 19.2446 37.08C19.5166 37.08 19.9326 37.184 20.4926 37.392C21.0606 37.6 21.8486 37.916 22.8566 38.34C23.0566 38.42 23.2526 38.5 23.4446 38.58L23.6846 39.72L23.0486 40.116C22.3526 40.556 21.7766 40.9 21.3206 41.148C20.8646 41.396 20.3606 41.6 19.8086 41.76C19.2646 41.92 18.6686 42 18.0206 42H16.5326V40.92ZM18.8366 34.74C19.0446 34.74 19.2486 34.74 19.4486 34.74C19.6486 34.74 19.8446 34.74 20.0366 34.74C20.0366 35.012 20.0366 35.216 20.0366 35.352C20.0366 35.48 20.0366 35.676 20.0366 35.94C19.7646 35.94 19.5606 35.94 19.4246 35.94C19.2966 35.94 19.1006 35.94 18.8366 35.94C18.8366 35.668 18.8366 35.468 18.8366 35.34C18.8366 35.204 18.8366 35.004 18.8366 34.74ZM31.1453 36.084C31.2333 36.292 31.5093 36.896 31.9733 37.896C32.1173 38.208 32.2613 38.524 32.4053 38.844C32.5973 39.244 32.7133 39.64 32.7533 40.032C32.8013 40.416 32.7093 40.772 32.4773 41.1C32.2373 41.444 31.9453 41.68 31.6013 41.808C31.2653 41.936 30.9013 42 30.5093 42H29.8973C29.4653 42 29.0813 41.936 28.7453 41.808C28.4093 41.672 28.1213 41.52 27.8813 41.352L28.3733 40.44L28.4333 40.476C28.6413 40.596 28.8573 40.7 29.0813 40.788C29.3053 40.876 29.5773 40.92 29.8973 40.92H30.5093C30.7973 40.92 31.0413 40.888 31.2413 40.824C31.4413 40.752 31.5973 40.636 31.7093 40.476C31.8133 40.332 31.8493 40.18 31.8173 40.02C31.7933 39.852 31.7093 39.612 31.5653 39.3L30.7493 37.548C30.5653 37.172 30.4093 36.836 30.2812 36.54L31.1453 36.084ZM32.4173 38.856C32.6493 39.376 32.8493 39.78 33.0173 40.068C33.1933 40.356 33.3773 40.572 33.5693 40.716C33.7613 40.852 33.9853 40.92 34.2413 40.92H34.4333L34.4933 41.496L34.4333 42H34.2413C33.8333 42 33.4733 41.892 33.1613 41.676C32.8493 41.452 32.5693 41.148 32.3213 40.764C32.0813 40.38 31.8253 39.888 31.5533 39.288L32.4173 38.856ZM37.5031 38.304V40.008C37.5031 40.336 37.5831 40.572 37.7431 40.716C37.9031 40.852 38.1551 40.92 38.4991 40.92H38.9431L39.0031 41.472L38.9431 42H38.4991C38.2191 42 37.9271 41.928 37.6231 41.784C37.3271 41.632 37.0751 41.396 36.8671 41.076C36.6671 40.756 36.5671 40.352 36.5671 39.864V38.304H37.5031ZM37.3351 40.068C37.3351 40.5 37.2351 40.86 37.0351 41.148C36.8431 41.436 36.5951 41.652 36.2911 41.796C35.9871 41.932 35.6751 42 35.3551 42H34.3111V40.92H35.3551C35.7631 40.92 36.0671 40.836 36.2671 40.668C36.4671 40.5 36.5671 40.232 36.5671 39.864L37.3351 40.068ZM34.4791 43.836C34.6871 43.836 34.8911 43.836 35.0911 43.836C35.2911 43.836 35.4871 43.836 35.6791 43.836C35.6791 44.108 35.6791 44.308 35.6791 44.436C35.6791 44.572 35.6791 44.772 35.6791 45.036C35.4071 45.036 35.2031 45.036 35.0671 45.036C34.9391 45.036 34.7431 45.036 34.4791 45.036C34.4791 44.764 34.4791 44.56 34.4791 44.424C34.4791 44.296 34.4791 44.1 34.4791 43.836ZM38.8228 40.92H39.5548C39.9388 40.92 40.2108 40.836 40.3708 40.668C40.5388 40.5 40.6228 40.232 40.6228 39.864V38.304H41.5588V40.008C41.5588 40.328 41.6348 40.56 41.7868 40.704C41.9468 40.84 42.1908 40.912 42.5188 40.92C42.9028 40.912 43.1748 40.828 43.3348 40.668C43.5028 40.5 43.5868 40.232 43.5868 39.864V38.304H44.5228V40.008C44.5228 40.328 44.5988 40.56 44.7508 40.704C44.9108 40.84 45.1548 40.912 45.4828 40.92C45.8348 40.912 46.0908 40.828 46.2508 40.668C46.4108 40.5 46.4828 40.28 46.4668 40.008C46.4508 39.776 46.4028 39.448 46.3228 39.024C46.2508 38.6 46.1748 38.204 46.0948 37.836L47.0068 37.596C47.0948 37.964 47.1788 38.384 47.2588 38.856C47.3388 39.32 47.3868 39.696 47.4028 39.984C47.4188 40.312 47.3548 40.632 47.2108 40.944C47.0668 41.256 46.8468 41.512 46.5508 41.712C46.2548 41.904 45.8988 42 45.4828 42C45.2268 42 44.9628 41.94 44.6908 41.82C44.4268 41.692 44.1988 41.496 44.0068 41.232C43.8148 41.488 43.5948 41.68 43.3468 41.808C43.0988 41.936 42.8228 42 42.5188 42C42.2548 42 41.9868 41.932 41.7148 41.796C41.4428 41.652 41.2188 41.464 41.0428 41.232C40.8508 41.488 40.6268 41.68 40.3708 41.808C40.1148 41.936 39.8428 42 39.5548 42H38.8228V40.92Z" fill="#A72F3B"/>
</svg>
