<svg width="37" height="50" viewBox="0 0 37 50" fill="none" xmlns="http://www.w3.org/2000/svg">
<path d="M19.55 16.2522H17.67C16.34 16.2522 15.25 15.1322 15.25 13.7522C15.25 13.3422 15.59 13.0022 16 13.0022C16.41 13.0022 16.75 13.3422 16.75 13.7522C16.75 14.3022 17.16 14.7522 17.67 14.7522H19.55C19.94 14.7522 20.25 14.4022 20.25 13.9722C20.25 13.4322 20.1 13.3522 19.76 13.2322L16.75 12.1822C16.11 11.9522 15.25 11.4922 15.25 10.0222C15.25 8.77219 16.24 7.74219 17.45 7.74219H19.33C20.66 7.74219 21.75 8.86219 21.75 10.2422C21.75 10.6522 21.41 10.9922 21 10.9922C20.59 10.9922 20.25 10.6522 20.25 10.2422C20.25 9.69219 19.84 9.24219 19.33 9.24219H17.45C17.06 9.24219 16.75 9.59219 16.75 10.0222C16.75 10.5622 16.9 10.6422 17.24 10.7622L20.25 11.8122C20.89 12.0422 21.75 12.5022 21.75 13.9722C21.75 15.2322 20.76 16.2522 19.55 16.2522Z" fill="#E5C1C4"/>
<path d="M18.5 17.25C18.09 17.25 17.75 16.91 17.75 16.5V7.5C17.75 7.09 18.09 6.75 18.5 6.75C18.91 6.75 19.25 7.09 19.25 7.5V16.5C19.25 16.91 18.91 17.25 18.5 17.25Z" fill="#E5C1C4"/>
<path d="M18.5 22.75C12.57 22.75 7.75 17.93 7.75 12C7.75 6.07 12.57 1.25 18.5 1.25C18.91 1.25 19.25 1.59 19.25 2C19.25 2.41 18.91 2.75 18.5 2.75C13.4 2.75 9.25 6.9 9.25 12C9.25 17.1 13.4 21.25 18.5 21.25C23.6 21.25 27.75 17.1 27.75 12C27.75 11.59 28.09 11.25 28.5 11.25C28.91 11.25 29.25 11.59 29.25 12C29.25 17.93 24.43 22.75 18.5 22.75Z" fill="#E5C1C4"/>
<path d="M28.5 6.75C28.09 6.75 27.75 6.41 27.75 6V2.75H24.5C24.09 2.75 23.75 2.41 23.75 2C23.75 1.59 24.09 1.25 24.5 1.25H28.5C28.91 1.25 29.25 1.59 29.25 2V6C29.25 6.41 28.91 6.75 28.5 6.75Z" fill="#E5C1C4"/>
<path d="M23.4995 7.75141C23.3095 7.75141 23.1195 7.6814 22.9695 7.5314C22.6795 7.2414 22.6795 6.76141 22.9695 6.47141L27.9695 1.47141C28.2595 1.18141 28.7395 1.18141 29.0295 1.47141C29.3195 1.76141 29.3195 2.2414 29.0295 2.5314L24.0295 7.5314C23.8795 7.6814 23.6895 7.75141 23.4995 7.75141Z" fill="#E5C1C4"/>
<path d="M3.35125 42C2.88725 42 2.47925 41.896 2.12725 41.688C1.77525 41.472 1.51125 41.184 1.33525 40.824C1.15925 40.464 1.09525 40.076 1.14325 39.66C1.18325 39.292 1.31525 38.644 1.53925 37.716L2.41525 37.944L2.36725 38.16C2.17525 38.976 2.06725 39.512 2.04325 39.768C2.00325 40.12 2.09525 40.4 2.31925 40.608C2.54325 40.816 2.88725 40.92 3.35125 40.92H8.53525C8.94325 40.92 9.24725 40.836 9.44725 40.668C9.64725 40.5 9.74725 40.232 9.74725 39.864V38.304H10.6833V40.008C10.6833 40.336 10.7633 40.572 10.9233 40.716C11.0833 40.852 11.3353 40.92 11.6793 40.92H12.1233L12.1833 41.436L12.1233 42H11.6793C11.4233 42 11.1553 41.936 10.8753 41.808C10.5953 41.68 10.3593 41.488 10.1673 41.232C9.97525 41.48 9.73125 41.672 9.43525 41.808C9.13925 41.936 8.83925 42 8.53525 42H3.35125ZM4.45525 36.852C4.63125 36.852 4.76325 36.852 4.85125 36.852C4.94725 36.852 5.08725 36.852 5.27125 36.852C5.39925 36.852 5.52725 36.852 5.65525 36.852C5.65525 37.124 5.65525 37.328 5.65525 37.464C5.65525 37.592 5.65525 37.788 5.65525 38.052C5.38325 38.052 5.17925 38.052 5.04325 38.052C4.91525 38.052 4.71925 38.052 4.45525 38.052C4.45525 37.78 4.45525 37.58 4.45525 37.452C4.45525 37.316 4.45525 37.116 4.45525 36.852ZM6.60325 36.852C6.87525 36.852 7.07525 36.852 7.20325 36.852C7.33925 36.852 7.53925 36.852 7.80325 36.852C7.80325 37.124 7.80325 37.328 7.80325 37.464C7.80325 37.592 7.80325 37.788 7.80325 38.052C7.53125 38.052 7.32725 38.052 7.19125 38.052C7.06325 38.052 6.86725 38.052 6.60325 38.052C6.60325 37.78 6.60325 37.58 6.60325 37.452C6.60325 37.316 6.60325 37.116 6.60325 36.852ZM11.9545 40.92H13.4425C13.9785 40.92 14.4785 40.856 14.9425 40.728C15.4065 40.592 15.8345 40.424 16.2265 40.224C16.6185 40.016 17.1105 39.732 17.7025 39.372L18.0985 39.132L18.0745 39.396L17.3305 39.084C16.6025 38.78 16.0185 38.552 15.5785 38.4C15.1465 38.24 14.8425 38.16 14.6665 38.16C14.4265 38.16 14.2385 38.216 14.1025 38.328C13.9745 38.432 13.8505 38.648 13.7305 38.976L12.8185 38.688C13.0105 38.12 13.2665 37.712 13.5865 37.464C13.9065 37.208 14.2665 37.08 14.6665 37.08C14.9385 37.08 15.3545 37.184 15.9145 37.392C16.4825 37.6 17.2705 37.916 18.2785 38.34C18.4785 38.42 18.6745 38.5 18.8665 38.58L19.1065 39.72L18.4705 40.116C17.7745 40.556 17.1985 40.9 16.7425 41.148C16.2865 41.396 15.7825 41.6 15.2305 41.76C14.6865 41.92 14.0905 42 13.4425 42H11.9545V40.92ZM14.2585 34.74C14.4665 34.74 14.6705 34.74 14.8705 34.74C15.0705 34.74 15.2665 34.74 15.4585 34.74C15.4585 35.012 15.4585 35.216 15.4585 35.352C15.4585 35.48 15.4585 35.676 15.4585 35.94C15.1865 35.94 14.9825 35.94 14.8465 35.94C14.7185 35.94 14.5225 35.94 14.2585 35.94C14.2585 35.668 14.2585 35.468 14.2585 35.34C14.2585 35.204 14.2585 35.004 14.2585 34.74ZM20.7831 34.212H21.7191L21.7311 42H20.7951L20.7831 34.212ZM26.3662 36.96C26.6542 37.408 26.8662 37.744 27.0022 37.968C27.1462 38.184 27.3582 38.508 27.6382 38.94C27.8622 39.284 27.9862 39.668 28.0102 40.092C28.0422 40.516 27.9622 40.864 27.7702 41.136C27.5382 41.464 27.2582 41.692 26.9302 41.82C26.6022 41.94 26.2422 42 25.8502 42H25.2022C24.7702 42 24.3782 41.94 24.0262 41.82C23.6822 41.692 23.3982 41.548 23.1742 41.388L23.6662 40.476L23.7262 40.512C23.9102 40.624 24.1142 40.72 24.3382 40.8C24.5622 40.88 24.8502 40.92 25.2022 40.92H25.8502C26.1382 40.92 26.3742 40.892 26.5582 40.836C26.7502 40.772 26.8982 40.664 27.0022 40.512C27.0902 40.392 27.1222 40.256 27.0982 40.104C27.0742 39.944 26.9902 39.748 26.8462 39.516C26.0942 38.332 25.4862 37.396 25.0222 36.708L25.8142 36.108L26.3662 36.96ZM31.3498 38.304V41.688C31.3498 42.408 31.2258 43.016 30.9778 43.512C30.7378 44.008 30.3818 44.384 29.9098 44.64C29.4378 44.896 28.8618 45.024 28.1818 45.024H27.4258V43.944H28.1818C28.7178 43.944 29.1458 43.868 29.4658 43.716C29.7938 43.564 30.0338 43.324 30.1858 42.996C30.3378 42.668 30.4138 42.232 30.4138 41.688V38.304H31.3498ZM31.3498 40.008C31.3498 40.336 31.4298 40.572 31.5898 40.716C31.7498 40.852 32.0018 40.92 32.3458 40.92H32.4658L32.5378 41.472L32.4658 42H32.3458C32.0658 42 31.8098 41.94 31.5778 41.82C31.3458 41.7 31.1538 41.492 31.0018 41.196C30.8578 40.9 30.7858 40.504 30.7858 40.008H31.3498ZM32.6103 40.92H34.2303C34.6943 40.92 35.0183 40.84 35.2023 40.68C35.3943 40.52 35.4823 40.296 35.4663 40.008C35.4503 39.776 35.4023 39.448 35.3223 39.024C35.2503 38.6 35.1743 38.204 35.0943 37.836L36.0063 37.596C36.0943 37.964 36.1783 38.384 36.2583 38.856C36.3383 39.32 36.3863 39.696 36.4023 39.984C36.4183 40.328 36.3463 40.656 36.1863 40.968C36.0343 41.272 35.7903 41.52 35.4543 41.712C35.1263 41.904 34.7183 42 34.2303 42H32.6103V40.92ZM33.8223 45.948C33.8223 45.692 33.8223 45.5 33.8223 45.372C33.8223 45.244 33.8223 45.056 33.8223 44.808C34.0783 44.808 34.2703 44.808 34.3983 44.808C34.5263 44.808 34.7143 44.808 34.9623 44.808C34.9623 45.064 34.9623 45.256 34.9623 45.384C34.9623 45.512 34.9623 45.7 34.9623 45.948C34.7063 45.948 34.5143 45.948 34.3863 45.948C34.2663 45.948 34.0783 45.948 33.8223 45.948ZM32.6823 44.4C32.6823 44.128 32.6823 43.924 32.6823 43.788C32.6823 43.66 32.6823 43.464 32.6823 43.2C32.9543 43.2 33.1543 43.2 33.2823 43.2C33.4183 43.2 33.6183 43.2 33.8823 43.2C33.8823 43.472 33.8823 43.672 33.8823 43.8C33.8823 43.936 33.8823 44.136 33.8823 44.4C33.7543 44.4 33.6223 44.4 33.4863 44.4C33.3103 44.4 33.1743 44.4 33.0783 44.4C32.9903 44.4 32.8583 44.4 32.6823 44.4ZM34.8903 44.4C34.8903 44.128 34.8903 43.924 34.8903 43.788C34.8903 43.66 34.8903 43.464 34.8903 43.2C35.1623 43.2 35.3623 43.2 35.4902 43.2C35.6263 43.2 35.8263 43.2 36.0903 43.2C36.0903 43.472 36.0903 43.672 36.0903 43.8C36.0903 43.936 36.0903 44.136 36.0903 44.4C35.8183 44.4 35.6143 44.4 35.4783 44.4C35.3503 44.4 35.1543 44.4 34.8903 44.4ZM32.3822 40.92H32.6943L32.7423 41.46L32.6943 42H32.3822V40.92Z" fill="#E5C1C4"/>
</svg>
